<?xml version="1.0" encoding="utf-8"?>
<!-- Generator: Adobe Illustrator 22.1.0, SVG Export Plug-In . SVG Version: 6.00 Build 0)  -->
<svg version="1.1" id="Layer_1" xmlns="http://www.w3.org/2000/svg" xmlns:xlink="http://www.w3.org/1999/xlink" x="0px" y="0px"
	 viewBox="0 0 551.6 614" style="enable-background:new 0 0 551.6 614;" xml:space="preserve">
<style type="text/css">
	.st0{fill:#FFFFFF;}
</style>
<title>Asset 497</title>
<g id="Layer_2_1_">
	<g id="Layer_1-2">
		<path class="st0" d="M35.1,367.5c-0.1,0-0.3,0-0.4-0.1c-0.8-0.2-1.2-1.1-1-1.9c0,0,0,0,0,0c0.7-2.4,1.4-4.7,2.1-7
			c4.4-14.7,8.6-28.6,12.1-43.3c0.2-0.9,0.7-1.7,1.4-2.3c0.2-0.2,0.4-0.4,0.6-0.6c0,0,0,0,0,0c1.6-10.1,4.9-19.7,8.2-29
			c1-2.7,1.9-5.5,2.9-8.3c1.8-5.8,3.3-11.7,4.3-17.7c0.5-2.6,1-5.3,1.7-8.1c6-20.6,12.1-40.8,18-60.4c11.2-37.1,21.7-72.2,32-109.7
			c0-0.1,0-0.1,0-0.2c1.1-2.8,1.9-5.5,2.7-8.2c0.6-2.1,1.2-4.1,1.9-6c0.2-0.8,1-1.3,1.8-1.1c0.8,0.2,1.3,1,1.1,1.8
			c0,0.1-0.1,0.2-0.1,0.3c-0.7,1.8-1.2,3.7-1.8,5.8c-0.7,2.9-1.6,5.7-2.7,8.4c-10.3,37.5-20.9,72.6-32,109.7
			c-5.9,19.6-12,39.8-18,60.3c-0.6,2.7-1.1,5.4-1.6,8c-1.1,6.1-2.5,12.1-4.4,18.1c-0.9,2.8-1.9,5.6-2.9,8.3
			c-3.2,9.1-6.5,18.5-8,28.4c-0.2,1-0.7,1.8-1.4,2.4c-0.2,0.2-0.4,0.4-0.6,0.6c0,0.1,0,0.1,0,0.2c-3.5,14.8-7.7,28.8-12.2,43.6
			l-2.1,7C36.4,367.1,35.8,367.5,35.1,367.5z M49.9,312.5L49.9,312.5z"/>
		<path class="st0" d="M134.4,566c-0.5,0-1-0.3-1.2-0.7c-16.7-25.1-33.1-50.9-49.1-75.8c-14.6-22.9-29.7-46.5-45-69.6
			c-0.5-0.7-0.3-1.6,0.4-2.1c0.7-0.5,1.6-0.3,2.1,0.4l0,0c15.3,23.1,30.4,46.8,45,69.7c15.9,24.9,32.3,50.7,49.1,75.8
			c0.5,0.7,0.3,1.6-0.4,2.1C134.9,565.9,134.6,566,134.4,566z"/>
		<path class="st0" d="M309.4,42.9h-0.1l-31.8-2.4c-43.6-3.2-79-5.7-111.5-7.9c-0.8-0.1-1.5-0.8-1.4-1.6s0.8-1.5,1.6-1.4
			c32.6,2.1,68,4.6,111.6,7.9l31.8,2.4c0.8,0,1.5,0.7,1.4,1.6S310.2,43,309.4,42.9L309.4,42.9L309.4,42.9z"/>
		<path class="st0" d="M486.5,163.8c-0.4,0-0.7-0.1-1-0.4c-7-6.2-14.6-13.1-24-21.8L448.7,130c-23.6-21.6-48-43.9-72.8-64.8
			c-0.6-0.5-0.7-1.5-0.2-2.1c0.5-0.6,1.5-0.7,2.1-0.2l0,0c24.9,21,49.3,43.3,72.9,64.9l12.8,11.7c9.4,8.6,17.1,15.5,24,21.7
			c0.6,0.6,0.7,1.5,0.1,2.1C487.3,163.6,486.9,163.8,486.5,163.8z"/>
		<path class="st0" d="M486.4,322h-0.2c-0.8-0.1-1.4-0.9-1.2-1.7c1.7-10.4,3.4-20.8,5.1-31.3c4.3-26.6,8.7-54.1,13.2-80.9
			c0.1-0.8,0.9-1.4,1.8-1.2s1.4,0.9,1.2,1.8c-4.5,26.8-9,54.3-13.2,80.9c-1.7,10.5-3.4,20.9-5.1,31.3
			C487.8,321.5,487.1,322,486.4,322z"/>
		<path class="st0" d="M252.9,196.7c-0.5,0-0.9-0.2-1.2-0.6c-7.2-9.9-14.6-20.2-22.8-31.3c-19.1-26.1-38.9-52.4-57.9-77.9
			c-8-10.6-15.9-21.2-23.8-31.8c-0.5-0.7-0.4-1.6,0.3-2.1c0.7-0.5,1.6-0.4,2.1,0.3c7.9,10.6,15.8,21.3,23.8,31.9
			c19.1,25.5,38.7,51.9,57.9,78c8.2,11.1,15.6,21.4,22.8,31.3c0.5,0.7,0.3,1.6-0.3,2.1c0,0,0,0,0,0
			C253.5,196.6,253.2,196.7,252.9,196.7z"/>
		<path class="st0" d="M284.1,186.4c-0.2,0-0.4,0-0.6-0.1c-0.7-0.3-1.1-1.2-0.7-2c0,0,0,0,0,0c15-32.4,32.9-70.8,52.8-109.6
			c0.4-0.7,1.3-1,2-0.7c0.7,0.4,1,1.3,0.6,2c-19.8,38.7-37.8,77-52.7,109.4C285.3,186,284.7,186.4,284.1,186.4z"/>
		<path class="st0" d="M245.4,259.4L245.4,259.4c-1.2,0-2.3-0.8-2.6-1.9c-0.3-1.3,0-2.6,0.7-3.6c6.8-11.9,14.2-23.5,22.1-34.6
			l0.8-1.1c5.3-7.4,10.7-15,11.9-23.8c0.1-0.8,0.8-1.4,1.6-1.3c0,0,0,0,0,0c0.8,0.1,1.4,0.9,1.3,1.7c-1.3,9.5-6.9,17.4-12.4,25.1
			l-0.8,1.1c-7.9,11.1-15.2,22.6-22,34.4c-0.1,0.2-0.2,0.4-0.3,0.6c0.3-0.1,0.6,0,0.9,0.1c0.8,0.3,1.2,1.2,0.9,1.9c0,0,0,0,0,0
			C247.2,258.8,246.3,259.4,245.4,259.4z M245.6,256.6L245.6,256.6z"/>
		<path class="st0" d="M288.5,240c-0.5,0-0.9-0.2-1.2-0.6c-9.7-13.4-20.4-26-31.9-37.8c-0.6-0.6-0.6-1.5,0-2.1s1.5-0.6,2.1,0
			c11.7,11.9,22.4,24.7,32.2,38.1c0.5,0.7,0.3,1.6-0.3,2.1C289.1,239.9,288.8,240,288.5,240z"/>
		<path class="st0" d="M271.8,243.1c-0.8,0-1.4-0.6-1.5-1.4l-4-51.1c-0.1-0.8,0.6-1.6,1.4-1.6c0.8-0.1,1.6,0.6,1.6,1.4l0,0l4,51.1
			c0.1,0.8-0.5,1.6-1.4,1.6c0,0,0,0,0,0L271.8,243.1z"/>
		<path class="st0" d="M255.4,219.2c-0.8,0.1-1.6-0.5-1.6-1.4c-0.1-0.8,0.5-1.5,1.3-1.6l46.8-10.8c0.8-0.2,1.6,0.3,1.8,1.1
			s-0.3,1.6-1.1,1.8l-46.8,10.8C255.7,219.2,255.5,219.2,255.4,219.2z"/>
		<path class="st0" d="M339,70.8c-0.7,0-1.3-0.2-1.9-0.6c-0.7-0.5-0.9-1.4-0.4-2.1c0,0,0,0,0,0c13.5-18.7,28.8-40,34.7-63.9
			c0.2-0.8,0.9-1.4,1.7-1.2c0.8,0.2,1.4,0.9,1.2,1.7c0,0.1,0,0.1,0,0.2c-5.6,22.9-19.5,43.2-32.5,61.2c0.5,0.3,0.8,0.9,0.8,1.4
			c-0.1,1.2-0.9,2.3-2,2.8C340.1,70.7,339.6,70.9,339,70.8z"/>
		<path class="st0" d="M366.6,62c-0.7,0-1.3-0.5-1.5-1.2c-0.6-3.2-3-5.7-6-8.5l-29.5-27.9c-0.6-0.6-0.6-1.5-0.1-2.1
			c0.6-0.6,1.5-0.6,2.1-0.1l0,0l29.6,27.9c2.6,2.4,6.1,5.7,6.9,10.1c0.2,0.8-0.3,1.6-1.2,1.8c0,0,0,0-0.1,0H366.6z"/>
		<path class="st0" d="M324.9,48.8c-0.8,0-1.5-0.6-1.5-1.5c0-0.4,0.1-0.7,0.4-1c2.3-2.8,6.4-2.4,8.6-2.2c21.2,2.1,42.6,1.2,63.6-2.5
			c0.8-0.2,1.6,0.3,1.8,1.1c0.2,0.8-0.3,1.6-1.1,1.8c0,0-0.1,0-0.1,0c-21.3,3.8-43,4.7-64.5,2.5c-2.5-0.2-4.9-0.3-6,1.1
			C325.8,48.6,325.4,48.8,324.9,48.8z"/>
		<path class="st0" d="M353.5,66h-0.1c-0.8-0.1-1.5-0.8-1.4-1.6c0,0,0,0,0,0c1-14.8,3-29.6,6-44.1c0.1-0.8,0.9-1.4,1.7-1.3
			c0.8,0.1,1.4,0.9,1.3,1.7c0,0.1,0,0.1,0,0.2c-3,14.4-5,29-6,43.7C354.9,65.4,354.3,66,353.5,66z"/>
		<path class="st0" d="M550.1,214.4c-0.3,0-0.6-0.1-0.9-0.3c-17.3-13.1-34.7-26.7-51.6-40.3c-3-2.4-5.9-5.4-5.5-9.2
			c0-0.4,0.3-0.8,0.7-1.1c1.4-0.8,3.1-0.3,3.8,1.1c0.5,0.8,0.5,1.8,0,2.7c-0.2,0.3-0.4,0.5-0.7,0.6c1,1.4,2.2,2.6,3.6,3.6
			c16.9,13.6,34.3,27.2,51.6,40.3c0.7,0.5,0.8,1.4,0.3,2.1C551,214.2,550.6,214.4,550.1,214.4z"/>
		<path class="st0" d="M508.4,203L508.4,203c-0.8,0-1.5-0.7-1.5-1.5c0.4-18.5,4.7-36.7,12.4-53.5c0.4-0.8,1.2-1.1,2-0.7
			c0.8,0.4,1.1,1.2,0.7,2l0,0c-7.6,16.4-11.7,34.2-12.2,52.2C509.9,202.3,509.3,203,508.4,203C508.4,203,508.4,203,508.4,203z"/>
		<path class="st0" d="M490.4,193.3c-0.8,0-1.5-0.6-1.6-1.4s0.6-1.5,1.4-1.6c17.1-2.1,33.8-7,49.2-14.6c0.7-0.4,1.6-0.1,2,0.7
			c0.4,0.7,0.1,1.6-0.7,2c-15.8,7.7-32.8,12.8-50.2,14.9L490.4,193.3z"/>
		<path class="st0" d="M516.8,201.4c-0.5,0-1-0.3-1.3-0.7c-8-12.9-14.9-26.5-20.5-40.6c-0.3-0.8,0.1-1.6,0.9-1.9
			c0.7-0.3,1.5,0.1,1.9,0.8c5.6,13.9,12.4,27.3,20.4,40.1c0.4,0.7,0.2,1.6-0.5,2.1C517.4,201.3,517.1,201.4,516.8,201.4z"/>
		<path class="st0" d="M475.3,375L475.3,375c-0.8,0-1.5-0.7-1.5-1.5c0,0,0,0,0,0c0.1-11,1.9-21.9,5.2-32.4c0.2-0.8,1-1.3,1.8-1
			c0.8,0.2,1.3,1,1,1.8c0,0,0,0.1,0,0.1c-3.2,10.2-4.9,20.8-5,31.5C476.8,374.4,476.2,375,475.3,375C475.3,375,475.3,375,475.3,375z
			"/>
		<path class="st0" d="M503.4,363.6h-0.2c-14.8-1.8-29.4-5.5-43.2-11.1c-0.8-0.3-1.2-1.2-0.8-2c0,0,0,0,0,0c0.3-0.8,1.2-1.1,1.9-0.9
			c0,0,0,0,0.1,0c13.6,5.5,27.9,9.2,42.5,10.9c0.8,0,1.5,0.8,1.4,1.6S504.3,363.6,503.4,363.6L503.4,363.6z"/>
		<path class="st0" d="M491.6,372.9c-0.5,0-0.9-0.2-1.2-0.6l-26.5-33.6c-0.5-0.6-0.5-1.6,0.2-2.1c0.6-0.5,1.6-0.5,2.1,0.2
			c0,0,0.1,0.1,0.1,0.1l26.5,33.6c0.5,0.7,0.4,1.6-0.2,2.1C492.2,372.7,491.9,372.9,491.6,372.9z"/>
		<path class="st0" d="M462.3,369.9c-0.5,0-0.9-0.2-1.2-0.6c-0.5-0.7-0.4-1.6,0.3-2.1c0,0,0,0,0,0c13.8-10.2,26.3-22.1,37.1-35.4
			c0.5-0.7,1.4-0.8,2.1-0.4c0.7,0.5,0.8,1.4,0.4,2.1c0,0.1-0.1,0.1-0.1,0.1c-11,13.6-23.6,25.6-37.6,36
			C462.9,369.9,462.6,369.9,462.3,369.9z"/>
		<path class="st0" d="M140.9,47.4c-0.5,0-0.9-0.2-1.2-0.6l-21-28.1c-2.9-3.9-6.2-7.5-10.1-7.5h-0.1c-0.8,0-1.5-0.7-1.5-1.5
			c0-0.8,0.6-1.5,1.4-1.5c0,0,0,0,0,0h0.2c5.3,0,9.1,4.2,12.5,8.7l21,28.1c0.5,0.7,0.4,1.6-0.3,2.1
			C141.5,47.3,141.2,47.4,140.9,47.4L140.9,47.4z"/>
		<path class="st0" d="M117.2,56.9c-0.8,0-1.5-0.7-1.5-1.5c0-0.2,0.1-0.4,0.1-0.6c8-16.6,15.6-33.6,22.6-50.7
			c0.3-0.8,1.2-1.2,1.9-0.9s1.2,1.2,0.9,1.9c0,0,0,0,0,0.1c-7,17.1-14.7,34.2-22.7,50.8C118.3,56.6,117.8,56.9,117.2,56.9z"/>
		<path class="st0" d="M115.7,37.8c-3.2,0-6.3-0.1-9.5-0.3c-0.8-0.1-1.5-0.8-1.4-1.6s0.8-1.5,1.6-1.4c17,1.2,34.1-0.9,50.3-6
			c0.8-0.2,1.6,0.2,1.8,1c0.2,0.8-0.2,1.6-0.9,1.8C144.1,35.6,129.9,37.8,115.7,37.8z"/>
		<path class="st0" d="M127.3,54c-0.8,0-1.5-0.6-1.5-1.5l-1.8-51c0-0.8,0.6-1.5,1.4-1.6c0.8,0,1.5,0.6,1.6,1.5l1.8,51
			C128.8,53.3,128.2,54,127.3,54L127.3,54z"/>
		<path class="st0" d="M11.1,426.1c-0.5,0-0.9-0.2-1.2-0.6c-2.2-2.8-1.2-6.5,0-9.4c6-15.4,13.1-30.4,21.2-44.8
			c0.4-1.1,1.5-1.7,2.6-1.5c0.8,0.2,1.3,0.8,1.4,1.6c0.1,0.8-0.4,1.6-1.2,1.9c-0.2,0.1-0.4,0.1-0.6,0.1
			c-7.8,14.1-14.7,28.7-20.6,43.7c-0.9,2.2-1.7,4.9-0.4,6.4c0.5,0.6,0.4,1.6-0.2,2.1C11.8,426,11.4,426.1,11.1,426.1L11.1,426.1z"/>
		<path class="st0" d="M30.3,410c-0.6,0-1.2-0.4-1.4-1c-5.1-14.9-12.3-29-21.4-41.9c-0.5-0.7-0.3-1.6,0.4-2.1c0.7-0.4,1.6-0.3,2,0.4
			c9.2,13.1,16.6,27.5,21.8,42.6c0.3,0.8-0.1,1.6-0.9,1.9c0,0,0,0,0,0C30.6,410,30.4,410,30.3,410z"/>
		<path class="st0" d="M48.9,397.9c-0.5,0-0.9-0.2-1.2-0.6c-1.4-1.9-4.5-2.1-7.5-2l-38.7,1c-0.8,0-1.5-0.7-1.5-1.5c0,0,0,0,0,0
			c0-0.8,0.6-1.5,1.5-1.5c0,0,0,0,0,0l38.7-1c3.9-0.1,7.8,0.2,10,3.2c0.5,0.7,0.4,1.6-0.3,2.1c0,0,0,0,0,0
			C49.6,397.8,49.3,397.9,48.9,397.9z"/>
		<path class="st0" d="M18.4,418c-0.8,0-1.4-0.6-1.5-1.4c-1.1-16.4-1.4-32.8-0.9-49.1c0-0.8,0.7-1.5,1.5-1.5c0,0,0,0,0.1,0
			c0.8,0,1.5,0.7,1.5,1.5c0,0,0,0,0,0c-0.5,16.3-0.2,32.6,0.9,48.8c0.1,0.8-0.6,1.5-1.4,1.6c0,0,0,0,0,0L18.4,418z"/>
		<path class="st0" d="M165.4,603c-0.4,0-0.7-0.2-1-0.4c-8.4-7.9-16.5-16.4-24.1-25.1c-0.6-0.6-0.5-1.6,0.1-2.1
			c0.6-0.6,1.6-0.5,2.1,0.1c7.5,8.7,15.5,17,23.9,24.9c0.6,0.6,0.6,1.5,0.1,2.1C166.2,602.8,165.8,603,165.4,603L165.4,603z"/>
		<path class="st0" d="M140.1,604.8c-0.8,0-1.5-0.7-1.5-1.5c0-0.3,0.1-0.7,0.3-0.9c7.4-8.8,15.3-17.5,23.4-25.8
			c0.6-0.6,1.5-0.6,2.1,0c0.6,0.6,0.6,1.5,0,2.1c-8.1,8.2-15.9,16.8-23.3,25.6C140.9,604.6,140.5,604.8,140.1,604.8z"/>
		<path class="st0" d="M149.4,614c-0.8,0-1.5-0.6-1.5-1.5c-0.5-15.1,0.2-30.2,2-45.2c0.1-0.8,0.9-1.4,1.7-1.3s1.4,0.9,1.3,1.7
			c-1.8,14.8-2.5,29.8-2,44.8C150.9,613.3,150.2,614,149.4,614C149.4,614,149.4,614,149.4,614L149.4,614z"/>
		<path class="st0" d="M149.1,593.8c-5.9,0-11.9-0.2-17.8-0.5c-0.8,0-1.5-0.8-1.4-1.6c0.1-0.8,0.8-1.4,1.6-1.4
			c17.6,1,35.2,0.5,52.7-1.5c0.8-0.1,1.6,0.5,1.7,1.3c0.1,0.8-0.5,1.6-1.3,1.6c0,0,0,0,0,0C172.7,593.1,160.9,593.8,149.1,593.8z"/>
	</g>
</g>
</svg>
