<?xml version="1.0" encoding="utf-8"?>
<!-- Generator: Adobe Illustrator 22.1.0, SVG Export Plug-In . SVG Version: 6.00 Build 0)  -->
<svg version="1.1" id="Layer_1" xmlns="http://www.w3.org/2000/svg" xmlns:xlink="http://www.w3.org/1999/xlink" x="0px" y="0px"
	 viewBox="0 0 577.4 663.7" style="enable-background:new 0 0 577.4 663.7;" xml:space="preserve">
<style type="text/css">
	.st0{fill:#FFFFFF;}
</style>
<title>Asset 507</title>
<g id="Layer_2_1_">
	<g id="Layer_1-2">
		<path class="st0" d="M265.1,91.2c-0.4,0-0.7-0.1-1-0.4l-45.7-42.4c-0.7-0.5-0.9-1.4-0.4-2.1s1.4-0.9,2.1-0.4
			c0.1,0.1,0.2,0.2,0.3,0.3l45.6,42.4c0.6,0.6,0.6,1.5,0.1,2.1C265.9,91,265.5,91.2,265.1,91.2L265.1,91.2z"/>
		<path class="st0" d="M47.5,166.7c-0.4,0-0.8-0.2-1.1-0.5c-0.6-0.6-0.5-1.5,0.1-2.1c0,0,0,0,0,0c24.9-22.4,49.4-46,73-68.9
			c18.9-18.2,38.4-37.1,58-55.2c0.7-0.5,1.6-0.3,2.1,0.4c0.4,0.6,0.3,1.3-0.1,1.8c-19.6,18-39.1,36.9-57.9,55.1
			c-23.6,22.8-48.1,46.5-73.1,68.9C48.2,166.6,47.9,166.7,47.5,166.7z"/>
		<path class="st0" d="M65.6,383.4c-0.7,0-1.4-0.5-1.5-1.3c-8.8-56.2-18-114.3-29.3-173c-0.2-0.8,0.4-1.6,1.2-1.8
			c0.8-0.2,1.6,0.4,1.8,1.2C49.1,267.3,58.2,325.4,67,381.6c0.1,0.8-0.4,1.6-1.2,1.7c0,0,0,0,0,0C65.7,383.4,65.6,383.4,65.6,383.4z
			"/>
		<path class="st0" d="M336.1,619.8c-0.3,0-0.7-0.1-0.9-0.3c-10.6-8.4-21.5-16.8-32.1-24.9c-29.2-22.5-59.5-45.8-86.7-71.5
			c-26.3-18.7-50.2-37.9-75.5-58.2L127.5,454c-3.6-3-6.9-6.1-10.1-9.1s-6.4-5.9-9.9-8.9c-6.9-4.9-14-10-20.5-16.3
			c-0.6-0.6-0.6-1.5,0-2.1s1.5-0.6,2.1,0c6.3,6.1,13.4,11.1,20.2,16l0.1,0.1c3.5,3,6.8,6.1,10,9s6.5,6,10,9c4.5,3.6,9,7.2,13.4,10.8
			c25.3,20.4,49.2,39.6,75.5,58.2l0.2,0.1c27.1,25.6,57.3,48.9,86.5,71.4c10.6,8.1,21.5,16.6,32.1,25c0.6,0.5,0.7,1.5,0.2,2.1
			C337,619.6,336.6,619.8,336.1,619.8L336.1,619.8z"/>
		<path class="st0" d="M376.5,608.3c-0.2,0-0.3,0-0.5-0.1c-0.8-0.3-1.2-1.1-0.9-1.9c5.1-14.7,10.2-27.7,16-41.1
			c3.8-9.9,7.1-20,10.4-29.7c3.6-10.9,7.4-22.1,11.8-33.2c0.3-0.8,1.1-1.2,1.9-0.9c0.8,0.3,1.2,1.1,0.9,1.9c0,0,0,0,0,0.1
			c-4.3,11-8.1,22.2-11.7,33c-3.3,9.8-6.7,19.9-10.5,29.9c-5.7,13.4-10.8,26.4-15.9,41C377.7,608,377.2,608.3,376.5,608.3z"/>
		<path class="st0" d="M400.1,375c-0.7,0-1.3-0.5-1.5-1.2l-1.9-9.6c-5-25-10.2-50.8-15.4-76.2c-0.2-0.8,0.4-1.6,1.2-1.8
			c0.8-0.2,1.6,0.4,1.8,1.2c5.2,25.4,10.4,51.2,15.4,76.2l1.9,9.6c0.2,0.8-0.4,1.6-1.2,1.8C400.3,375,400.2,375,400.1,375z"/>
		<path class="st0" d="M417.1,459.1c-0.7,0-1.3-0.5-1.5-1.2c-2.6-12.8-5.4-26.3-8.5-41.5c-0.1-0.8,0.4-1.6,1.2-1.7
			c0.8-0.1,1.5,0.4,1.7,1.1c3.1,15.1,5.8,28.7,8.5,41.4c0.2,0.8-0.4,1.6-1.2,1.8c0,0,0,0,0,0L417.1,459.1z"/>
		<path class="st0" d="M415.6,382.8c-0.2,0-0.4,0-0.6-0.1c-0.8-0.3-1.1-1.2-0.8-2c0,0,0,0,0,0c45.6-105.8,90-212.6,127.9-304.4
			c0.3-0.8,1.2-1.1,2-0.8c0.8,0.3,1.1,1.2,0.8,2c-38,91.8-82.3,198.6-128,304.4C416.8,382.5,416.2,382.8,415.6,382.8z"/>
		<path class="st0" d="M1.5,212.8c-0.4,0-0.8-0.2-1.1-0.5c-0.6-0.6-0.6-1.5,0-2.1c14.2-13.8,28.1-28.2,41.5-42.8
			c0.5-0.7,1.4-0.8,2.1-0.3c0.7,0.5,0.8,1.4,0.3,2.1c-0.1,0.1-0.1,0.2-0.2,0.3c-13.4,14.6-27.4,29-41.6,42.9
			C2.3,212.7,1.9,212.8,1.5,212.8z"/>
		<path class="st0" d="M33.8,202c-0.8,0-1.4-0.6-1.5-1.3c-2.4-17.8-5.7-35.5-9.9-53c-0.2-0.8,0.3-1.6,1.1-1.8
			c0.8-0.2,1.6,0.3,1.8,1.1l0,0c4.2,17.6,7.5,35.4,9.9,53.3c0.1,0.8-0.4,1.6-1.2,1.7H33.8z"/>
		<path class="st0" d="M15.6,182.9c-2.9,0-5.7-0.2-8.5-0.7c-0.8-0.1-1.4-0.9-1.2-1.7c0,0,0,0,0,0c0.2-0.8,0.9-1.3,1.7-1.2
			c9.1,1.6,18.2,0,27.9-1.7c5.9-1.2,11.8-2,17.8-2.4c3.7-0.2,7.5,0,11.1,0.1c0.8,0,1.5,0.7,1.5,1.5s-0.7,1.5-1.5,1.5h-0.1
			c-3.6-0.1-7.2-0.3-10.8-0.1c-5.8,0.4-11.7,1.2-17.4,2.3C29.3,181.7,22.4,182.9,15.6,182.9z"/>
		<path class="st0" d="M23.5,200.8c-0.8,0-1.5-0.7-1.5-1.5c0-0.2,0-0.3,0.1-0.5c5.2-14.6,9.9-29.6,13.7-44.7c0.2-0.8,1-1.3,1.8-1.2
			c0.8,0.2,1.3,1,1.2,1.8c0,0.1,0,0.1,0,0.2c-3.9,15.1-8.5,30.2-13.8,44.9C24.6,200.4,24.1,200.8,23.5,200.8z"/>
		<path class="st0" d="M183.3,39.7c-0.8,0-1.5-0.7-1.5-1.5c0-0.4,0.2-0.8,0.4-1c11.1-11.1,21.6-22.7,31.6-34.9
			c0.5-0.7,1.4-0.8,2.1-0.4c0.7,0.5,0.8,1.4,0.4,2.1c0,0.1-0.1,0.1-0.1,0.2c-10,12.2-20.6,24-31.8,35.1
			C184.1,39.6,183.7,39.7,183.3,39.7z"/>
		<path class="st0" d="M216.9,45.3c-0.3,0-0.6-0.1-0.9-0.3c-13.3-9.6-25.1-21.2-34.8-34.3c-0.5-0.7-0.4-1.6,0.3-2.1
			c0.7-0.5,1.6-0.4,2.1,0.3c9.6,12.9,21.1,24.3,34.2,33.7c0.7,0.5,0.8,1.4,0.3,2.1C217.8,45.1,217.4,45.3,216.9,45.3z"/>
		<path class="st0" d="M195.4,51c-0.8,0-1.5-0.7-1.5-1.5c-0.2-16.1,0.9-32.3,3.4-48.2c0.1-0.8,0.9-1.4,1.7-1.3s1.4,0.9,1.3,1.7l0,0
			c-2.5,15.8-3.6,31.8-3.4,47.7C197,50.3,196.3,51,195.4,51C195.5,51,195.5,51,195.4,51L195.4,51z"/>
		<path class="st0" d="M218.1,26.6h-0.1c-11.3-1.1-22.7-1.4-34.1-0.7c-0.8,0.1-1.5-0.5-1.6-1.4c0,0,0,0,0,0c0-0.8,0.6-1.5,1.4-1.6
			c11.5-0.7,23.1-0.4,34.6,0.7c0.8,0,1.5,0.7,1.4,1.6S218.9,26.7,218.1,26.6L218.1,26.6z"/>
		<path class="st0" d="M78.2,447.1c-0.8,0-1.5-0.7-1.5-1.5c0-18.6-3.2-37.1-9.3-54.7c-0.7,0.1-1.3-0.2-1.6-0.8
			c-0.3-0.5-0.9-0.9-1.5-0.8c-0.8,0.1-1.6-0.5-1.7-1.3c-0.1-0.8,0.5-1.6,1.3-1.7c0.4-0.1,0.8-0.1,1.2,0l-0.4-2.4
			c-0.1-0.8,0.4-1.6,1.3-1.7c0.7-0.1,1.4,0.3,1.6,0.9c7.9,19.9,12,41.1,12,62.5C79.7,446.3,79,447,78.2,447.1L78.2,447.1z"/>
		<path class="st0" d="M52.6,422.9c-0.5,0-1-0.3-1.3-0.7c-0.5-0.7-0.3-1.6,0.4-2.1c0,0,0,0,0,0c14.3-9.3,27.9-19.5,40.8-30.6
			c0.6-0.6,1.6-0.5,2.1,0.1c0.6,0.6,0.5,1.6-0.1,2.1c-13,11.2-26.8,21.5-41.2,30.9C53.2,422.8,52.9,422.8,52.6,422.9z"/>
		<path class="st0" d="M83.8,415.6c-0.2,0-0.4-0.1-0.6-0.1c-10.3-4.7-19.9-10.7-28.7-17.9c-0.7-0.5-0.8-1.4-0.3-2.1s1.4-0.8,2.1-0.3
			c0,0,0,0,0.1,0.1c8.6,7,18,12.9,28.1,17.5c0.8,0.3,1.1,1.2,0.8,2C84.9,415.3,84.4,415.6,83.8,415.6L83.8,415.6z"/>
		<path class="st0" d="M67.8,428.3c-0.2,0-0.3,0-0.5-0.1c-0.8-0.3-1.2-1.1-0.9-1.9c0,0,0,0,0,0c8-22.5,18-44.1,30-64.8
			c0.4-0.7,1.3-1,2.1-0.6c0.7,0.4,1,1.3,0.6,2.1c-11.9,20.4-21.9,41.9-29.8,64.2C69,427.9,68.4,428.3,67.8,428.3z"/>
		<path class="st0" d="M405.2,409.8c-0.7,0-1.2-0.4-1.4-1.1l-7.6-25.5c-0.2-0.8,0.2-1.6,1-1.9c0.8-0.2,1.6,0.2,1.9,1l7.6,25.5
			c0.2,0.8-0.2,1.6-1,1.9C405.5,409.8,405.3,409.8,405.2,409.8z"/>
		<path class="st0" d="M386.8,400.6c-0.8,0.1-1.6-0.5-1.6-1.4s0.5-1.6,1.4-1.6c12.7-2.2,25-6.5,36.3-12.8c0.7-0.4,1.6-0.1,2,0.6
			c0.4,0.7,0.1,1.6-0.6,2c-11.6,6.5-24.2,10.9-37.3,13.1L386.8,400.6z"/>
		<path class="st0" d="M384.7,430.4c-0.2,0-0.4-0.1-0.6-0.1c-0.8-0.3-1.1-1.2-0.7-2c0,0,0,0,0,0l22.3-48.2c0.3-0.8,1.2-1.1,2-0.8
			c0.8,0.3,1.1,1.2,0.8,2c0,0,0,0.1,0,0.1l-22.3,48.2C385.8,430,385.3,430.4,384.7,430.4z"/>
		<path class="st0" d="M421,403.9c-0.3,0-0.5-0.1-0.7-0.2L389.9,387c-0.7-0.4-1-1.3-0.7-2c0.4-0.7,1.3-1,2-0.7c0,0,0.1,0,0.1,0
			l30.4,16.7c0.7,0.4,1,1.3,0.6,2C422.1,403.6,421.6,403.9,421,403.9z"/>
		<path class="st0" d="M378.7,278.5c-0.7,0-1.3-0.4-1.4-1.1l-9.1-32.3c-0.2-0.8,0.2-1.6,1-1.9s1.6,0.2,1.9,1l0,0l9.1,32.3
			c0.2,0.8-0.2,1.6-1,1.9C379,278.5,378.9,278.5,378.7,278.5z"/>
		<path class="st0" d="M357.9,267.9c-0.8,0-1.5-0.7-1.5-1.5c0-0.6,0.3-1.1,0.8-1.3l32-15.3c0.8-0.3,1.6,0,2,0.8
			c0.3,0.7,0,1.5-0.7,1.9l-32,15.3C358.4,267.9,358.2,267.9,357.9,267.9z"/>
		<path class="st0" d="M390.4,273.9c-0.3,0-0.6-0.1-0.9-0.3l-27.5-19c-0.5-0.4-2.1-1.4-1.9-3.1c0.1-0.8,0.6-1.5,1.4-1.8
			c0.8-0.3,1.7-0.2,2.3,0.3c0.5,0.4,0.8,1.1,0.7,1.8c0,0.3-0.2,0.5-0.3,0.7l27.1,18.7c0.7,0.5,0.9,1.4,0.4,2.1
			C391.3,273.7,390.9,273.9,390.4,273.9L390.4,273.9z"/>
		<path class="st0" d="M364.1,278.4c-0.3,0-0.5-0.1-0.8-0.2c-0.7-0.4-1-1.3-0.6-2c0,0,0,0,0,0l26.7-45.9c0.4-0.7,1.3-1,2-0.5
			c0.7,0.4,1,1.3,0.5,2c0,0,0,0,0,0l-26.7,45.9C365.2,278.1,364.7,278.4,364.1,278.4z"/>
		<path class="st0" d="M544.8,75.6c-0.2,0-0.4,0-0.5-0.1c-0.8-0.3-1.2-1.2-0.9-1.9c4.7-12.6,10.9-24.6,18.5-35.7
			c0.5-0.7,1.4-0.9,2.1-0.4c0.7,0.5,0.9,1.4,0.4,2.1c-7.5,10.9-13.6,22.7-18.2,35.1C546,75.2,545.4,75.6,544.8,75.6z"/>
		<path class="st0" d="M571.6,81.7c-0.5,0-0.9-0.2-1.2-0.6c-10.2-12.6-20.4-25.5-30.3-38.4c-0.5-0.6-0.5-1.6,0.1-2.1
			c0.6-0.5,1.6-0.5,2.1,0.1c0,0,0.1,0.1,0.1,0.1c9.9,12.8,20,25.7,30.2,38.3c0.5,0.6,0.4,1.6-0.2,2.1c0,0,0,0,0,0
			C572.3,81.6,572,81.7,571.6,81.7z"/>
		<path class="st0" d="M555.2,75.5c-0.8,0-1.5-0.6-1.5-1.4l-1.5-43.2c0-0.8,0.6-1.5,1.4-1.5c0,0,0,0,0,0c0.8,0,1.5,0.6,1.5,1.4
			c0,0,0,0,0,0.1l1.5,43.2C556.7,74.8,556,75.5,555.2,75.5C555.2,75.5,555.2,75.5,555.2,75.5L555.2,75.5z"/>
		<path class="st0" d="M575.9,58.1h-0.2l-35.3-4.9c-0.8-0.1-1.4-0.9-1.3-1.7c0.1-0.8,0.9-1.4,1.7-1.3l35.3,4.9
			c0.8,0.1,1.5,0.8,1.4,1.6C577.4,57.5,576.7,58.2,575.9,58.1L575.9,58.1L575.9,58.1z"/>
		<path class="st0" d="M351.5,663.7c-0.1,0-0.3,0-0.4,0c-0.8-0.2-1.2-1.1-1-1.9c5.1-18.1,11.5-35.8,19-53c0.3-0.8,1.2-1.1,2-0.8
			c0.8,0.3,1.1,1.2,0.8,2l0,0c-7.5,17.1-13.8,34.7-18.9,52.6C352.8,663.3,352.2,663.8,351.5,663.7z"/>
		<path class="st0" d="M382,646.8c-0.3,0-0.6-0.1-0.9-0.3c-12.2-9.2-25-17.6-38.2-25.1c-0.7-0.4-1-1.3-0.6-2c0.4-0.7,1.3-1,2-0.6
			l0,0c13.4,7.6,26.3,16.1,38.6,25.4c0.7,0.5,0.8,1.4,0.3,2.1C382.9,646.6,382.5,646.8,382,646.8L382,646.8z"/>
		<path class="st0" d="M363.3,648.3c-0.6,0-1.2-0.4-1.4-1c-5.6-15.9-10.1-32.1-13.4-48.6c-0.2-0.8,0.4-1.6,1.2-1.8
			c0.8-0.2,1.6,0.4,1.8,1.2l0,0c3.3,16.4,7.8,32.5,13.3,48.2c0.3,0.8-0.1,1.6-0.9,1.9c0,0,0,0,0,0
			C363.6,648.3,363.5,648.3,363.3,648.3z"/>
		<path class="st0" d="M346.8,628.5c-0.8,0.1-1.6-0.5-1.6-1.3c-0.1-0.8,0.5-1.6,1.4-1.7c10.7-2.2,21-6.4,30.2-12.3
			c5.6-3.6,9.8-4,12.4-1.3c0.6,0.6,0.6,1.5,0.1,2.1c-0.6,0.6-1.5,0.6-2.1,0.1c0,0-0.1,0-0.1-0.1c-1.5-1.5-4.5-0.9-8.7,1.8
			c-9.5,6.1-20.1,10.4-31.2,12.7L346.8,628.5z"/>
	</g>
</g>
</svg>
