<?xml version="1.0" encoding="utf-8"?>
<!-- Generator: Adobe Illustrator 22.1.0, SVG Export Plug-In . SVG Version: 6.00 Build 0)  -->
<svg version="1.1" id="Layer_1" xmlns="http://www.w3.org/2000/svg" xmlns:xlink="http://www.w3.org/1999/xlink" x="0px" y="0px"
	 viewBox="0 0 257.5 669.6" style="enable-background:new 0 0 257.5 669.6;" xml:space="preserve">
<style type="text/css">
	.st0{fill:#FFFFFF;}
</style>
<title>Asset 508</title>
<g id="Layer_2_1_">
	<g id="Layer_1-2">
		<path class="st0" d="M165.7,557.7c-0.5,0-0.9-0.2-1.2-0.6c-3.3-4.5-6.7-9-10.2-13.5c-11.6-15.4-23.6-31.3-33.9-47.8
			c-0.4-0.7-0.2-1.6,0.5-2.1c0.7-0.4,1.6-0.2,2,0.5c10.2,16.4,22.2,32.3,33.8,47.6c3.4,4.5,6.8,9,10.2,13.6c0.5,0.7,0.3,1.6-0.3,2.1
			C166.3,557.6,166,557.7,165.7,557.7L165.7,557.7z"/>
		<path class="st0" d="M211.2,620.1c-0.5,0-0.9-0.2-1.2-0.6c-4.8-6.8-9.9-13.9-15.2-21.2c-0.5-0.7-0.3-1.6,0.3-2.1
			c0.7-0.5,1.6-0.3,2.1,0.3c5.3,7.3,10.4,14.4,15.2,21.2c0.5,0.7,0.3,1.6-0.4,2.1C211.8,620,211.5,620.1,211.2,620.1z"/>
		<path class="st0" d="M95.6,438.7c-0.7,0-1.3-0.5-1.5-1.2c-5.7-33.8-13-66-20.8-100c-6-26.6-12.3-54.1-17.6-82.3
			c-5-26.2-10.4-51.8-15.6-76.5c-4.1-19.5-8.4-39.6-12.3-59.5c-0.2-0.8,0.3-1.6,1.1-1.8c0.8-0.2,1.6,0.3,1.8,1.1c0,0,0,0.1,0,0.1
			c3.9,19.9,8.2,40,12.3,59.4c5.2,24.8,10.6,50.3,15.6,76.6c5.3,28.2,11.6,55.6,17.6,82.2c7.4,32.5,15,66.2,20.8,100.1
			c0.1,0.8-0.4,1.6-1.2,1.7L95.6,438.7z"/>
		<path class="st0" d="M189,552.2h-0.1c-0.8-0.1-1.4-0.8-1.4-1.6c0,0,0,0,0,0c2-26.3,3.7-47.7,5.1-67.3c0.1-0.8,0.8-1.5,1.6-1.4
			c0.8,0.1,1.5,0.8,1.4,1.6l0,0c-1.4,19.7-3,41.1-5.1,67.3C190.4,551.6,189.8,552.2,189,552.2z"/>
		<path class="st0" d="M187,444.5c-0.7,0-1.3-0.5-1.5-1.2c-4.4-24.8-8.8-49.3-13.2-73.8c-12-67.4-24.4-137-37.6-209.2
			c-3.9-16.6-6.8-32-10-50c-0.8-5.8-2-11.7-3.2-17.4c-1.8-8.1-3.1-16.2-4-24.4c-0.1-0.8,0.6-1.6,1.4-1.6c0.8-0.1,1.6,0.6,1.6,1.4
			c0.8,8.1,2.2,16.1,3.9,24.1c1.2,5.7,2.3,11.7,3.2,17.5c3.2,17.9,6.1,33.3,10,49.9c13.3,72.3,25.7,142,37.7,209.3
			c4.4,24.5,8.7,49,13.1,73.8c0.1,0.8-0.4,1.6-1.2,1.7L187,444.5z"/>
		<path class="st0" d="M234.6,177.2L234.6,177.2c-0.9,0-1.5-0.7-1.5-1.6c1.4-37.7,1.6-74.1,1.8-112.6c0-7.1,0.1-14.2,0.1-21.3
			c0-0.8,0.7-1.5,1.5-1.5l0,0c0.8,0,1.5,0.7,1.5,1.5c0,0,0,0,0,0c0,7.1-0.1,14.2-0.1,21.3c-0.2,38.5-0.4,74.9-1.8,112.7
			C236,176.6,235.4,177.2,234.6,177.2z"/>
		<path class="st0" d="M228.4,597.1L228.4,597.1c-0.8,0-1.5-0.7-1.5-1.5c0.5-34,1-68,1.6-102.2c1.3-82.9,2.6-168.6,3.6-252.8
			c0-0.8,0.7-1.5,1.5-1.5l0,0c0.8,0,1.5,0.7,1.5,1.5c0,0,0,0,0,0c-1,84.2-2.3,169.9-3.6,252.8c-0.5,34.2-1,68.2-1.6,102.2
			C229.9,596.4,229.3,597.1,228.4,597.1z"/>
		<path class="st0" d="M234.5,234.4c-0.8,0-1.5-0.7-1.5-1.5l-0.3-44.9c0-0.8,0.7-1.5,1.5-1.5l0,0c0.8,0,1.5,0.7,1.5,1.5l0.4,44.9
			C236,233.7,235.4,234.4,234.5,234.4C234.5,234.4,234.5,234.4,234.5,234.4L234.5,234.4z"/>
		<path class="st0" d="M219.8,216.1c-3.1,0.1-6.2-0.4-9.1-1.4c-0.8-0.2-1.3-1-1-1.8c0.2-0.8,1-1.3,1.8-1c0.1,0,0.1,0,0.2,0.1
			c6.2,2.2,13.3,1.1,20.2-0.1c8.1-1.4,16.6-2.8,23.9,1.3c0.7,0.4,1,1.3,0.6,2c-0.4,0.7-1.3,1-2,0.6l0,0c-6.4-3.6-14-2.3-21.9-1
			C228.2,215.5,224,215.9,219.8,216.1z"/>
		<path class="st0" d="M251.5,228.6c-0.4,0-0.7-0.1-1-0.4c-9.4-8.6-18.7-17.6-27.8-26.6c-0.2,0.3-0.6,0.5-1,0.6
			c-0.8,0.1-1.6-0.4-1.7-1.2c0,0,0,0,0,0l-0.4-2.9c-0.1-0.8,0.5-1.6,1.3-1.7c0.5-0.1,0.9,0.1,1.3,0.4c9.9,9.9,20.1,19.8,30.3,29.2
			c0.6,0.6,0.6,1.5,0.1,2.1C252.4,228.4,252,228.6,251.5,228.6L251.5,228.6z"/>
		<path class="st0" d="M223.9,232.2c-0.2,0-0.5-0.1-0.7-0.2c-0.7-0.4-1-1.3-0.7-2c7.5-14.7,16.2-28.8,26.1-42
			c0.5-0.7,1.4-0.8,2.1-0.4c0.7,0.5,0.8,1.4,0.4,2.1c0,0,0,0.1-0.1,0.1c-9.8,13.1-18.5,27-25.9,41.6
			C225,231.9,224.5,232.2,223.9,232.2z"/>
		<path class="st0" d="M192.6,478.5L192.6,478.5c-0.9,0-1.5-0.8-1.5-1.6c0,0,0,0,0,0l3.6-57.6c0.1-0.8,0.8-1.5,1.6-1.4
			s1.5,0.8,1.4,1.6l-3.6,57.6C194,477.9,193.4,478.5,192.6,478.5z"/>
		<path class="st0" d="M210,469.3c-0.3,0-0.6-0.1-0.9-0.3c-12.1-8.4-24.8-16.1-37.8-23.1c-0.7-0.4-1-1.3-0.6-2s1.3-1,2-0.6
			c13.1,7,25.8,14.8,38.1,23.2c0.7,0.5,0.8,1.4,0.4,2.1C210.9,469.1,210.5,469.3,210,469.3L210,469.3z"/>
		<path class="st0" d="M181.5,468.5c-0.8,0-1.5-0.7-1.5-1.5c0-0.5,0.2-1,0.7-1.2l30.9-21c0.7-0.5,1.6-0.3,2.1,0.4
			c0.5,0.7,0.3,1.6-0.4,2.1l0,0l-30.9,21C182.1,468.4,181.8,468.5,181.5,468.5z"/>
		<path class="st0" d="M201,473.8c-0.5,0-1.1-0.3-1.3-0.8l-24-43.8c-0.4-0.7-0.2-1.6,0.5-2.1c0.7-0.4,1.6-0.2,2.1,0.5
			c0,0,0,0.1,0,0.1l24,43.8c0.4,0.7,0.1,1.6-0.6,2C201.5,473.7,201.3,473.8,201,473.8z"/>
		<path class="st0" d="M114.8,488.6c-0.4,0-0.7-0.2-1-0.4c-14.4-14.3-28.3-29.5-41.3-45.2c-0.5-0.7-0.3-1.6,0.4-2.1
			c0.6-0.4,1.3-0.3,1.9,0.2c12.9,15.6,26.7,30.7,41,45c0.6,0.6,0.6,1.5,0,2.1C115.5,488.4,115.1,488.6,114.8,488.6z"/>
		<path class="st0" d="M85.8,497c-0.2,0-0.5-0.1-0.7-0.2c-0.7-0.4-1-1.3-0.6-2l34.8-65c0.4-0.7,1.3-1,2-0.6c0.7,0.4,1,1.3,0.6,2
			l-34.8,64.9C86.9,496.7,86.4,497,85.8,497z"/>
		<path class="st0" d="M103.1,498c-0.7,0-1.3-0.5-1.4-1.1c-4-14.8-6.7-29.9-8.1-45.1c-0.5,0.3-1.1,0.6-1.8,0.7
			c-0.8,0.2-1.6-0.4-1.8-1.2c-0.2-0.8,0.4-1.6,1.2-1.8c0.9-0.2,1.6-0.8,2-1.6c-0.1-1.3-0.2-2.6-0.3-3.9c-0.1-0.8,0.5-1.6,1.3-1.6
			c0.5-0.1,1.1,0.2,1.4,0.6c1,1.6,1.3,3.6,0.6,5.4c1.3,16.1,4.1,32.1,8.3,47.7c0.2,0.8-0.2,1.6-1,1.8C103.5,498,103.3,498,103.1,498
			z"/>
		<path class="st0" d="M74.6,478.4c-0.8,0-1.5-0.7-1.5-1.5c0-0.2,0.1-0.5,0.2-0.7c1.7-3.3,5.7-4.1,8.1-4.6c17.2-3.4,34-8.9,50-16.2
			c0.8-0.3,1.6,0,2,0.7c0.3,0.8,0,1.6-0.7,2c-16.2,7.4-33.2,12.9-50.6,16.4c-2.6,0.5-5.1,1.2-6.1,3
			C75.7,478.1,75.1,478.4,74.6,478.4z"/>
		<path class="st0" d="M26,109.5c-0.6,0-1.2-0.3-1.5-0.8c-0.6-0.8-0.6-1.8-0.1-2.6c0.2-0.2,0.4-0.4,0.7-0.5l-6.9-40.4
			c-0.2-0.8,0.3-1.6,1.1-1.8c0.8-0.2,1.6,0.3,1.8,1.1c0,0.1,0,0.1,0,0.2l7,41.1c0.4,2.5-0.9,3.3-1.4,3.6
			C26.5,109.4,26.3,109.5,26,109.5z"/>
		<path class="st0" d="M119.2,60.5c-0.7,0-1.3-0.5-1.5-1.2l-8.8-39c-0.2-0.8,0.3-1.6,1.1-1.8s1.6,0.3,1.8,1.1l8.8,39
			c0.2,0.8-0.3,1.6-1.1,1.8C119.5,60.5,119.3,60.5,119.2,60.5z"/>
		<path class="st0" d="M237.1,35.3h-0.3c-0.8-0.2-1.4-0.9-1.2-1.8c2-10.6,3.3-21.4,3.9-32.2c0-0.8,0.7-1.5,1.5-1.4c0,0,0,0,0.1,0
			c0.8,0,1.5,0.8,1.4,1.6c0,0,0,0,0,0c-0.7,10.9-2,21.8-4,32.5C238.4,34.8,237.8,35.3,237.1,35.3z"/>
		<path class="st0" d="M228.4,21.2c-0.8,0.1-1.5-0.6-1.6-1.4c-0.1-0.8,0.6-1.5,1.4-1.6c8.5-1.2,17.1-1.5,25.7-0.9
			c0.8,0.1,1.5,0.8,1.4,1.6s-0.8,1.5-1.6,1.4c-8.3-0.6-16.7-0.3-25,0.9L228.4,21.2z"/>
		<path class="st0" d="M250.4,37.5c-0.5,0-0.9-0.2-1.2-0.6L225.9,6c-0.5-0.7-0.4-1.6,0.3-2.1c0.7-0.5,1.6-0.4,2.1,0.3l23.2,30.9
			c0.5,0.7,0.4,1.6-0.3,2.1C251,37.4,250.7,37.5,250.4,37.5L250.4,37.5z"/>
		<path class="st0" d="M230.2,35c-0.3,0-0.5-0.1-0.7-0.2c-0.7-0.4-1-1.3-0.6-2c6.2-11.3,14.3-21.4,23.9-30c0.6-0.6,1.5-0.6,2.1,0
			c0.6,0.6,0.6,1.5,0,2.1c0,0-0.1,0.1-0.1,0.1c-9.3,8.4-17.2,18.2-23.3,29.2C231.3,34.7,230.8,35,230.2,35z"/>
		<path class="st0" d="M100.8,47.3c-0.8,0-1.5-0.7-1.5-1.5c0-0.6,0.4-1.2,1-1.4c11.6-4.2,24-5.8,36.2-4.5c0.8,0.1,1.4,0.8,1.3,1.6
			c0,0,0,0,0,0c-0.1,0.8-0.8,1.4-1.6,1.3c-11.8-1.2-23.7,0.3-34.9,4.4C101.2,47.2,101,47.3,100.8,47.3z"/>
		<path class="st0" d="M130.2,55.4c-0.3,0-0.6-0.1-0.8-0.2c-10.6-6.6-20.4-14.4-29.1-23.4c-0.6-0.6-0.5-1.6,0.1-2.1
			c0.6-0.5,1.5-0.5,2.1,0c8.5,8.8,18.1,16.5,28.5,23c0.7,0.4,0.9,1.4,0.5,2.1C131.2,55.2,130.7,55.5,130.2,55.4L130.2,55.4z"/>
		<path class="st0" d="M107.1,55.8c-0.2,0-0.4,0-0.6-0.1c-0.8-0.3-1.1-1.2-0.8-2c0,0,0,0,0,0c5.3-12.7,12.1-24.7,20.4-35.6
			c0.5-0.6,1.5-0.7,2.1-0.2c0.6,0.5,0.7,1.4,0.3,2c-8.1,10.8-14.9,22.5-20.1,35C108.2,55.4,107.7,55.8,107.1,55.8z"/>
		<path class="st0" d="M1.5,93.6c-0.8,0-1.5-0.7-1.5-1.5c0-0.6,0.4-1.2,1-1.4c13.1-5.1,26.9-8.1,41-9c0.8-0.1,1.5,0.5,1.6,1.4
			c0,0,0,0,0,0c0.1,0.8-0.6,1.5-1.4,1.6c0,0,0,0,0,0C28.4,85.5,14.9,88.5,2,93.5C1.9,93.5,1.7,93.6,1.5,93.6z"/>
		<path class="st0" d="M40.8,102.1c-0.3,0-0.7-0.1-0.9-0.3l-32.6-26c-0.7-0.5-0.8-1.4-0.4-2.1C7.3,73,8.3,72.8,9,73.3
			c0,0,0.1,0.1,0.1,0.1l32.6,26c0.6,0.5,0.7,1.5,0.2,2.1C41.6,101.8,41.2,102.1,40.8,102.1z"/>
		<path class="st0" d="M14.9,98.2c-0.8,0-1.5-0.7-1.5-1.5c0-0.3,0.1-0.6,0.2-0.8l27.5-43.1c0.4-0.7,1.4-0.9,2.1-0.5
			c0.7,0.4,0.9,1.4,0.5,2.1L16.2,97.5C15.9,98,15.4,98.2,14.9,98.2z"/>
		<path class="st0" d="M177.2,606.2h-0.2c-0.8-0.1-1.4-0.8-1.3-1.7c0,0,0,0,0,0c1.8-15.6,5-31,9.6-46c0.2-0.8,1.1-1.2,1.9-1
			s1.2,1.1,1,1.9c-4.6,14.8-7.7,30-9.5,45.4C178.6,605.6,178,606.2,177.2,606.2z"/>
		<path class="st0" d="M187.1,589c-0.5,0-1-0.3-1.3-0.7l-17.7-29.7c-0.5-0.7-0.3-1.6,0.4-2.1s1.6-0.3,2.1,0.4c0,0,0.1,0.1,0.1,0.1
			l17.7,29.7c0.4,0.7,0.2,1.6-0.5,2.1C187.6,588.9,187.3,589,187.1,589z"/>
		<path class="st0" d="M186.6,601.7c-0.7,0-1.4-0.5-1.5-1.3l-6.6-43.8c-0.1-0.8,0.4-1.6,1.3-1.7c0.8-0.1,1.6,0.4,1.7,1.3l0,0
			l6.6,43.8c0.1,0.8-0.4,1.6-1.3,1.7c0,0,0,0,0,0L186.6,601.7z"/>
		<path class="st0" d="M162.8,587.7c-0.8,0-1.5-0.7-1.5-1.5c0-0.6,0.4-1.2,0.9-1.4c14.5-5.9,30.1-8.2,45.7-6.7
			c0.8,0.1,1.4,0.8,1.4,1.6s-0.8,1.4-1.6,1.4c-15.1-1.4-30.2,0.8-44.2,6.5C163.1,587.7,163,587.7,162.8,587.7z"/>
		<path class="st0" d="M228.4,669.6L228.4,669.6c-0.8,0-1.5-0.7-1.5-1.5c0,0,0,0,0,0c0.6-19.5,0.2-39.2-1.1-58.6
			c-0.1-0.8,0.6-1.5,1.4-1.6c0,0,0,0,0,0c0.8,0,1.5,0.6,1.6,1.4c1.3,19.5,1.7,39.3,1.1,58.9C229.9,669,229.2,669.6,228.4,669.6
			C228.4,669.6,228.4,669.6,228.4,669.6z"/>
		<path class="st0" d="M249.3,657.9c-0.4,0-0.7-0.1-1-0.4c-12.9-12-25.5-24.7-37.2-37.8c-0.6-0.6-0.6-1.5,0-2.1
			c0.6-0.6,1.5-0.6,2.1,0c0,0,0.1,0.1,0.1,0.1c11.7,13,24.2,25.7,37.1,37.6c0.6,0.6,0.6,1.5,0.1,2.1
			C250.2,657.7,249.8,657.9,249.3,657.9L249.3,657.9z"/>
		<path class="st0" d="M218.1,651.2c-0.8,0-1.5-0.7-1.5-1.5c0-0.3,0.1-0.6,0.3-0.8c8.5-12.2,16.8-24.9,24.5-37.7
			c0.4-0.7,1.3-1,2-0.6c0.7,0.4,1,1.3,0.6,2c0,0.1-0.1,0.1-0.1,0.2c-7.8,12.8-16.1,25.5-24.6,37.8
			C219.1,651,218.6,651.2,218.1,651.2z"/>
		<path class="st0" d="M248.3,656.6c-0.4,0-0.8-0.2-1.1-0.5c-10.5-11-20.8-22.4-30.8-33.9c-0.6-0.6-0.5-1.6,0.1-2.1
			c0.6-0.6,1.6-0.5,2.1,0.1l0,0c9.9,11.5,20.2,22.8,30.7,33.8c0.6,0.6,0.5,1.6-0.1,2.1C249.1,656.4,248.7,656.6,248.3,656.6
			L248.3,656.6z"/>
		<path class="st0" d="M209.2,646c-0.2,0-0.3,0-0.5-0.1c-1.3-0.4-2.3-1.6-2.5-3c-0.3-1.8,0.3-3.7,1.7-4.9c2.1-1.7,4.9-1.7,7.2-1.7
			c13.6,0.1,27.2-1.7,40.4-5.4c0.8-0.2,1.6,0.2,1.9,1c0.2,0.8-0.2,1.6-1,1.9l0,0c-13.4,3.8-27.3,5.7-41.2,5.5c-1.9,0-4,0-5.3,1
			c-0.5,0.5-0.8,1.3-0.7,2c0.1,0.6,0.4,0.7,0.5,0.7c0.8,0.3,1.2,1.1,1,1.9C210.4,645.5,209.9,646,209.2,646L209.2,646z"/>
	</g>
</g>
</svg>
