<?xml version="1.0" encoding="utf-8"?>
<!-- Generator: Adobe Illustrator 22.1.0, SVG Export Plug-In . SVG Version: 6.00 Build 0)  -->
<svg version="1.1" id="Layer_1" xmlns="http://www.w3.org/2000/svg" xmlns:xlink="http://www.w3.org/1999/xlink" x="0px" y="0px"
	 viewBox="0 0 563.5 632.6" style="enable-background:new 0 0 563.5 632.6;" xml:space="preserve">
<style type="text/css">
	.st0{fill:#FFFFFF;}
</style>
<title>Asset 509</title>
<g id="Layer_2_1_">
	<g id="Layer_1-2">
		<path class="st0" d="M36.1,541.1c-0.8,0-1.5-0.6-1.5-1.4c-3.7-62.5-3.7-125.2,0-187.6c0-0.8,0.7-1.4,1.5-1.4c0,0,0,0,0.1,0
			c0.8,0,1.5,0.8,1.4,1.6c0,0,0,0,0,0c-3.7,62.4-3.7,124.9,0,187.3C37.6,540.3,37,541.1,36.1,541.1
			C36.2,541.1,36.2,541.1,36.1,541.1L36.1,541.1z"/>
		<path class="st0" d="M52.1,306c-0.3,0-0.7-0.1-1-0.3c-0.6-0.5-0.7-1.5-0.2-2.1c0,0,0,0,0,0c8.3-10.2,16.7-20.8,24.7-31
			c5.5-7,11.1-14.1,16.8-21.1c0.5-0.6,1.5-0.7,2.1-0.2s0.7,1.5,0.2,2.1l0,0c-5.6,7-11.3,14.2-16.7,21.1c-8,10.2-16.4,20.8-24.7,31
			C53,305.8,52.6,306,52.1,306z"/>
		<path class="st0" d="M142.6,224.4c-0.8,0-1.5-0.6-1.6-1.4c0-0.8,0.6-1.5,1.4-1.6c19.6-1.4,39.5-3.8,58.8-6.1
			c13-1.6,26.4-3.2,39.5-4.5c0.8-0.1,1.6,0.5,1.6,1.4c0.1,0.8-0.5,1.6-1.3,1.6c-13.1,1.3-26.5,2.9-39.5,4.5
			C182.4,220.6,162.4,223,142.6,224.4L142.6,224.4z"/>
		<path class="st0" d="M276.4,188.2c-0.8,0-1.5-0.7-1.5-1.5c0-0.2,0-0.4,0.1-0.6c6.8-16.3,13.9-32.8,20.8-48.7
			C308,109,320.5,79.8,332.1,51c0.3-0.8,1.2-1.1,2-0.7c0.7,0.3,1.1,1.1,0.8,1.9c-11.6,28.8-24.1,58.1-36.3,86.4
			c-6.8,16-13.9,32.4-20.7,48.7C277.6,187.8,277,188.2,276.4,188.2z"/>
		<path class="st0" d="M457.5,32.3L457.5,32.3c-14.6-0.5-29.4-0.8-43.8-1.1c-13.9-0.3-28.2-0.6-42.3-1.1c-0.8,0-1.5-0.7-1.5-1.5
			c0,0,0,0,0,0c0-0.8,0.6-1.5,1.4-1.5c0,0,0.1,0,0.1,0c14.1,0.5,28.4,0.8,42.3,1.1c14.3,0.3,29.2,0.6,43.8,1.1
			c0.8,0,1.5,0.7,1.5,1.5S458.3,32.2,457.5,32.3L457.5,32.3L457.5,32.3z"/>
		<path class="st0" d="M460.2,330.3h-0.1c-0.8-0.1-1.5-0.8-1.4-1.6c2.8-43.7,5-88.2,7.1-131.4c1.8-37.2,3.7-75.7,6-113.4
			c0-0.8,0.8-1.5,1.6-1.4c0.8,0,1.5,0.8,1.4,1.6l0,0c-2.3,37.7-4.1,76.1-6,113.3c-2.1,43.1-4.3,87.7-7.1,131.4
			C461.7,329.7,461,330.3,460.2,330.3z"/>
		<path class="st0" d="M374,578.5c-0.2,0-0.4,0-0.5-0.1c-0.8-0.3-1.2-1.1-0.9-1.9c0,0,0,0,0,0c15.1-40.8,31-80.7,47.4-121.3
			c0.3-0.8,1.2-1.1,2-0.8c0.8,0.3,1.1,1.2,0.8,2c-16.3,40.6-32.2,80.4-47.4,121.2C375.2,578.1,374.7,578.5,374,578.5z"/>
		<path class="st0" d="M435,422.3c-0.2,0-0.4,0-0.5-0.1c-0.8-0.3-1.2-1.2-0.9-1.9c3.9-10.5,8.1-21,12.2-31.2
			c2.3-5.8,4.7-11.7,7-17.5c0.3-0.8,1.2-1.1,2-0.7c0.7,0.3,1,1.1,0.8,1.8c-2.3,5.9-4.6,11.7-7,17.6c-4.1,10.2-8.3,20.7-12.2,31.2
			C436.2,421.9,435.7,422.3,435,422.3z"/>
		<path class="st0" d="M534.1,586.5c-0.5,0-1-0.2-1.2-0.7c-12.5-18.5-25.1-37.9-37.3-56.7c-15.9-24.4-32.3-49.6-49-73.9
			c-0.5-0.7-0.3-1.6,0.4-2.1s1.6-0.3,2.1,0.4l0,0c16.8,24.3,33.2,49.5,49.1,74c12.2,18.7,24.8,38.1,37.3,56.6
			c0.5,0.7,0.3,1.6-0.4,2.1C534.7,586.5,534.4,586.6,534.1,586.5z"/>
		<path class="st0" d="M41.9,590.1c-0.7,0-1.4-0.5-1.5-1.3c-2-12.6-3.6-25.5-4.8-38.2c-0.1-0.8,0.5-1.6,1.4-1.7
			c0.8-0.1,1.6,0.5,1.6,1.4c1.3,12.7,2.9,25.5,4.8,38c0.1,0.8-0.4,1.6-1.2,1.7L41.9,590.1z"/>
		<path class="st0" d="M18.5,575.7c-0.8,0.1-1.6-0.5-1.7-1.3c-0.1-0.8,0.5-1.6,1.3-1.7l0,0l37.8-7.9c0.8-0.2,1.6,0.3,1.8,1.2
			c0.2,0.8-0.3,1.6-1.2,1.8l0,0l-37.8,7.9L18.5,575.7z"/>
		<path class="st0" d="M54.1,579.5c-0.3,0-0.5-0.1-0.8-0.2l-30.2-18c-0.7-0.4-0.9-1.3-0.5-2.1c0.4-0.7,1.3-0.9,2.1-0.5l30.2,18
			c0.7,0.4,0.9,1.3,0.5,2.1C55.1,579.2,54.6,579.5,54.1,579.5L54.1,579.5z"/>
		<path class="st0" d="M30.7,588.6c-0.4,0-0.8-0.2-1.1-0.5c-0.5-0.6-0.5-1.6,0.1-2.1c0,0,0,0,0,0c9.3-8.3,16-19.2,19.3-31.2
			c0.2-0.8,1-1.3,1.8-1.1c0,0,0,0,0,0c0.8,0.2,1.3,1,1.1,1.8c-3.4,12.6-10.4,24-20.2,32.7C31.5,588.4,31.1,588.6,30.7,588.6z"/>
		<path class="st0" d="M1.5,363.8c-0.8,0-1.5-0.7-1.5-1.5c0-0.3,0.1-0.7,0.3-0.9l45.4-55.5c0.4-0.5,1-0.7,1.6-0.5
			c0.6,0.2,1,0.7,1,1.4l0.2,4.3c0,0.8-0.6,1.5-1.4,1.6s-1.5-0.6-1.6-1.4l0,0v-0.4L2.7,363.2C2.4,363.6,1.9,363.8,1.5,363.8z"/>
		<path class="st0" d="M62,356.4c-0.4,0-0.8-0.2-1.1-0.5l-44-47c-0.6-0.6-0.6-1.5,0-2.1c0.6-0.6,1.5-0.6,2.1,0c0,0,0,0,0,0l44,47
			c0.6,0.6,0.5,1.5,0,2.1C62.8,356.2,62.4,356.4,62,356.4z"/>
		<path class="st0" d="M29.5,344.7h-0.2c-0.8-0.1-1.4-0.8-1.3-1.7c0,0,0,0,0,0c2.2-18.2,3.8-36.7,4.7-55.1c0-0.8,0.7-1.5,1.6-1.4
			s1.5,0.7,1.4,1.6c-0.9,18.4-2.4,37-4.7,55.3C30.9,344.2,30.3,344.7,29.5,344.7z"/>
		<path class="st0" d="M9.1,325.2c-0.8,0-1.5-0.6-1.5-1.5s0.6-1.5,1.5-1.5l55.4-2.8c1.8-0.1,7.2-0.4,9.1,3.5c0.4,0.7,0.1,1.6-0.6,2
			c-0.7,0.4-1.6,0.1-2-0.6c0,0,0-0.1-0.1-0.1c-0.7-1.4-2.8-2-6.3-1.9L9.1,325.2L9.1,325.2z"/>
		<path class="st0" d="M99.7,245.5c-0.3,0-0.6-0.1-0.8-0.3c-0.7-0.5-0.9-1.4-0.4-2.1c9-13.2,18.8-25.8,29.4-37.8
			c0.6-0.6,1.5-0.7,2.1-0.1s0.7,1.5,0.1,2.1c-10.5,11.9-20.3,24.4-29.2,37.5C100.6,245.3,100.2,245.5,99.7,245.5z"/>
		<path class="st0" d="M87.5,231.6c-0.8,0.1-1.6-0.5-1.7-1.4c-0.1-0.8,0.5-1.6,1.3-1.6l0,0c17.9-3.7,36.1-5.2,54.3-4.5
			c0.8,0,1.5,0.7,1.4,1.6c0,0.8-0.7,1.5-1.6,1.4c-18-0.7-36,0.8-53.6,4.4C87.7,231.6,87.6,231.6,87.5,231.6z"/>
		<path class="st0" d="M108.8,261.8h-0.1c-0.8-0.1-1.4-0.8-1.3-1.6c1.9-19,2.8-38.3,2.8-57.4c0-0.8,0.7-1.5,1.5-1.5l0,0
			c0.8,0,1.5,0.7,1.5,1.5c0,0,0,0,0,0c0,19.2-1,38.6-2.8,57.7C110.3,261.3,109.6,261.8,108.8,261.8z"/>
		<path class="st0" d="M140.4,252.5c-0.3,0-0.6-0.1-0.9-0.3c-15.7-11.8-30.9-24.4-45.3-37.8c-0.7-0.5-0.9-1.4-0.4-2.1
			c0.5-0.7,1.4-0.9,2.1-0.4c0.1,0.1,0.2,0.2,0.3,0.3c14.4,13.3,29.4,25.8,45.1,37.6c0.7,0.5,0.8,1.4,0.3,2.1c0,0,0,0,0,0
			C141.3,252.3,140.9,252.5,140.4,252.5z"/>
		<path class="st0" d="M241.9,244.7c-0.2,0-0.5-0.1-0.7-0.2c-0.7-0.4-1-1.3-0.6-2c8.8-16.9,18.5-33.3,29-49.2
			c0.6-0.6,1.5-0.6,2.1-0.1c0.5,0.4,0.6,1.1,0.4,1.7c-10.5,15.8-20.1,32.1-28.8,48.9C242.9,244.4,242.4,244.7,241.9,244.7z"/>
		<path class="st0" d="M295.9,243.3c-0.4,0-0.8-0.2-1.1-0.4c-17.6-17.5-36.2-34.5-55.2-50.5c-0.6-0.5-0.7-1.5-0.2-2.1
			c0.5-0.6,1.5-0.7,2.1-0.2l0,0c19.1,16,37.7,33.1,55.4,50.7c0.6,0.6,0.6,1.5,0,2.1C296.7,243.2,296.3,243.3,295.9,243.3z"/>
		<path class="st0" d="M258.9,229.6h-0.2c-0.8-0.1-1.4-0.9-1.3-1.7c2.3-15.9,2.1-32.1-0.4-48c-0.1-0.8,0.4-1.6,1.3-1.7
			c0.8-0.1,1.6,0.4,1.7,1.3l0,0c2.6,16.2,2.7,32.7,0.4,48.9C260.3,229.1,259.6,229.7,258.9,229.6z"/>
		<path class="st0" d="M246.4,211.5c-0.8,0-1.5-0.7-1.5-1.5c0-0.7,0.4-1.3,1.1-1.4c12.9-3.7,26.3-5,39.6-3.7
			c0.8,0.1,1.4,0.8,1.4,1.6s-0.8,1.4-1.6,1.4l0,0c-12.9-1.2-26,0-38.5,3.6C246.6,211.5,246.5,211.5,246.4,211.5z"/>
		<path class="st0" d="M334.8,45.4c-0.2,0-0.4,0-0.6-0.1c-0.7-0.4-1.1-1.2-0.7-2c7-14.8,15.3-29.1,24.7-42.6
			c0.5-0.7,1.4-0.8,2.1-0.4s0.8,1.4,0.4,2.1l0,0c-9.3,13.4-17.5,27.5-24.4,42.2C335.9,45,335.3,45.4,334.8,45.4z"/>
		<path class="st0" d="M373.7,71.1c-0.4,0-0.8-0.2-1.1-0.5c-17.4-19-32.4-40.1-44.7-62.8c-0.3-0.8,0-1.6,0.7-2
			c0.7-0.3,1.5-0.1,1.9,0.6c12.2,22.5,27.1,43.4,44.3,62.2c0.6,0.6,0.5,1.5-0.1,2.1C374.4,71,374.1,71.1,373.7,71.1L373.7,71.1z"/>
		<path class="st0" d="M322.4,34.2c-0.8,0-1.5-0.7-1.5-1.5c0-0.6,0.4-1.1,0.9-1.4c12.7-5.3,26.8-6.2,40-2.6c0.8,0.2,1.3,1,1.1,1.8
			c-0.2,0.8-1,1.3-1.9,1.1c-12.6-3.5-26-2.6-38,2.5C322.8,34.2,322.6,34.2,322.4,34.2z"/>
		<path class="st0" d="M340,49h-0.2c-0.8-0.1-1.4-0.9-1.3-1.7c0,0,0,0,0,0c1.9-14.1,3.3-28.4,4.2-42.6c0.1-0.8,0.8-1.5,1.6-1.4
			s1.5,0.8,1.4,1.6c-0.9,14.2-2.3,28.6-4.2,42.8C341.4,48.5,340.7,49,340,49z"/>
		<path class="st0" d="M519.1,38.2L519.1,38.2C502,37.8,485,35.7,468.3,32c-0.8-0.2-1.3-1-1.1-1.8c0.2-0.8,1-1.3,1.8-1.1
			c16.5,3.7,33.3,5.7,50.2,6.1c0.8,0,1.5,0.7,1.5,1.5S519.9,38.2,519.1,38.2L519.1,38.2z"/>
		<path class="st0" d="M461.9,64.7c-0.3,0-0.5-0.1-0.7-0.2c-0.7-0.4-1-1.3-0.6-2c1.9-3.4,4.6-6,7.2-8.6L503,19.8
			c0.6-0.6,1.6-0.6,2.1,0s0.6,1.6,0,2.1l0,0l-35.3,34.1c-2.5,2.4-5,4.9-6.7,7.8C462.9,64.4,462.4,64.7,461.9,64.7z"/>
		<path class="st0" d="M515.9,74.1c-0.5,0-1-0.3-1.3-0.8c-12.7-22.4-27-43.8-42.7-64.2c-0.5-0.7-0.4-1.6,0.3-2.1s1.6-0.4,2.1,0.3
			l0,0c15.8,20.5,30.2,42,43,64.5c0.4,0.7,0.1,1.6-0.6,2C516.5,74,516.2,74.1,515.9,74.1z"/>
		<path class="st0" d="M477.1,68.3c-0.2,0-0.4,0-0.5-0.1c-0.8-0.3-1.2-1.2-0.9-1.9L496,13.5c0.3-0.8,1.2-1.2,1.9-0.9
			c0.8,0.3,1.2,1.2,0.9,1.9c0,0,0,0,0,0l-20.3,52.7C478.3,67.9,477.8,68.3,477.1,68.3z"/>
		<path class="st0" d="M453.8,364.1c-0.2,0-0.3,0-0.5-0.1c-0.8-0.3-1.2-1.1-0.9-1.9c0,0,0,0,0,0c1.8-5.1,4.7-9.7,7.6-14.1l30-46
			c0.5-0.7,1.4-0.8,2.1-0.3c0.6,0.5,0.8,1.3,0.4,1.9l-29.9,46c-2.8,4.2-5.6,8.6-7.3,13.4C455.1,363.7,454.5,364.2,453.8,364.1z"/>
		<path class="st0" d="M495.2,380.2c-0.4,0-0.7-0.1-1-0.4c-18.9-17.6-36.5-36.7-52.6-56.9c-0.5-0.7-0.3-1.6,0.3-2.1
			c0.6-0.5,1.5-0.4,2,0.2c16,20.2,33.4,39.1,52.3,56.6c0.6,0.6,0.6,1.5,0.1,2.1C496,380,495.6,380.2,495.2,380.2L495.2,380.2z"/>
		<path class="st0" d="M465.1,370.1c-0.7,0-1.3-0.5-1.5-1.2l-7.8-39.2c-0.2-0.8,0.3-1.6,1.1-1.8c0.8-0.2,1.6,0.3,1.8,1.1
			c0,0,0,0.1,0,0.1l7.8,39.2c0.2,0.8-0.3,1.6-1.1,1.8c0,0,0,0,0,0L465.1,370.1z"/>
		<path class="st0" d="M446.6,348.6c-0.8,0-1.5-0.6-1.6-1.4s0.6-1.5,1.4-1.6l46-4.1c0.8-0.1,1.6,0.5,1.6,1.4s-0.5,1.6-1.4,1.6
			l-46,4.1L446.6,348.6z"/>
		<path class="st0" d="M439.7,450.8c-0.8,0-1.5-0.6-1.5-1.5c0-0.7,0.4-1.3,1.1-1.5c0-0.9-0.3-1.7-0.9-2.4l-35.6-47.1
			c-0.5-0.7-0.4-1.6,0.3-2.1c0.7-0.5,1.6-0.4,2.1,0.3l35.5,47.1c1,1.4,1.9,3.6,1.3,5.3c-0.3,0.9-1.1,1.6-2,1.9
			C440,450.7,439.8,450.8,439.7,450.8z"/>
		<path class="st0" d="M421.9,453.5c-0.3,0-0.6-0.1-0.9-0.3c-0.7-0.5-0.8-1.4-0.3-2.1c6.3-8.4,11.8-17.3,16.3-26.8
			c0.4-0.7,1.3-1.1,2-0.7s1.1,1.3,0.7,2l0,0c-4.6,9.6-10.2,18.8-16.6,27.3C422.8,453.3,422.4,453.5,421.9,453.5z"/>
		<path class="st0" d="M437.3,428.8c-0.3,0-0.5-0.1-0.8-0.2c-0.7-0.4-0.9-1.4-0.5-2.1c4.9-8.1,10.8-15.5,17.5-22.2
			c0.6-0.6,1.5-0.6,2.1,0s0.6,1.5,0,2.1l0,0c-6.5,6.5-12.2,13.8-17,21.7C438.3,428.5,437.8,428.8,437.3,428.8z"/>
		<path class="st0" d="M435.5,463.4L435.5,463.4c-0.9,0-1.6-0.7-1.5-1.5c0,0,0,0,0,0c1.2-22-1.6-44.1-8.3-65.2
			c-0.3-0.8,0.1-1.6,0.9-1.9c0.8-0.3,1.6,0.1,1.9,0.9c0,0,0,0.1,0,0.1c6.8,21.4,9.6,43.9,8.4,66.3
			C436.9,462.8,436.3,463.4,435.5,463.4z"/>
		<path class="st0" d="M409.7,435.8c-0.8,0-1.5-0.6-1.6-1.4s0.6-1.5,1.4-1.6c18-1.3,36.3-1.9,54.3-1.6c0.8,0,1.5,0.7,1.5,1.5
			s-0.7,1.5-1.5,1.5c-18-0.2-36.1,0.3-54,1.6L409.7,435.8z"/>
		<path class="st0" d="M359,608.4c-0.2,0-0.4,0-0.5-0.1c-0.8-0.3-1.2-1.1-0.9-1.9c0,0,0,0,0,0l10.1-27.3c0.2-0.8,1-1.3,1.8-1
			c0.8,0.2,1.3,1,1,1.8c0,0.1,0,0.1-0.1,0.2l-10.1,27.3C360.2,608,359.6,608.4,359,608.4z"/>
		<path class="st0" d="M383.8,611.4c-0.4,0-0.8-0.2-1.1-0.5c-8.3-8.6-17.6-16.2-27.7-22.6c-2.7-1.7-6.1-3.8-7.1-7.4
			c-0.2-0.8,0.3-1.6,1-1.8c0.8-0.2,1.6,0.2,1.8,1c0,0,0,0,0,0c0.7,2.5,3.4,4.2,5.8,5.7c10.3,6.5,19.8,14.2,28.2,23
			c0.6,0.6,0.5,1.5,0,2.1C384.5,611.2,384.1,611.4,383.8,611.4z"/>
		<path class="st0" d="M369.7,613c-0.6,0-1.2-0.4-1.4-1l-9.9-28.5c-0.3-0.8,0.1-1.6,0.9-1.9c0.8-0.3,1.6,0.1,1.9,0.9l9.9,28.5
			c0.3,0.8-0.1,1.6-0.9,1.9c0,0,0,0,0,0C370,613,369.8,613,369.7,613z"/>
		<path class="st0" d="M354.7,596.4c-0.6,0-1.2-0.4-1.4-1c-0.3-0.8,0.1-1.6,0.9-1.9c0,0,0,0,0,0c11.9-4.4,24.3-7.4,36.9-9
			c0.8-0.1,1.6,0.5,1.7,1.3s-0.5,1.6-1.3,1.7c-12.4,1.5-24.5,4.5-36.2,8.9C355.1,596.4,354.9,596.4,354.7,596.4z"/>
		<path class="st0" d="M555.1,616.2c-0.5,0-0.9-0.2-1.2-0.6l-16.5-22.4c-0.2-0.3-0.5-0.5-0.9-0.6c-0.3,0.5-0.8,0.7-1.3,0.7
			c-0.8,0-1.5-0.7-1.5-1.5c0,0,0,0,0,0c0-1,0.6-1.9,1.5-2.2c1.5-0.5,3.6,0.5,4.5,1.8l16.5,22.4c0.5,0.7,0.4,1.6-0.3,2.1
			c0,0,0,0-0.1,0C555.7,616.2,555.4,616.2,555.1,616.2z"/>
		<path class="st0" d="M525.5,622.8c-0.8,0-1.5-0.7-1.5-1.5c0-0.4,0.2-0.9,0.5-1.1c12.3-10.6,22-24,28.4-38.9
			c0.3-0.8,1.2-1.2,1.9-0.9c0.8,0.3,1.2,1.2,0.9,1.9c0,0,0,0.1,0,0.1c-6.5,15.4-16.5,29.1-29.2,40
			C526.2,622.7,525.9,622.8,525.5,622.8z"/>
		<path class="st0" d="M546.5,602.1c-7.5,0-14.8-1.3-21.8-3.9c-0.8-0.3-1.2-1.2-0.9-1.9c0.3-0.8,1.1-1.2,1.9-0.9c0,0,0,0,0,0
			c11.5,4.3,24,4.9,35.8,1.8c0.8-0.2,1.6,0.3,1.8,1.1s-0.3,1.6-1.1,1.8l0,0C557.2,601.4,551.8,602.1,546.5,602.1z"/>
		<path class="st0" d="M533.8,632.6h-0.2c-0.8-0.1-1.4-0.8-1.3-1.7c0,0,0,0,0,0c1.9-15.5,4.5-31,7.8-46.3c0.1-0.8,0.9-1.4,1.7-1.2
			c0.8,0.1,1.4,0.9,1.2,1.7c0,0,0,0.1,0,0.1c-3.2,15.2-5.8,30.6-7.8,46C535.2,632,534.5,632.6,533.8,632.6z"/>
	</g>
</g>
</svg>
