<?xml version="1.0" encoding="utf-8"?>
<!-- Generator: Adobe Illustrator 22.1.0, SVG Export Plug-In . SVG Version: 6.00 Build 0)  -->
<svg version="1.1" id="Layer_1" xmlns="http://www.w3.org/2000/svg" xmlns:xlink="http://www.w3.org/1999/xlink" x="0px" y="0px"
	 viewBox="0 0 669.8 584.9" style="enable-background:new 0 0 669.8 584.9;" xml:space="preserve">
<style type="text/css">
	.st0{fill:#FFFFFF;}
</style>
<title>Asset 510</title>
<g id="Layer_2_1_">
	<g id="Layer_1-2">
		<path class="st0" d="M40.8,466.3c-0.3,0-0.7-0.1-0.9-0.3c-0.6-0.5-0.8-1.4-0.3-2.1c8.1-10.4,15.3-20.8,23-31.8
			c6.8-9.8,13.8-19.9,21.4-29.9c1-2,2.3-4,3.5-6s2.4-3.9,3.4-5.9c0.1-0.1,0.1-0.2,0.2-0.3c4.6-5.7,8.9-11.7,12.9-17.9l0.1-0.1
			c18-23,31.9-43.8,47.9-67.9c3-4.5,6.1-8.4,9.1-12.1s6-7.4,8.9-11.9c4.6-7.9,9.2-14.5,14.1-21.5c2.5-3.6,5.2-7.4,7.9-11.5
			c1.6-2.1,3.1-3.9,4.6-5.6s3-3.5,4.4-5.4c9.6-14.3,19.3-27.7,28.6-40.7c10.5-14.5,20.4-28.1,30.2-43.1c0.4-0.7,1.4-0.9,2.1-0.5
			c0.7,0.4,0.9,1.4,0.5,2.1c0,0,0,0.1-0.1,0.1c-9.9,15.1-19.8,28.8-30.3,43.3c-9.4,12.9-19,26.3-28.6,40.6c-1.6,2.1-3.1,3.9-4.6,5.6
			s-3,3.5-4.4,5.4c-2.7,4.1-5.3,7.8-7.9,11.5c-4.9,7-9.4,13.5-14,21.4c-3.1,4.6-6.2,8.5-9.1,12.2s-6,7.5-8.9,11.9
			c-16.1,24.2-30,45-48,68c-4,6.2-8.3,12.2-13,18c-1,2-2.3,4-3.5,6s-2.5,3.9-3.4,5.9c0,0.1-0.1,0.2-0.1,0.2
			c-7.6,10-14.7,20.1-21.4,29.9c-7.7,11.1-15,21.5-23.1,32C41.7,466.1,41.3,466.3,40.8,466.3z"/>
		<path class="st0" d="M413.8,320.1c-0.5,0-1-0.3-1.2-0.7c-5.9-9-12.6-18.8-20.9-30.8c-0.5-0.7-0.3-1.6,0.4-2.1s1.6-0.3,2.1,0.4
			c8.3,12,15,21.8,20.9,30.9c0.5,0.7,0.3,1.6-0.4,2.1c0,0,0,0,0,0C414.4,320,414.1,320.1,413.8,320.1z"/>
		<path class="st0" d="M362.2,245.1c-0.5,0-1-0.2-1.2-0.6c-8.3-12.1-15-22-21.1-31.4c-0.5-0.7-0.3-1.6,0.4-2.1
			c0.7-0.5,1.6-0.3,2.1,0.4c6.1,9.4,12.8,19.3,21.1,31.4c0.5,0.7,0.3,1.6-0.4,2.1C362.8,245,362.5,245.1,362.2,245.1L362.2,245.1z"
			/>
		<path class="st0" d="M315.8,176.6c-0.5,0-1-0.3-1.3-0.7c-6.7-10.5-14-21.3-22.4-33c-0.5-0.7-0.4-1.6,0.3-2.1s1.6-0.4,2.1,0.3
			c0,0,0.1,0.1,0.1,0.1c8.5,11.8,15.8,22.6,22.5,33.1c0.4,0.7,0.2,1.6-0.5,2.1C316.3,176.5,316,176.6,315.8,176.6L315.8,176.6z"/>
		<path class="st0" d="M254.9,117.4c-0.2,0-0.3,0-0.5-0.1L43.8,44.8c-0.8-0.3-1.2-1.1-0.9-1.9c0.3-0.8,1.1-1.2,1.9-0.9l210.7,72.5
			c0.8,0.3,1.2,1.1,0.9,1.9C256.2,117,255.6,117.5,254.9,117.4z"/>
		<path class="st0" d="M366.6,525L366.6,525c-0.8,0-1.5-0.7-1.5-1.5c0,0,0,0,0,0c0.2-25.3,0.5-50.8,0.7-76.4
			c0.5-51.9,1.1-105.5,1.3-157.8c0-0.8,0.7-1.5,1.5-1.5l0,0c0.8,0,1.5,0.7,1.5,1.5c0,0,0,0,0,0c-0.3,52.2-0.8,105.9-1.3,157.8
			c-0.3,25.5-0.5,51-0.7,76.4C368.1,524.3,367.4,525,366.6,525z"/>
		<path class="st0" d="M353.4,184.1c-0.8,0-1.5-0.7-1.5-1.5c0-0.6,0.4-1.2,0.9-1.4c17.1-7.4,34.8-14.3,51.8-21l13.9-5.5
			c7.3-2.9,13.3-5.3,18.9-7.6c0.8-0.3,1.6,0.1,2,0.8s-0.1,1.6-0.8,2c-5.6,2.3-11.6,4.7-18.9,7.6l-13.9,5.5
			c-17,6.7-34.6,13.6-51.7,21C353.8,184.1,353.6,184.1,353.4,184.1z"/>
		<path class="st0" d="M595.7,204.9c-0.2,0-0.4,0-0.6-0.1c-22.8-10.5-46.2-20.6-68.8-30.4c-17.3-7.5-35.2-15.3-52.6-23.1
			c-0.8-0.3-1.2-1.2-0.9-1.9c0.3-0.8,1.2-1.2,1.9-0.9c0.1,0,0.1,0,0.2,0.1c17.4,7.8,35.3,15.6,52.6,23.1c22.6,9.8,46,19.9,68.8,30.4
			c0.8,0.3,1.1,1.2,0.7,2C596.8,204.6,596.3,204.9,595.7,204.9L595.7,204.9z"/>
		<path class="st0" d="M30.9,72.6c-0.8,0-1.5-0.7-1.5-1.5c-0.3-17.1-0.1-34.5,0.4-51.7c-0.7-0.3-1-1-0.9-1.7l1.1-5.3
			c0.1-0.8,0.9-1.4,1.7-1.3c0.8,0.1,1.4,0.9,1.3,1.7l0,0c-0.8,19.3-1,38.9-0.7,58.2C32.5,71.9,31.8,72.6,30.9,72.6L30.9,72.6z"/>
		<path class="st0" d="M11.3,44c-1.4,0-2.8-0.1-4.1-0.3c-0.8-0.1-1.4-0.8-1.3-1.7c0.1-0.8,0.8-1.4,1.7-1.3c0.1,0,0.1,0,0.2,0
			c8.9,1.5,17.7-2.9,26.1-7.2l0.4-0.2c9.4-4.7,19.4-8.7,28.9-5.6c0.8,0.3,1.2,1.1,1,1.9c-0.3,0.8-1.1,1.2-1.9,1
			c-8.5-2.7-17.8,1-26.6,5.5l-0.4,0.2C27.8,39.9,19.7,44,11.3,44z"/>
		<path class="st0" d="M21.6,38.7c-0.4,0-0.7-0.1-1-0.4c-4.2-3.8-8.8-7.2-13.8-10c-0.7-0.4-0.9-1.4-0.5-2.1c0.4-0.7,1.3-0.9,1.9-0.5
			c5.1,2.9,9.9,6.4,14.3,10.4c0.6,0.6,0.7,1.5,0.1,2.1c0,0,0,0,0,0C22.4,38.5,22,38.7,21.6,38.7z"/>
		<path class="st0" d="M16,57.2c-0.3,0-0.6-0.1-0.8-0.2c-0.7-0.4-0.9-1.4-0.5-2.1c0,0,0,0,0,0C26.7,36,39.8,17.9,54,0.6
			c0.5-0.7,1.4-0.8,2.1-0.3c0.7,0.5,0.8,1.4,0.3,2.1c0,0,0,0-0.1,0.1c-14.1,17.2-27.2,35.2-39.1,54C17,56.9,16.5,57.2,16,57.2z"/>
		<path class="st0" d="M264.9,142.5c-0.3,0-0.5-0.1-0.7-0.2c-0.7-0.4-1-1.3-0.6-2c9.9-17.7,21.9-34.1,35.7-49
			c0.6-0.5,1.6-0.5,2.1,0.2c0.4,0.5,0.5,1.3,0.1,1.8c-13.7,14.7-25.5,31-35.3,48.5C265.9,142.3,265.4,142.5,264.9,142.5z"/>
		<path class="st0" d="M284.6,137.1c-0.7,0-1.3-0.5-1.5-1.1c-4.7-18.1-12.5-35.2-23.2-50.6c-0.5-0.7-0.4-1.6,0.3-2.1
			c0.7-0.5,1.6-0.4,2.1,0.3c0,0,0.1,0.1,0.1,0.1c10.9,15.6,18.9,33.1,23.6,51.5c0.2,0.8-0.2,1.5-1,1.8
			C284.9,137,284.7,137.1,284.6,137.1z"/>
		<path class="st0" d="M250.2,127.3c-0.8,0-1.5-0.7-1.5-1.5c0-0.7,0.4-1.2,1.1-1.4c22.7-6.5,45.6-13.6,68.1-21.1
			c0.8-0.3,1.6,0.2,1.9,1c0.3,0.8-0.2,1.6-1,1.9c-22.5,7.5-45.5,14.6-68.2,21.1C250.5,127.3,250.3,127.3,250.2,127.3z"/>
		<path class="st0" d="M251.6,191.1c-0.7,0-1.2-0.4-1.4-1.1c-3.4-10.6-9.2-25.3-21.8-29.7c-9.3-3.1-19.5,0.3-25.1,8.3
			c-0.5,0.7-1.4,0.9-2.1,0.4c-0.7-0.5-0.9-1.4-0.4-2.1c6.4-9.1,18-12.9,28.6-9.5c13.8,4.8,20.1,20.4,23.6,31.6
			c0.2,0.8-0.2,1.6-1,1.9c0,0,0,0,0,0C251.9,191.1,251.8,191.1,251.6,191.1z"/>
		<path class="st0" d="M9.9,505.6c-0.4,0-0.7-0.1-1-0.4c-0.6-0.6-0.6-1.5-0.1-2.1c0,0,0,0,0,0c8.1-8.7,15.2-18.4,21-28.8
			c-0.7-0.2-1.1-0.9-1-1.5c0.1-0.9,0.8-1.6,1.7-1.7c1.1-0.2,2.1,0.4,2.5,1.4c0.3,1,0.2,2.2-0.5,3.1c-6,10.7-13.3,20.7-21.6,29.6
			C10.7,505.4,10.3,505.6,9.9,505.6z"/>
		<path class="st0" d="M42.2,507.4c-0.3,0-0.6-0.1-0.9-0.3L3,477.5c-0.7-0.5-0.8-1.4-0.3-2.1s1.4-0.8,2.1-0.3l38.3,29.5
			c0.7,0.5,0.8,1.4,0.3,2.1C43.1,507.2,42.7,507.4,42.2,507.4z"/>
		<path class="st0" d="M25.6,508.9c-0.7,0-1.3-0.5-1.5-1.1c-4.1-15.2-7-30.7-8.9-46.3c-0.1-0.8,0.5-1.6,1.3-1.7
			c0.8-0.1,1.6,0.5,1.7,1.3c1.9,15.5,4.8,30.8,8.8,45.9c0.2,0.8-0.3,1.6-1.1,1.8C25.9,508.9,25.7,508.9,25.6,508.9z"/>
		<path class="st0" d="M1.5,492.1c-0.8,0.1-1.6-0.5-1.7-1.3s0.5-1.6,1.3-1.7c14.2-3.1,28.7-4.2,43.1-3.3c0.8,0.1,1.5,0.8,1.4,1.6
			c-0.1,0.8-0.8,1.5-1.6,1.4l0,0c-14.2-0.9-28.4,0.2-42.3,3.2L1.5,492.1z"/>
		<path class="st0" d="M363.3,584.9L363.3,584.9c-0.8,0-1.5-0.7-1.5-1.5c0,0,0,0,0,0l1.1-46c0-0.8,0.7-1.5,1.5-1.5
			c0.8,0,1.5,0.7,1.5,1.5c0,0,0,0,0,0l-1.1,46C364.8,584.2,364.2,584.9,363.3,584.9C363.3,584.9,363.3,584.9,363.3,584.9z"/>
		<path class="st0" d="M348.1,564.1c-1.6,0-3.2-0.1-4.8-0.3c-0.8-0.1-1.4-0.9-1.3-1.7c0.1-0.8,0.9-1.4,1.7-1.3
			c5.4,0.8,11.3-0.2,17-1.2c8.2-1.4,16.8-2.9,24.3,1.2c0.7,0.4,1,1.3,0.5,2.1c-0.4,0.7-1.3,0.9-2,0.6c-6.6-3.6-14.2-2.3-22.3-0.9
			C357,563.4,352.6,564,348.1,564.1z"/>
		<path class="st0" d="M380.1,579.5c-0.4,0-0.7-0.1-1-0.4l-34-29.4c-0.6-0.6-0.7-1.5-0.1-2.1s1.5-0.7,2.1-0.1l34,29.4
			c0.6,0.5,0.7,1.5,0.2,2.1C381,579.3,380.6,579.5,380.1,579.5z"/>
		<path class="st0" d="M354.2,576.3c-0.3,0-0.5-0.1-0.7-0.2c-0.7-0.4-1-1.3-0.6-2c6.9-12.5,15.6-24,25.7-34c0.6-0.6,1.5-0.6,2.1,0
			s0.6,1.5,0,2.1c-10,9.8-18.5,21-25.2,33.3C355.2,576,354.7,576.3,354.2,576.3z"/>
		<path class="st0" d="M367,278.7h-0.2c-0.8-0.1-1.4-0.8-1.3-1.7c0,0,0,0,0,0l5.9-54.1c0.1-0.8,0.8-1.4,1.7-1.3s1.4,0.8,1.3,1.7
			l-5.9,54.1C368.4,278.1,367.8,278.7,367,278.7z"/>
		<path class="st0" d="M404.6,255.6H347c-0.8,0-1.5-0.7-1.5-1.5s0.7-1.5,1.5-1.5h57.6c0.8,0,1.5,0.7,1.5,1.5
			S405.4,255.6,404.6,255.6z"/>
		<path class="st0" d="M387.2,282.2c-0.5,0-0.9-0.2-1.2-0.6l-14.8-19.7c-0.5-0.7-0.4-1.6,0.3-2.1c0.7-0.5,1.6-0.4,2.1,0.3
			c0,0,0,0,0,0l14.8,19.7c0.5,0.7,0.4,1.6-0.3,2.1C387.9,282.1,387.5,282.2,387.2,282.2L387.2,282.2z"/>
		<path class="st0" d="M444.9,146.7c-0.8,0-1.5-0.6-1.6-1.4s0.6-1.5,1.4-1.6c18.1-1.4,36-4.6,53.5-9.4c0.8-0.2,1.6,0.3,1.8,1.1
			c0.2,0.8-0.3,1.6-1,1.8c-17.7,4.9-35.8,8-54.1,9.5L444.9,146.7z"/>
		<path class="st0" d="M451.4,166.7c-0.8,0-1.5-0.7-1.5-1.5c0-0.3,0.1-0.6,0.2-0.8c10-16.2,20.8-32.2,32.1-47.5
			c0.5-0.7,1.4-0.8,2.1-0.3c0.7,0.5,0.8,1.4,0.3,2.1c-11.3,15.2-22.1,31.1-32,47.3C452.4,166.4,451.9,166.7,451.4,166.7z"/>
		<path class="st0" d="M458.6,142.8c-0.4,0-0.7-0.2-1-0.4c-5.8-5.6-12.3-10.6-19.3-14.7c-0.7-0.4-0.9-1.4-0.5-2.1
			c0.4-0.7,1.3-0.9,2-0.5c7.2,4.2,13.9,9.3,19.9,15.1c0.6,0.6,0.6,1.5,0,2.1C459.5,142.7,459.1,142.8,458.6,142.8z"/>
		<path class="st0" d="M460.1,131.2c-0.6,0-1.2-0.4-1.4-1c-3-7.9-4.3-16.3-3.8-24.7c0-0.8,0.8-1.5,1.6-1.4s1.5,0.8,1.4,1.6
			c-0.4,8,0.8,16,3.6,23.5c0.3,0.8-0.1,1.6-0.9,1.9c0,0,0,0,0,0C460.5,131.1,460.3,131.2,460.1,131.2z"/>
		<path class="st0" d="M652.4,227.3c-0.2,0-0.4,0-0.6-0.1c-14.9-7.1-30.3-13.3-46-18.4c-0.8-0.2-1.3-1-1.1-1.8s1-1.3,1.8-1.1
			c0.1,0,0.1,0,0.2,0.1c15.8,5.1,31.3,11.3,46.3,18.5c0.7,0.4,1.1,1.3,0.7,2C653.5,227,653,227.3,652.4,227.3L652.4,227.3z"/>
		<path class="st0" d="M619.8,236c-0.3,0-0.6-0.1-0.8-0.3c-0.7-0.5-0.9-1.4-0.4-2.1c0,0,0,0,0,0c9.9-14.5,20.8-28.4,32.5-41.5
			c0.6-0.6,1.5-0.7,2.1-0.1s0.7,1.5,0.1,2.1c-11.6,13-22.4,26.8-32.2,41.2C620.7,235.7,620.3,236,619.8,236z"/>
		<path class="st0" d="M635.1,242.9c-0.8,0-1.5-0.7-1.5-1.5c-0.4-14.9-3.6-29.5-9.4-43.2c-0.4-0.7,0-1.6,0.7-2c0.7-0.4,1.6,0,2,0.7
			c0,0,0,0.1,0,0.1c6,14,9.2,29,9.6,44.3C636.6,242.2,636,242.9,635.1,242.9C635.1,242.9,635.1,242.9,635.1,242.9L635.1,242.9z"/>
		<path class="st0" d="M614.2,220.1c-0.7,0-1.3-0.5-1.5-1.2c-0.2-0.8,0.4-1.6,1.2-1.7c0,0,0,0,0,0c17.9-3.4,36.1-6.2,54.2-8.1
			c0.8-0.1,1.6,0.5,1.7,1.3c0.1,0.8-0.5,1.6-1.3,1.7l0,0c-18,1.9-36.2,4.7-54,8.1C614.3,220.1,614.2,220.1,614.2,220.1z"/>
	</g>
</g>
</svg>
