<?xml version="1.0" encoding="utf-8"?>
<!-- Generator: Adobe Illustrator 22.1.0, SVG Export Plug-In . SVG Version: 6.00 Build 0)  -->
<svg version="1.1" id="Layer_1" xmlns="http://www.w3.org/2000/svg" xmlns:xlink="http://www.w3.org/1999/xlink" x="0px" y="0px"
	 viewBox="0 0 470.4 557" style="enable-background:new 0 0 470.4 557;" xml:space="preserve">
<style type="text/css">
	.st0{fill:#FFFFFF;}
</style>
<title>Asset 511</title>
<g id="Layer_2_1_">
	<g id="Layer_1-2">
		<path class="st0" d="M16.3,46L16.3,46c-0.9,0-1.5-0.7-1.5-1.6c0,0,0,0,0,0c0.4-9.5,0.3-19.1-0.4-28.6c-0.1-0.8,0.6-1.5,1.4-1.6
			s1.5,0.6,1.6,1.4c0.7,9.7,0.8,19.3,0.4,29C17.8,45.4,17.1,46,16.3,46z"/>
		<path class="st0" d="M6.4,36.1c-1.8,0-3.6-0.2-5.3-0.7c-0.8-0.2-1.3-1.1-1-1.9s1.1-1.3,1.9-1l0,0c5.3,1.6,10.8-0.1,16.6-1.9
			c3.1-1,6.2-1.8,9.4-2.3c0.3-0.4,0.8-0.5,1.3-0.5l1.6,0.2c2.2-0.1,4.4,0.2,6.5,0.9c0.8,0.3,1.2,1.1,0.9,1.9c-0.2,0.7-0.9,1.1-1.6,1
			l-6-0.8c-3.6,0.1-7.4,1.3-11.2,2.4C15.1,34.8,10.8,36.1,6.4,36.1z"/>
		<path class="st0" d="M32.2,44.1c-0.4,0-0.8-0.2-1.1-0.5c-8.6-8.9-18.2-16.8-28.7-23.5c-0.7-0.4-1.1-1.3-0.7-2
			c0.4-0.7,1.3-1.1,2-0.7c0.1,0.1,0.2,0.1,0.3,0.2c10.7,6.8,20.5,14.9,29.2,24c0.6,0.6,0.6,1.5,0,2.1C32.9,44,32.5,44.1,32.2,44.1
			L32.2,44.1z"/>
		<path class="st0" d="M7.1,44.2c-0.3,0-0.6-0.1-0.8-0.2C5.4,43.4,5,42.5,5,41.6c0.1-1.9,2-3.5,3.3-4.2c8.9-4.7,15.5-12.7,18.4-22.3
			c0.2-0.8,1.1-1.2,1.9-1c0.8,0.2,1.2,1.1,1,1.9C26.4,26.3,19.2,35,9.7,40c-0.7,0.4-1.2,0.9-1.6,1.5c0.5,0.5,0.7,1.3,0.2,1.9
			C8.1,43.9,7.6,44.2,7.1,44.2z"/>
		<path class="st0" d="M468.9,485.8c-0.4,0-0.8-0.2-1.1-0.4l-1-1c-13.5-13.6-27.5-27.6-41.2-42.3c-19.8-19.4-39.4-39.3-58.2-58.5
			c-21.9-22.4-44.6-45.5-67.8-67.8c-0.6-0.6-0.7-1.5-0.1-2.1c0.6-0.6,1.5-0.7,2.1-0.1c0,0,0,0,0.1,0.1
			c23.2,22.3,45.9,45.4,67.8,67.8c18.9,19.2,38.4,39.2,58.2,58.5c13.7,14.7,27.1,28.1,41.2,42.2l1,1c0.6,0.6,0.6,1.5,0,2.1
			C469.6,485.6,469.2,485.8,468.9,485.8z"/>
		<path class="st0" d="M251.7,266.9c-0.4,0-0.8-0.2-1.1-0.4c-11.5-11.5-22.9-23-34.4-34.6C157.7,173.2,97.2,112.6,38.4,52.5
			c-0.6-0.6-0.5-1.6,0.1-2.1c0.6-0.5,1.5-0.5,2,0c58.9,60.1,119.3,120.7,177.8,179.4l34.4,34.5c0.6,0.6,0.6,1.5,0,2.1
			C252.5,266.7,252.1,266.9,251.7,266.9z"/>
		<path class="st0" d="M291.8,257.1c-0.2,0-0.4,0-0.5-0.1c-0.8-0.3-1.2-1.1-0.9-1.9c0,0,0,0,0,0c14.8-40.5,28.6-81.9,42.1-121.9
			c8.3-24.7,16.9-50.2,25.6-75.3c0.3-0.8,1.1-1.2,1.9-0.9c0.8,0.3,1.2,1.1,0.9,1.9l0,0c-8.7,25.1-17.3,50.6-25.6,75.3
			c-13.5,40-27.4,81.4-42.1,122C293,256.7,292.4,257.1,291.8,257.1z"/>
		<path class="st0" d="M360.5,42.6L360.5,42.6c-0.9,0-1.5-0.7-1.5-1.5c0,0,0,0,0,0c0.4-9.7,1.3-19.3,2.7-28.9
			c0.1-0.8,0.9-1.4,1.7-1.3c0.8,0.1,1.4,0.9,1.3,1.7l0,0c-1.4,9.5-2.3,19-2.7,28.6C362,41.9,361.3,42.6,360.5,42.6z"/>
		<path class="st0" d="M342.1,30.2c-0.8,0.1-1.6-0.5-1.6-1.4s0.5-1.6,1.4-1.6c14.2-2.5,28.5-4,42.9-4.5c0.8,0,1.5,0.6,1.5,1.4
			c0,0.8-0.6,1.5-1.4,1.6c-14.3,0.5-28.5,1.9-42.5,4.5C342.3,30.2,342.2,30.2,342.1,30.2z"/>
		<path class="st0" d="M379.3,46.9c-0.4,0-0.7-0.1-1-0.4c-11.7-10.2-22.6-21.3-32.7-33.2c-0.5-0.6-0.5-1.6,0.2-2.1
			c0.6-0.5,1.6-0.5,2.1,0.2c0,0,0,0,0,0c9.9,11.8,20.7,22.8,32.4,32.9c0.6,0.5,0.7,1.5,0.1,2.1C380.1,46.7,379.7,46.9,379.3,46.9
			L379.3,46.9z"/>
		<path class="st0" d="M350,35.4c-0.8,0-1.5-0.6-1.5-1.5c0-0.4,0.1-0.7,0.3-1c9-11.7,19-22.6,29.9-32.6c0.7-0.5,1.6-0.4,2.1,0.3
			c0.4,0.6,0.4,1.4-0.1,1.9c-10.8,9.9-20.7,20.6-29.5,32.2C350.9,35.2,350.5,35.4,350,35.4z"/>
		<path class="st0" d="M97.3,385.2c-0.3,0-0.7-0.1-0.9-0.3c-0.6-0.5-0.8-1.4-0.3-2.1l50.1-64.4c23.4-30.1,47.6-61.2,63.3-96.7
			c0.3-0.8,1.1-1.2,1.9-0.9s1.2,1.1,0.9,1.9c0,0.1-0.1,0.1-0.1,0.2c-15.8,35.8-40.1,67.1-63.6,97.4l-50.1,64.4
			C98.2,385,97.8,385.2,97.3,385.2z"/>
		<path class="st0" d="M209,544c-0.6,0-1.1-0.3-1.4-0.9l-13.2-27.7c-8.2-17.1-16.6-34.8-23.1-52.9c-15.9-44.1-20.9-91.3-25.7-136.9
			c-0.1-0.8,0.5-1.6,1.3-1.7s1.6,0.5,1.7,1.3c4.8,45.5,9.8,92.5,25.6,136.2c6.5,18,14.9,35.6,23,52.6l13.2,27.7c0.4,0.8,0,1.7-0.7,2
			C209.4,543.9,209.2,544,209,544z"/>
		<path class="st0" d="M199.2,557c-0.5,0-0.9-0.2-1.2-0.6c-0.5-0.7-0.4-1.6,0.2-2.1c5.8-4.6,8.8-11.7,11.8-19.2
			c3.3-8,6.7-16.4,14.1-21.2c0.7-0.5,1.6-0.3,2.1,0.4c0.5,0.7,0.3,1.6-0.4,2.1c0,0,0,0,0,0c-6.6,4.3-9.7,11.9-13,19.8
			c-3.1,7.5-6.3,15.3-12.7,20.4C199.8,556.9,199.5,557,199.2,557z"/>
		<path class="st0" d="M228.4,552c-0.7,0-1.4-0.2-2-0.4l-38-14.7c-0.8-0.3-1.2-1.2-0.9-1.9s1.2-1.2,1.9-0.9l0,0l37.6,14.6
			c0.1-0.1,0.1-0.3,0.2-0.4c0.8-0.8,2.1-0.8,3-0.2c0.8,0.5,1.1,1.6,0.6,2.5C230.4,551.5,229.5,552.1,228.4,552z"/>
		<path class="st0" d="M188,545.3c-0.8,0-1.5-0.7-1.5-1.5c0-0.6,0.4-1.2,1-1.4c12.5-3.8,25.4-6.3,38.4-7.4c3.7-0.3,7.6-0.6,9.9-3
			c0.6-0.6,1.5-0.6,2.1,0s0.6,1.5,0,2.1l0,0c-3.1,3.2-7.8,3.5-11.8,3.9c-12.8,1.1-25.5,3.5-37.8,7.3
			C188.3,545.3,188.1,545.3,188,545.3z"/>
		<path class="st0" d="M100.4,410.6c-0.7,0-1.3-0.5-1.4-1.1l-1-4.3c-0.2-0.8,0.3-1.5,1-1.8c-0.4-10.1-2.4-20-6-29.4
			c-0.2,0.1-0.5,0.1-0.8,0.1c-0.8-0.1-1.4-0.8-1.3-1.6c0,0,0,0,0,0l0.3-3.3c0.1-0.8,0.8-1.4,1.6-1.3c0.5,0.1,1,0.4,1.2,0.9
			c5.5,12.7,8.2,26.5,7.9,40.4c0,0.8-0.6,1.4-1.3,1.5L100.4,410.6z"/>
		<path class="st0" d="M79.4,389.6c-0.8,0-1.5-0.7-1.5-1.5c0-0.6,0.4-1.1,0.9-1.4c13.3-5.7,27.5-9.1,41.9-10.1
			c0.8-0.1,1.6,0.6,1.6,1.4c0.1,0.8-0.6,1.6-1.4,1.6l-3.2,0.3h-0.2c-13,1.2-25.7,4.4-37.7,9.6C79.8,389.5,79.6,389.6,79.4,389.6z"/>
		<path class="st0" d="M85.4,402.9c-0.8,0-1.5-0.7-1.5-1.5c0-0.2,0-0.4,0.1-0.6c5.6-13.3,10-27,13-41.1c0.2-0.8,1-1.3,1.8-1.1
			c0.8,0.2,1.3,1,1.2,1.8c-3.1,14.3-7.5,28.2-13.2,41.6C86.5,402.5,86,402.9,85.4,402.9z"/>
		<path class="st0" d="M133.8,414.5c-0.5,0-1-0.3-1.3-0.7c-6.8-10.5-17.6-16.9-29.1-23.6c-7-4.1-14.3-8.4-20.5-13.7
			c-0.6-0.5-0.7-1.5-0.2-2.1s1.5-0.7,2.1-0.2c6,5.2,13.2,9.4,20.1,13.4c11.2,6.6,22.8,13.4,30.1,24.6c0.4,0.7,0.3,1.6-0.4,2.1
			C134.4,414.4,134.1,414.5,133.8,414.5z"/>
		<path class="st0" d="M278,317.7c-0.8,0-1.4-0.6-1.5-1.3c-2.2-18-3-36.2-2.6-54.3c0-0.8,0.7-1.5,1.5-1.5l0,0c0.8,0,1.5,0.7,1.5,1.5
			c0,0,0,0,0,0c-0.5,18,0.4,36,2.6,53.8c0.1,0.8-0.5,1.6-1.3,1.7c0,0,0,0,0,0L278,317.7z"/>
		<path class="st0" d="M251.3,290.6c-0.8,0-1.5-0.6-1.6-1.4s0.6-1.5,1.4-1.6l57.4-4.9c0.8-0.1,1.6,0.5,1.6,1.4s-0.5,1.6-1.4,1.6
			l-57.4,4.9H251.3z"/>
		<path class="st0" d="M259.2,304.9c-0.8,0-1.5-0.7-1.5-1.5c0-0.4,0.1-0.7,0.4-1l31.6-34c0.5-0.7,1.4-0.9,2.1-0.4
			c0.7,0.5,0.9,1.4,0.4,2.1c-0.1,0.1-0.2,0.2-0.3,0.3l-31.6,34C260,304.7,259.6,304.9,259.2,304.9z"/>
		<path class="st0" d="M291.6,318.9c-0.5,0-0.9-0.2-1.2-0.6l-36.1-45.7c-0.5-0.6-0.5-1.6,0.2-2.1c0.6-0.5,1.6-0.5,2.1,0.2
			c0,0,0.1,0.1,0.1,0.1l36.1,45.7c0.5,0.6,0.4,1.6-0.2,2.1C292.2,318.7,291.9,318.9,291.6,318.9z"/>
	</g>
</g>
</svg>
