<?xml version="1.0" encoding="utf-8"?>
<!-- Generator: Adobe Illustrator 22.1.0, SVG Export Plug-In . SVG Version: 6.00 Build 0)  -->
<svg version="1.1" id="Layer_1" xmlns="http://www.w3.org/2000/svg" xmlns:xlink="http://www.w3.org/1999/xlink" x="0px" y="0px"
	 viewBox="0 0 494.5 714.4" style="enable-background:new 0 0 494.5 714.4;" xml:space="preserve">
<style type="text/css">
	.st0{fill:#FFFFFF;}
</style>
<title>Asset 512</title>
<g id="Layer_2_1_">
	<g id="Layer_1-2">
		<path class="st0" d="M162.5,514.1c-0.8,0-1.5-0.7-1.5-1.5c0-34.1-0.4-68.6-0.7-102c-0.5-48.9-1-99.4-0.5-149.4
			c0-0.8,0.7-1.5,1.5-1.5l0,0c0.8,0,1.5,0.7,1.5,1.5c0,0,0,0,0,0c-0.5,50,0,100.5,0.5,149.4c0.3,33.4,0.7,67.9,0.7,102
			C164,513.4,163.3,514.1,162.5,514.1L162.5,514.1z"/>
		<path class="st0" d="M161.1,208.2c-0.8,0-1.5-0.6-1.5-1.5c-1.1-38.6-1-78.1-0.9-116.3c0.1-17.5,0.1-35.6,0.1-53.2
			c0-0.8,0.7-1.5,1.5-1.5l0,0c0.8,0,1.5,0.7,1.5,1.5c0.1,17.7,0,35.8-0.1,53.3c-0.1,38.1-0.2,77.6,0.8,116.2
			C162.6,207.5,162,208.2,161.1,208.2C161.1,208.2,161.1,208.2,161.1,208.2L161.1,208.2z"/>
		<path class="st0" d="M97,663.8c-0.8,0-1.5-0.7-1.5-1.5c0-0.2,0.1-0.5,0.2-0.7c7.3-14.3,15.1-28.8,22.6-42.9
			c10.4-19.6,21.2-39.8,31.3-60.1c0.3-0.8,1.2-1.1,2-0.8s1.1,1.2,0.8,2c0,0,0,0.1-0.1,0.1c-10.1,20.3-20.9,40.6-31.4,60.1
			c-7.5,14.1-15.2,28.6-22.6,42.8C98.1,663.5,97.6,663.8,97,663.8z"/>
		<path class="st0" d="M414.7,678.8c-0.2,0-0.5-0.1-0.7-0.2c-6.1-3.3-12.4-6.7-18.4-9.8c-13.7-7.3-27.9-14.8-41.9-23.2
			c-8.1-5.2-16.9-9.8-25.3-14.3c-2.9-1.6-5.9-3.1-8.7-4.7c-3.8-2-7.5-4.2-11.1-6.6c-3.5-2.3-7.1-4.5-10.9-6.4
			c-29-15.3-67.3-35.8-106.5-58.8c-0.7-0.4-1-1.3-0.7-2c0.4-0.7,1.3-1,2-0.7c0.1,0,0.1,0.1,0.2,0.1c39.2,23,77.4,43.5,106.3,58.8
			c3.8,2,7.5,4.2,11.1,6.6c3.5,2.3,7.1,4.5,10.9,6.4c2.9,1.6,5.8,3.1,8.7,4.7c8.5,4.5,17.2,9.2,25.4,14.4
			c13.9,8.3,28,15.8,41.7,23.1c6,3.2,12.3,6.5,18.4,9.9c0.7,0.4,1,1.3,0.6,2C415.8,678.5,415.3,678.8,414.7,678.8L414.7,678.8z"/>
		<path class="st0" d="M148.8,216c-0.2,0-0.3,0-0.5-0.1L33.1,174.5c-0.8-0.2-1.3-1-1-1.8c0.2-0.8,1-1.3,1.8-1c0.1,0,0.1,0,0.2,0.1
			l115.1,41.4c0.8,0.3,1.2,1.1,0.9,1.9C149.9,215.6,149.4,216,148.8,216L148.8,216z"/>
		<path class="st0" d="M171.2,259.6c-0.8,0.1-1.6-0.5-1.7-1.3c-0.1-0.8,0.5-1.6,1.3-1.7c82.3-18.6,169.9-37.9,275.7-60.9
			c0.8-0.2,1.6,0.3,1.8,1.1s-0.3,1.6-1.1,1.8c0,0,0,0-0.1,0c-105.8,23-193.4,42.3-275.7,60.9C171.5,259.6,171.4,259.6,171.2,259.6z"
			/>
		<path class="st0" d="M22.2,194.1c-0.8,0-1.5-0.6-1.5-1.4l-1.5-38.5c-0.5-0.3-0.8-0.8-0.9-1.4c-0.1-0.7,0.2-1.4,0.8-1.8
			c0.6-0.4,1.3-0.5,2-0.3c0.6,0.3,1,0.9,1,1.5v0.4c0.2,0.4,0.3,0.8,0.1,1.2c0,0.1,0,0.1-0.1,0.2l1.5,38.5
			C23.7,193.4,23,194.1,22.2,194.1L22.2,194.1z"/>
		<path class="st0" d="M9.2,184.7c-0.8,0-1.5-0.6-1.5-1.5c0-0.4,0.1-0.7,0.3-1L37.4,147c0.5-0.6,1.5-0.7,2.1-0.2
			c0.6,0.5,0.7,1.5,0.2,2.1l-29.4,35.2C10,184.5,9.6,184.7,9.2,184.7z"/>
		<path class="st0" d="M37.9,186.5c-0.3,0-0.6-0.1-0.9-0.3l-27.5-21c-0.6-0.5-1.3-0.8-2.1-0.8c-0.3,0.8-1.2,1.1-2,0.8
			c-0.7-0.3-1-1.1-0.8-1.8c0.3-0.9,1-1.6,1.9-1.8c1.6-0.5,3.6,0.3,4.9,1.3l27.5,21.1c0.7,0.5,0.8,1.4,0.3,2.1
			C38.8,186.3,38.4,186.5,37.9,186.5z"/>
		<path class="st0" d="M1.5,172.9c-0.8,0.1-1.5-0.6-1.6-1.4s0.6-1.5,1.4-1.6c15.1-2.2,29.9-6.1,44.2-11.7c0.8-0.3,1.6,0.1,1.9,0.9
			c0.3,0.8-0.1,1.6-0.9,1.9c-14.5,5.6-29.5,9.6-44.8,11.9L1.5,172.9z"/>
		<path class="st0" d="M158,31.8c-0.8,0-1.4-0.6-1.5-1.4c-0.8-9.8,0-19.7,2.3-29.3c0.2-0.8,1-1.3,1.8-1.1s1.3,1,1.1,1.8
			c-2.2,9.3-2.9,18.8-2.2,28.3c0.1,0.8-0.6,1.6-1.4,1.6L158,31.8z"/>
		<path class="st0" d="M139.6,21.9c-0.8,0-1.5-0.6-1.6-1.4c0-0.8,0.6-1.5,1.4-1.6l42.5-4.1c0.8-0.1,1.6,0.5,1.6,1.4
			c0.1,0.8-0.5,1.6-1.4,1.6l-42.5,4.1L139.6,21.9z"/>
		<path class="st0" d="M176.2,43.5c-0.4,0-0.8-0.2-1.1-0.5L144.3,8.2c-0.6-0.6-0.5-1.6,0.1-2.1c0.6-0.6,1.6-0.5,2.1,0.1L177.3,41
			c0.6,0.6,0.5,1.6-0.1,2.1C176.9,43.4,176.6,43.5,176.2,43.5L176.2,43.5z"/>
		<path class="st0" d="M146.9,32.2c-0.8,0-1.5-0.7-1.5-1.5c0-0.4,0.1-0.7,0.4-1l24.6-27.1c0.5-0.7,1.4-0.8,2.1-0.3
			c0.7,0.5,0.8,1.4,0.3,2.1c-0.1,0.1-0.1,0.1-0.2,0.2L148,31.7C147.7,32,147.3,32.2,146.9,32.2z"/>
		<path class="st0" d="M161.3,252.3c-0.2,0-0.4,0-0.6-0.1c-0.8-0.2-1.7-0.9-1.8-2.9l-2.3-31.3c-0.1-0.8,0.6-1.5,1.4-1.6
			s1.5,0.6,1.6,1.4l0,0l2.2,30.5c0.6,0.1,1,0.4,1.3,0.9c0.4,0.8,0.3,1.7-0.3,2.4C162.4,252.1,161.9,252.3,161.3,252.3z"/>
		<path class="st0" d="M140.6,241c-0.8,0.1-1.6-0.5-1.7-1.3c-0.1-0.8,0.5-1.6,1.3-1.7l38.1-8.6c0.8-0.1,1.6,0.4,1.7,1.2
			c0.1,0.7-0.3,1.5-1.1,1.7L141,241H140.6z"/>
		<path class="st0" d="M148.7,250.5c-0.2,0-0.4,0-0.5-0.1c-0.8-0.3-1.2-1.2-0.9-1.9c0,0,0,0,0-0.1c4.1-10.4,10.5-19.7,18.9-27.1
			c0.6-0.6,1.6-0.5,2.1,0.1s0.5,1.6-0.1,2.1c-8,7.1-14.1,16-18,25.9C149.9,250.1,149.3,250.5,148.7,250.5z"/>
		<path class="st0" d="M175.1,253.1c-0.3,0-0.6-0.1-0.9-0.3c-11.6-8.7-22.7-18.1-33.2-28.1c-0.6-0.6-0.6-1.5,0-2.1
			c0.6-0.6,1.5-0.6,2.1,0c10.4,9.9,21.5,19.2,33,27.9c0.7,0.5,0.8,1.4,0.3,2.1C176,252.9,175.5,253.1,175.1,253.1z"/>
		<path class="st0" d="M455.1,193.4c-0.8,0.1-1.6-0.5-1.7-1.3c-0.1-0.8,0.5-1.6,1.3-1.7c10.6-2.6,21.5-3.9,32.5-4.1l0,0
			c0.8,0,1.5,0.7,1.5,1.5s-0.7,1.5-1.5,1.5c-10.7,0.2-21.4,1.5-31.8,4.1C455.3,193.4,455.2,193.4,455.1,193.4z"/>
		<path class="st0" d="M476.1,210.2c-0.7,0-1.4-0.5-1.5-1.2l-6.8-39c-0.1-0.8,0.4-1.6,1.2-1.8c0.8-0.1,1.6,0.4,1.8,1.2l6.8,39
			c0.1,0.8-0.4,1.6-1.2,1.7c0,0,0,0,0,0C476.3,210.2,476.2,210.2,476.1,210.2z"/>
		<path class="st0" d="M467.3,197.3c-0.3,0-0.6-0.1-0.9-0.3c-0.7-0.5-0.8-1.4-0.3-2.1c6.3-8.3,13.5-16,21.4-22.9
			c0.6-0.6,1.6-0.5,2.1,0.1c0.6,0.6,0.5,1.6-0.1,2.1c-7.7,6.8-14.7,14.3-21,22.4C468.2,197.1,467.8,197.3,467.3,197.3z"/>
		<path class="st0" d="M493,212.5c-0.4,0-0.8-0.2-1.1-0.5l-33.6-35.4c-0.6-0.6-0.5-1.6,0.1-2.1s1.6-0.5,2.1,0.1l33.6,35.5
			c0.6,0.6,0.5,1.6-0.1,2.1C493.8,212.4,493.4,212.5,493,212.5z"/>
		<path class="st0" d="M173.3,580.9c-0.7,0-1.4-0.5-1.5-1.2c-3.2-19.2-7.2-38.5-11.8-57.4c-0.2-0.8,0.3-1.6,1.1-1.8
			c0.8-0.2,1.6,0.3,1.8,1.1c4.6,19,8.6,38.4,11.8,57.6c0.1,0.8-0.4,1.6-1.2,1.7c0,0,0,0,0,0C173.5,580.9,173.4,580.9,173.3,580.9z"
			/>
		<path class="st0" d="M186.6,561.5c-0.3,0-0.7-0.1-0.9-0.3L141,526.5c-0.7-0.5-0.8-1.5-0.3-2.1c0.5-0.7,1.5-0.8,2.1-0.3l44.8,34.7
			c0.7,0.5,0.8,1.5,0.3,2.1C187.6,561.3,187.1,561.5,186.6,561.5L186.6,561.5z"/>
		<path class="st0" d="M154.4,553.3c-0.8,0-1.5-0.7-1.5-1.5c0-0.3,0.1-0.5,0.2-0.8c7.1-11.6,15.2-22.4,24.4-32.4
			c0.5-0.7,1.4-0.8,2.1-0.3c0.7,0.5,0.8,1.4,0.3,2.1c-0.1,0.1-0.1,0.2-0.2,0.3c-9.1,9.9-17.1,20.6-24.1,32
			C155.4,553,154.9,553.3,154.4,553.3z"/>
		<path class="st0" d="M142.2,544.5h-3.8c-0.8,0-1.5-0.7-1.5-1.5s0.7-1.5,1.5-1.5l0,0c24.2,0.1,48.3-1.1,72.4-3.8
			c0.8-0.1,1.6,0.5,1.7,1.3c0.1,0.8-0.5,1.6-1.3,1.7C188.2,543.2,165.2,544.5,142.2,544.5z"/>
		<path class="st0" d="M454.2,701.3c-0.3,0-0.5-0.1-0.8-0.2l-30.2-18c-0.7-0.4-1-1.3-0.6-2c0.4-0.7,1.3-1,2-0.6c0,0,0.1,0.1,0.1,0.1
			l30.2,18c0.7,0.4,0.9,1.3,0.5,2.1C455.2,701,454.7,701.3,454.2,701.3L454.2,701.3z"/>
		<path class="st0" d="M433.6,705.7c-0.8,0-1.5-0.6-1.5-1.5c0-0.4,0.1-0.8,0.4-1c9.5-10.5,18.2-21.7,26.1-33.5c0.4-0.7,1.3-1,2-0.6
			c0.7,0.4,1,1.3,0.6,2c0,0.1-0.1,0.1-0.1,0.2c-7.9,11.9-16.8,23.2-26.3,33.9C434.5,705.6,434.1,705.7,433.6,705.7z"/>
		<path class="st0" d="M445.2,714.4c-0.7,0-1.4-0.6-1.5-1.3l-5.5-39c-0.1-0.8,0.5-1.6,1.3-1.7c0.8-0.1,1.6,0.5,1.7,1.3l5.5,39
			c0.1,0.8-0.4,1.6-1.3,1.7c0,0,0,0,0,0L445.2,714.4z"/>
		<path class="st0" d="M421.6,701.7c-0.8,0-1.5-0.6-1.5-1.5c0-0.8,0.6-1.5,1.5-1.5c19.5-1.1,39.3-2.8,58.7-5.2
			c0.8-0.1,1.6,0.5,1.7,1.3c0.1,0.8-0.5,1.6-1.3,1.7l0,0C461.1,698.9,441.3,700.7,421.6,701.7L421.6,701.7z"/>
		<path class="st0" d="M77.6,695c-0.2,0-0.5-0.1-0.7-0.2c-0.7-0.4-1-1.3-0.6-2l13.6-25.5c0.4-0.7,1.3-1,2-0.6c0.7,0.4,1,1.3,0.6,2
			l0,0l-13.6,25.5C78.6,694.7,78.1,695,77.6,695z"/>
		<path class="st0" d="M111.8,703.2c-0.4,0-0.7-0.1-1-0.3c-13.4-11.1-27-22.3-40.7-33.2c-0.6-0.5-0.7-1.5-0.2-2.1
			c0.5-0.6,1.5-0.7,2.1-0.2c13.6,10.9,27.3,22.1,40.7,33.2c0.6,0.5,0.7,1.5,0.2,2.1C112.6,703,112.2,703.2,111.8,703.2L111.8,703.2z
			"/>
		<path class="st0" d="M86.8,694.9c-0.7,0-1.3-0.5-1.5-1.2L78,659c-0.1-0.8,0.4-1.6,1.2-1.7c0.8-0.1,1.5,0.3,1.7,1.1l7.4,34.7
			c0.2,0.8-0.3,1.6-1.2,1.8c0,0,0,0,0,0C87.1,694.9,86.9,694.9,86.8,694.9z"/>
		<path class="st0" d="M68.2,682.4c-0.8,0-1.5-0.6-1.6-1.4c0-0.8,0.5-1.4,1.3-1.6c13-2.6,26.2-3.8,39.4-3.7c0.8,0,1.5,0.7,1.5,1.5
			s-0.7,1.5-1.5,1.5l0,0c-13-0.2-26,1-38.8,3.6L68.2,682.4z"/>
	</g>
</g>
</svg>
