<?xml version="1.0" encoding="utf-8"?>
<!-- Generator: Adobe Illustrator 22.1.0, SVG Export Plug-In . SVG Version: 6.00 Build 0)  -->
<svg version="1.1" id="Layer_1" xmlns="http://www.w3.org/2000/svg" xmlns:xlink="http://www.w3.org/1999/xlink" x="0px" y="0px"
	 viewBox="0 0 538.9 359.2" style="enable-background:new 0 0 538.9 359.2;" xml:space="preserve">
<style type="text/css">
	.st0{fill:#FFFFFF;}
</style>
<title>Asset 513</title>
<g id="Layer_2_1_">
	<g id="Layer_1-2">
		<path class="st0" d="M120.5,320.7c-0.7,0-1.3-0.5-1.5-1.2l-38-169.2c-0.2-0.8,0.3-1.6,1.1-1.8c0.8-0.2,1.6,0.3,1.8,1.1l38,169.2
			c0.2,0.8-0.3,1.6-1.1,1.8c0,0,0,0,0,0C120.8,320.7,120.6,320.7,120.5,320.7z"/>
		<path class="st0" d="M82.5,148c-0.8,0-1.5-0.7-1.5-1.5c0-0.5,0.2-1,0.7-1.3L269.3,19.8c0.7-0.4,1.6-0.2,2,0.6
			c0.4,0.6,0.2,1.5-0.4,1.9L83.3,147.8C83.1,147.9,82.8,148,82.5,148z"/>
		<path class="st0" d="M517.7,146.9c-0.2,0-0.5-0.1-0.7-0.2l-240.6-122c-0.8-0.4-1.1-1.3-0.7-2c0.4-0.8,1.3-1.1,2-0.7l0,0l240.6,122
			c0.7,0.4,1,1.3,0.6,2C518.8,146.5,518.3,146.8,517.7,146.9L517.7,146.9z"/>
		<path class="st0" d="M351.9,316.1c-0.8,0-1.5-0.7-1.5-1.5c0-0.4,0.2-0.8,0.4-1.1l158.9-157.7c0.6-0.6,1.5-0.6,2.1-0.1
			c0.6,0.6,0.6,1.5,0.1,2.1c0,0,0,0.1-0.1,0.1L353,315.7C352.7,316,352.3,316.1,351.9,316.1z"/>
		<path class="st0" d="M342.7,312.7c-0.1,0-0.3,0-0.4-0.1l-59.9-18.4c-0.8-0.2-1.2-1.1-1-1.9s1.1-1.2,1.9-1l59.9,18.4
			c0.8,0.3,1.2,1.1,1,1.9C343.9,312.2,343.4,312.7,342.7,312.7L342.7,312.7z"/>
		<path class="st0" d="M97.5,251.6c-0.3,0-0.5-0.1-0.8-0.2l-80.6-49.5c-0.7-0.4-0.9-1.3-0.5-2c0,0,0,0,0,0c0.4-0.7,1.4-0.9,2.1-0.5
			l80.6,49.5c0.7,0.4,0.9,1.4,0.5,2.1C98.5,251.4,98,251.7,97.5,251.6z"/>
		<path class="st0" d="M106.7,232.1c-0.8,0-1.5-0.6-1.5-1.5c0-0.5,0.2-0.9,0.5-1.2l59.9-50.7c0.6-0.5,1.6-0.5,2.1,0.2
			c0.5,0.6,0.5,1.6-0.2,2.1l0,0l-59.9,50.7C107.4,231.9,107,232.1,106.7,232.1z"/>
		<path class="st0" d="M14.6,195.2c-0.7,0-1.3-0.5-1.4-1.1l-8.1-32.2c-0.2-0.8,0.3-1.6,1.1-1.8s1.6,0.3,1.8,1.1l8.1,32.2
			c0.2,0.8-0.3,1.6-1.1,1.8C14.9,195.2,14.7,195.2,14.6,195.2z"/>
		<path class="st0" d="M128.4,358.5c-0.7,0-1.3-0.5-1.5-1.2l-6.9-33.1c-0.2-0.8,0.4-1.6,1.2-1.8s1.6,0.4,1.8,1.2l6.9,33.2
			c0.2,0.8-0.4,1.6-1.2,1.8L128.4,358.5z"/>
		<path class="st0" d="M107.9,346.1c-0.8,0-1.5-0.7-1.5-1.5c0-0.7,0.4-1.2,1-1.4c10.2-3.2,20.5-5.9,31-8c0.8-0.1,1.6,0.4,1.7,1.3
			c0.1,0.8-0.4,1.5-1.1,1.7c-10.4,2.1-20.6,4.7-30.7,7.9C108.2,346.1,108,346.1,107.9,346.1z"/>
		<path class="st0" d="M144.4,359.2c-0.3,0-0.6-0.1-0.8-0.2c-13.3-8.5-26.2-17.8-38.6-27.5c-0.6-0.5-0.8-1.5-0.2-2.1
			c0.5-0.6,1.5-0.8,2.1-0.2l0,0c12.2,9.7,25.1,18.9,38.3,27.4c0.7,0.4,0.9,1.4,0.4,2.1C145.3,359,144.9,359.2,144.4,359.2z"/>
		<path class="st0" d="M115.4,355c-0.8,0-1.5-0.7-1.5-1.5c0-0.2,0-0.4,0.1-0.6c5-11.6,11.3-22.6,18.8-32.8c0.5-0.7,1.4-0.8,2.1-0.3
			c0.7,0.5,0.8,1.4,0.3,2.1c-7.4,10-13.6,20.8-18.5,32.2C116.5,354.7,116,355,115.4,355z"/>
		<path class="st0" d="M173.6,175.9c-0.8,0-1.5-0.7-1.5-1.5c0-0.4,0.2-0.8,0.5-1.1l19.6-18.4c0.6-0.6,1.5-0.6,2.1-0.1
			c0.6,0.6,0.6,1.5,0.1,2.1c0,0.1-0.1,0.1-0.2,0.1l-19.6,18.4C174.4,175.7,174,175.9,173.6,175.9z"/>
		<path class="st0" d="M201,189.6c-0.5,0-0.9-0.2-1.2-0.6c-8.7-11.4-18.2-22.1-28.6-32.1c-0.6-0.6-0.7-1.5-0.1-2.1
			c0.6-0.6,1.5-0.7,2.1-0.1c0,0,0,0,0.1,0.1c10.4,10.1,20.1,20.9,28.9,32.4c0.5,0.7,0.4,1.6-0.3,2.1c0,0,0,0,0,0
			C201.6,189.5,201.3,189.6,201,189.6z"/>
		<path class="st0" d="M183.9,186c-0.7,0-1.4-0.5-1.5-1.2l-4.8-28.8c-0.1-0.8,0.4-1.6,1.3-1.7c0.8-0.1,1.6,0.4,1.7,1.3l4.8,28.8
			c0.1,0.8-0.4,1.6-1.2,1.7c0,0-0.1,0-0.1,0C184,186,183.9,186,183.9,186z"/>
		<path class="st0" d="M198.8,168.9h-0.2c-8.7-1.2-17.5-1.5-26.2-0.9c-0.8,0-1.5-0.6-1.6-1.4s0.6-1.5,1.4-1.6
			c8.9-0.6,17.9-0.3,26.8,0.9c0.8,0.1,1.5,0.8,1.4,1.6S199.6,169,198.8,168.9L198.8,168.9L198.8,168.9z"/>
		<path class="st0" d="M1.9,197.1c-0.8,0-1.5-0.7-1.5-1.5s0.7-1.5,1.5-1.5c12.3-0.2,24.7-0.7,37-1.4c0.3-0.3,0.7-0.4,1.1-0.4
			l3.1,0.1c0.8,0,1.5,0.7,1.5,1.5s-0.7,1.5-1.5,1.5C29.4,196.3,15.6,196.9,1.9,197.1L1.9,197.1z"/>
		<path class="st0" d="M1.5,218c-0.8,0-1.5-0.7-1.5-1.5c0-0.3,0.1-0.6,0.2-0.8l25.7-40.1c0.5-0.7,1.4-0.8,2.1-0.3
			c0.6,0.4,0.8,1.3,0.4,2L2.8,217.3C2.5,217.7,2,218,1.5,218z"/>
		<path class="st0" d="M23.8,224c-0.6,0-1.2-0.4-1.4-1c-4.8-13.5-10.8-26.6-18-39c-0.4-0.7-0.2-1.6,0.5-2.1c0.7-0.4,1.6-0.2,2.1,0.5
			c7.3,12.6,13.4,25.8,18.2,39.5c0.3,0.8-0.1,1.6-0.9,1.9C24.1,224,23.9,224,23.8,224z"/>
		<path class="st0" d="M346.4,310.4c-0.8,0-1.4-0.6-1.5-1.4l-1.4-18.4c-0.1-0.8,0.6-1.6,1.4-1.6c0.8-0.1,1.6,0.6,1.6,1.4l1.4,18.4
			c0.1,0.8-0.6,1.5-1.4,1.6L346.4,310.4z"/>
		<path class="st0" d="M331.3,336.9c-0.3,0-0.6-0.1-0.8-0.2c-0.7-0.5-0.9-1.4-0.4-2.1c0,0,0,0,0,0l15.9-24.3
			c0.4-0.7,1.4-0.9,2.1-0.5c0.7,0.4,0.9,1.4,0.5,2.1c0,0,0,0.1-0.1,0.1l-15.9,24.3C332.3,336.7,331.8,336.9,331.3,336.9z"/>
		<path class="st0" d="M370.6,335.4c-0.3,0-0.6-0.1-0.9-0.3l-22.2-15.7c-0.7-0.5-0.8-1.4-0.4-2.1s1.4-0.8,2.1-0.4l0,0l22.2,15.7
			c0.7,0.5,0.8,1.4,0.4,2.1C371.5,335.1,371.1,335.4,370.6,335.4L370.6,335.4z"/>
		<path class="st0" d="M350.7,339.2c-0.7,0-1.3-0.5-1.5-1.2l-3.2-15c-0.2-0.8,0.3-1.6,1.2-1.8s1.6,0.3,1.8,1.2l3.2,15
			c0.2,0.8-0.3,1.6-1.1,1.8C350.9,339.1,350.8,339.2,350.7,339.2z"/>
		<path class="st0" d="M325.6,319c-1.6,0-3.3-0.1-5-0.2c-0.8-0.1-1.4-0.8-1.4-1.6c0,0,0,0,0,0c0.1-0.8,0.8-1.4,1.6-1.4
			c6,0.5,12.1,0,18-1.5c0.8-0.2,1.6,0.3,1.8,1.1c0.2,0.8-0.3,1.6-1.1,1.8C335.1,318.4,330.4,319,325.6,319z"/>
		<path class="st0" d="M364.6,316.1c-0.8,0.1-1.6-0.5-1.7-1.3c-0.1-0.8,0.5-1.6,1.3-1.7c5.1-1.2,10.3-1.6,15.5-1.1
			c0.8,0.1,1.4,0.8,1.4,1.6c-0.1,0.8-0.8,1.4-1.6,1.4c-4.9-0.5-9.7-0.1-14.5,1C364.8,316,364.7,316.1,364.6,316.1z"/>
		<path class="st0" d="M273.7,47.9c-0.8,0-1.4-0.6-1.5-1.3c-1.4-13.5-1.7-27-0.9-40.5c-0.4,0-0.7-0.2-1-0.5
			c-0.7-0.8-0.8-1.9-0.2-2.8c0.5-0.8,1.4-1.2,2.3-0.9c0.8,0.2,2.1,1.1,2,3.8c-0.8,13.5-0.5,27.1,0.9,40.6c0.1,0.8-0.5,1.6-1.3,1.7
			L273.7,47.9z"/>
		<path class="st0" d="M253.2,26.1c-0.8,0-1.5-0.7-1.5-1.5c0-0.4,0.1-0.7,0.4-1c4.8-5.3,12.5-5.3,19.4-4.9l25.4,1.5
			c0.8,0.1,1.5,0.8,1.4,1.6c0,0.8-0.7,1.5-1.6,1.4c0,0,0,0,0,0l-25.4-1.5c-6.2-0.4-13.1-0.4-17,3.9C254,25.9,253.6,26.1,253.2,26.1z
			"/>
		<path class="st0" d="M277.6,16.3c-0.8,0-1.5-0.7-1.5-1.5c0-0.4,0.1-0.7,0.3-1c3-3.7,6.5-7,10.3-9.8c0.7-0.5,1.6-0.3,2.1,0.3
			c0.5,0.7,0.3,1.6-0.3,2.1c-3.6,2.7-6.9,5.8-9.8,9.3C278.5,16.1,278.1,16.3,277.6,16.3z"/>
		<path class="st0" d="M257.7,16.6c-0.4,0-0.7-0.2-1-0.4l-14-13.6c-0.6-0.6-0.6-1.5,0-2.1c0,0,0,0,0,0c0.6-0.6,1.5-0.6,2.1,0
			l14,13.6c0.6,0.6,0.6,1.5,0,2.1C258.5,16.5,258.1,16.6,257.7,16.6z"/>
		<path class="st0" d="M521,157.7c-11.6,0-23.1-0.6-34.6-1.9c-0.1,0.2-0.2,0.3-0.4,0.4c-0.7,0.5-1.7,0.5-2.4,0
			c-0.7-0.5-1-1.3-0.7-2.1c0.2-0.5,0.9-1.7,3-1.4c16.4,1.9,32.9,2.4,49.4,1.7c0.8-0.1,1.5,0.6,1.6,1.4c0,0,0,0,0,0.1
			c0,0.8-0.6,1.5-1.4,1.6c0,0,0,0,0,0C530.7,157.5,525.9,157.7,521,157.7z M483.8,155.5L483.8,155.5z"/>
		<path class="st0" d="M514.9,148.5c-0.8,0-1.5-0.7-1.5-1.5c0-0.5,0.2-1,0.7-1.2c7.3-5,14.9-9.7,22.6-14c0.7-0.4,1.6-0.1,2,0.6
			s0.1,1.6-0.6,2c-7.7,4.3-15.2,8.9-22.4,13.9C515.5,148.4,515.2,148.5,514.9,148.5z"/>
		<path class="st0" d="M523.4,176.9c-0.4,0-0.7-0.1-1-0.4l-10.3-9.2c-0.6-0.5-0.7-1.5-0.2-2.1c0.5-0.6,1.5-0.7,2.1-0.2
			c0,0,0.1,0.1,0.1,0.1l10.3,9.2c0.6,0.6,0.7,1.5,0.1,2.1C524.2,176.7,523.8,176.9,523.4,176.9z"/>
		<path class="st0" d="M511.9,145.7h-0.1c-0.8-0.1-1.4-0.8-1.3-1.6c1.2-11.8,1.6-23.6,1.2-35.5c0-0.8,0.6-1.5,1.4-1.5c0,0,0,0,0,0
			c0.8,0,1.5,0.6,1.5,1.4c0,0,0,0,0,0.1c0.4,12,0,24-1.2,35.9C513.3,145.2,512.6,145.7,511.9,145.7z"/>
		<path class="st0" d="M513.2,182.6c-0.8,0-1.4-0.6-1.5-1.4l-2.5-28.8c-0.1-0.8,0.5-1.5,1.3-1.6c0,0,0,0,0,0
			c0.8-0.1,1.6,0.5,1.6,1.4l2.5,28.8c0.1,0.8-0.5,1.6-1.4,1.6H513.2z"/>
		<path class="st0" d="M269.9,283.8h-0.2c-0.8-0.1-1.4-0.9-1.2-1.7l3.6-23c0.1-0.8,0.9-1.4,1.7-1.3c0.8,0.1,1.4,0.9,1.3,1.7l-3.6,23
			C271.3,283.3,270.7,283.9,269.9,283.8z"/>
		<path class="st0" d="M273.6,320.7h-0.1c-0.8-0.1-1.4-0.8-1.4-1.6c0.5-7.2,0.2-14.4-1-21.5c-0.1-0.8,0.4-1.6,1.3-1.7
			s1.6,0.4,1.7,1.3c1.2,7.3,1.6,14.8,1.1,22.2C275.1,320.2,274.4,320.8,273.6,320.7z"/>
		<path class="st0" d="M277.5,289.3c-0.2,0-0.4,0-0.6-0.1c-0.8-0.3-1.1-1.2-0.8-2c0,0,0,0,0,0c3.7-8.7,8.5-17,14.2-24.6
			c0.5-0.7,1.4-0.8,2.1-0.3c0.7,0.5,0.8,1.4,0.3,2.1c0,0,0,0,0,0c-5.6,7.4-10.2,15.4-13.9,23.9C278.7,289,278.1,289.3,277.5,289.3z"
			/>
		<path class="st0" d="M245.4,313.5c-0.2,0-0.4-0.1-0.6-0.1c-0.7-0.4-1.1-1.3-0.7-2c0,0,0,0,0,0c4.2-8.8,10.4-16.5,18.1-22.4
			c0.7-0.5,1.6-0.4,2.1,0.3s0.4,1.6-0.3,2.1l0,0c-7.4,5.6-13.3,12.9-17.2,21.3C246.5,313.2,246,313.5,245.4,313.5z"/>
		<path class="st0" d="M264.6,286.8c-0.2,0-0.4,0-0.5-0.1l-14.3-5.7c-0.8-0.3-1.1-1.2-0.7-2c0.3-0.7,1.1-1.1,1.9-0.8l14.3,5.7
			c0.8,0.3,1.1,1.2,0.8,2C265.8,286.4,265.2,286.8,264.6,286.8L264.6,286.8z"/>
	</g>
</g>
</svg>
