<?xml version="1.0" encoding="utf-8"?>
<!-- Generator: Adobe Illustrator 22.1.0, SVG Export Plug-In . SVG Version: 6.00 Build 0)  -->
<svg version="1.1" id="Layer_1" xmlns="http://www.w3.org/2000/svg" xmlns:xlink="http://www.w3.org/1999/xlink" x="0px" y="0px"
	 viewBox="0 0 627.4 370" style="enable-background:new 0 0 627.4 370;" xml:space="preserve">
<style type="text/css">
	.st0{fill:#FFFFFF;}
</style>
<title>Asset 499</title>
<g id="Layer_2_1_">
	<g id="Layer_1-2">
		<path class="st0" d="M157.3,167c-0.2,0-0.5-0.1-0.7-0.2c-3.3-1.9-6.3-4.3-9-7c-1.5-1.4-3-2.8-4.7-4.2
			c-31-22.5-59.6-44.2-87.3-65.3C47.4,84.2,39.2,78,30.9,71.7c-0.6-0.5-0.7-1.5-0.2-2.1c0.5-0.6,1.4-0.7,2-0.3
			C41,75.6,49.3,81.8,57.4,88c27.7,21,56.3,42.8,87.3,65.3c1.9,1.5,3.4,3,4.9,4.4c2.5,2.5,5.3,4.7,8.4,6.5c0.7,0.4,1,1.3,0.6,2
			C158.4,166.7,157.9,167,157.3,167L157.3,167z"/>
		<path class="st0" d="M373.9,187.1L373.9,187.1c-3.8-0.2-7.6-0.3-11.3-0.5c-18.7-0.9-38-1.7-57.1-1.9c-0.8,0-1.5-0.7-1.5-1.5
			s0.7-1.5,1.5-1.5l0,0c19.1,0.2,38.4,1.1,57.2,1.9l11.3,0.5c0.8,0,1.5,0.7,1.5,1.5S374.6,187.2,373.9,187.1L373.9,187.1z"/>
		<path class="st0" d="M254.8,182.9L254.8,182.9l-22.4-0.9c-10.6-0.4-21.6-0.9-32.4-1.3c-0.8,0-1.5-0.7-1.4-1.6
			c0-0.8,0.7-1.5,1.6-1.4l0,0c10.8,0.4,21.8,0.8,32.4,1.3c7.4,0.3,14.9,0.6,22.3,0.9c0.8,0,1.5,0.7,1.5,1.5
			C256.3,182.3,255.6,182.9,254.8,182.9z"/>
		<path class="st0" d="M412.4,175.7c-0.8,0-1.5-0.7-1.5-1.5c0-0.4,0.2-0.8,0.5-1.1c14-12.4,28.2-22.8,43.2-33.8
			c9.9-7.3,20.2-14.8,30.3-22.9C505.9,99,526.8,83,547,67.6c12.4-9.5,25.3-19.3,37.9-29.2c0.7-0.5,1.6-0.3,2.1,0.3
			c0.5,0.6,0.4,1.5-0.2,2c-12.6,9.9-25.5,19.8-37.9,29.3c-20.2,15.4-41.1,31.4-62.1,48.7c-10.2,8.2-20.5,15.7-30.5,23
			c-15,11-29.1,21.4-43,33.7C413.1,175.6,412.7,175.7,412.4,175.7z"/>
		<path class="st0" d="M125.8,291c-0.2,0-0.5-0.1-0.7-0.2c-0.7-0.4-1-1.3-0.6-2c5.9-11.3,11.9-23,17.6-34.4
			c8-15.8,16.4-32.1,24.7-48c0.4-0.7,1.3-1,2-0.6s1,1.3,0.6,2c-8.3,15.9-16.7,32.1-24.7,47.9c-5.8,11.4-11.8,23.1-17.7,34.4
			C126.9,290.7,126.4,291,125.8,291z"/>
		<path class="st0" d="M382.8,318L382.8,318c-0.9,0-1.5-0.7-1.5-1.6c0,0,0,0,0,0c1-18.8,2.8-37.7,4.6-55.9
			c1.7-17.7,3.5-36.1,4.5-54.4c0.1-0.8,0.8-1.4,1.6-1.4c0.8,0,1.5,0.8,1.4,1.6c-1,18.4-2.8,36.8-4.5,54.5
			c-1.8,18.2-3.6,37.1-4.6,55.8C384.3,317.4,383.6,318,382.8,318z"/>
		<path class="st0" d="M311.8,308c-0.7,0-1.3-0.5-1.5-1.2l-25.1-108.3c-0.2-0.8,0.3-1.6,1.1-1.8c0.8-0.2,1.6,0.3,1.8,1.1
			c0,0,0,0.1,0,0.1l25.1,108.3c0.2,0.8-0.3,1.6-1.1,1.8C312.1,308,311.9,308,311.8,308z"/>
		<path class="st0" d="M28.8,67.4c-0.1,0-0.2,0-0.3,0C17.8,64.9,8.1,59.6,0.4,52c-0.6-0.5-0.7-1.5-0.2-2.1c0.5-0.6,1.5-0.7,2.1-0.2
			c0.1,0,0.1,0.1,0.2,0.2C9.9,57,19.1,62.1,29.1,64.4c0.8,0.1,1.4,0.8,1.3,1.7C30.3,66.9,29.6,67.5,28.8,67.4L28.8,67.4z"/>
		<path class="st0" d="M5.7,74.9c-0.8,0-1.5-0.7-1.5-1.5c0-0.3,0.1-0.6,0.3-0.9c9-12,16.7-25,23-38.6c0.3-0.8,1.2-1.1,2-0.7
			c0.8,0.3,1.1,1.2,0.7,2C23.8,49,16,62.1,6.9,74.3C6.6,74.7,6.2,74.9,5.7,74.9z"/>
		<path class="st0" d="M18,81c-0.7,0-1.4-0.5-1.5-1.2L10,40.8c-0.1-0.8,0.4-1.6,1.2-1.8s1.6,0.4,1.8,1.2l6.6,38.9
			c0.2,0.8-0.4,1.6-1.2,1.8c0,0-0.1,0-0.1,0C18.2,81,18.1,81,18,81z"/>
		<path class="st0" d="M1.8,66.5c-0.8,0.1-1.5-0.6-1.6-1.4s0.6-1.5,1.4-1.6l0,0c5.6-0.8,11-3.6,16.3-6.3c7.7-3.9,15.6-8,24.3-6.1
			c0.8,0.2,1.3,1,1.2,1.8s-1,1.3-1.8,1.2c-7.6-1.6-14.7,2-22.3,5.9c-5.5,2.8-11.1,5.7-17.2,6.6L1.8,66.5z"/>
		<path class="st0" d="M192.7,198.3c-0.2,0-0.5-0.1-0.7-0.2c-12.8-6.9-24.3-16-33.9-26.9c-0.6-0.6-0.5-1.6,0.1-2.1s1.6-0.5,2.1,0.1
			c9.4,10.7,20.6,19.6,33.1,26.3c0.7,0.4,1,1.3,0.6,2.1C193.7,198,193.2,198.3,192.7,198.3L192.7,198.3z"/>
		<path class="st0" d="M167.8,201c-0.2,0-0.4,0-0.6-0.1c-0.8-0.3-1.1-1.2-0.9-1.9c7-17.9,15.8-35.1,26.2-51.3
			c0.5-0.7,1.4-0.8,2.1-0.3c0.6,0.4,0.8,1.3,0.4,2c-10.3,16-19,33-25.9,50.7C169,200.6,168.4,201,167.8,201z"/>
		<path class="st0" d="M140.6,198.5c-0.8,0-1.5-0.7-1.5-1.5s0.7-1.5,1.5-1.5c8.1-0.2,15.4-4,23.1-8.1c7.3-3.9,14.8-7.8,23.2-8.4
			c0.8-0.1,1.5,0.6,1.6,1.4c0.1,0.8-0.6,1.5-1.4,1.6c-7.7,0.6-15,4.4-22,8.1C157.4,194.1,149.5,198.3,140.6,198.5L140.6,198.5z"/>
		<path class="st0" d="M178.5,208.1c-0.8,0-1.4-0.6-1.5-1.3l-6.2-47.1c-0.1-0.8,0.5-1.6,1.3-1.7s1.6,0.5,1.7,1.3l6.2,47.1
			c0.1,0.8-0.5,1.6-1.3,1.7L178.5,208.1z"/>
		<path class="st0" d="M105.3,330.7c-0.3,0-0.5-0.1-0.8-0.2c-0.7-0.4-0.9-1.4-0.5-2.1l17.9-29.4c0.5-0.7,1.4-0.9,2.1-0.4
			c0.7,0.4,0.9,1.3,0.5,2l-17.9,29.4C106.3,330.4,105.8,330.7,105.3,330.7z"/>
		<path class="st0" d="M139.7,339.2c-0.3,0-0.5-0.1-0.7-0.2c-15.7-9-30.4-19.6-44-31.5c-0.6-0.6-0.7-1.5-0.1-2.1s1.5-0.7,2.1-0.1
			c13.4,11.8,28,22.2,43.5,31.1c0.7,0.4,1,1.3,0.6,2C140.8,338.9,140.3,339.2,139.7,339.2L139.7,339.2z"/>
		<path class="st0" d="M118.6,337.1c-0.7,0-1.3-0.5-1.5-1.2c-2.8-12.7-7-25-12.5-36.8c-0.3-0.8,0.1-1.6,0.9-1.9
			c0.7-0.3,1.5,0,1.9,0.7c5.6,12,9.9,24.5,12.8,37.4c0.2,0.8-0.3,1.6-1.1,1.8c0,0,0,0,0,0C118.8,337,118.7,337.1,118.6,337.1z"/>
		<path class="st0" d="M92.8,321.1c-0.8,0-1.5-0.6-1.5-1.5c0-0.8,0.6-1.5,1.5-1.5c14-0.8,28.1-1.2,42.1-1.1c0.8,0,1.5,0.7,1.5,1.5
			s-0.7,1.5-1.5,1.5l0,0C120.9,319.9,106.8,320.2,92.8,321.1L92.8,321.1z"/>
		<path class="st0" d="M283.4,190.1c-0.8,0-1.4-0.6-1.5-1.3l-4.9-40.1c-0.1-0.8,0.5-1.6,1.3-1.7c0.8-0.1,1.6,0.5,1.7,1.3l4.8,40.1
			c0.1,0.8-0.5,1.6-1.3,1.7c0,0,0,0,0,0L283.4,190.1z"/>
		<path class="st0" d="M300.8,184.6h-0.1l-36.9-2.9c-0.8-0.1-1.4-0.8-1.4-1.6s0.8-1.4,1.6-1.4l36.9,2.9c0.8,0,1.5,0.7,1.4,1.6
			S301.6,184.6,300.8,184.6z"/>
		<path class="st0" d="M267.1,202.2c-0.3,0-0.6-0.1-0.9-0.3c-0.7-0.5-0.8-1.4-0.4-2.1l28.7-40.2c0.4-0.7,1.4-0.9,2.1-0.4
			s0.9,1.4,0.4,2.1c0,0-0.1,0.1-0.1,0.1l-28.7,40.2C268.1,202,267.6,202.2,267.1,202.2z"/>
		<path class="st0" d="M295.7,196.2c-0.4,0-0.8-0.2-1.1-0.5L270,170.3c-3.4-3.5-7.5-7.8-8.8-13.4c-0.2-0.8,0.4-1.6,1.2-1.8
			c0.8-0.2,1.6,0.3,1.7,1.1c1.1,4.8,4.8,8.6,8,12l24.5,25.5c0.6,0.6,0.6,1.5,0,2.1C296.4,196.1,296,196.2,295.7,196.2z"/>
		<path class="st0" d="M317.7,359c-0.8,0-1.4-0.6-1.5-1.3l-4.9-42c-0.1-0.8,0.5-1.6,1.3-1.7c0.8-0.1,1.6,0.5,1.7,1.3c0,0,0,0,0,0
			l4.9,42c0.1,0.8-0.5,1.6-1.3,1.7L317.7,359z"/>
		<path class="st0" d="M301.6,348.6c-0.5,0-1-0.2-1.2-0.7c-0.5-0.7-0.3-1.6,0.4-2.1c10-6.8,20.7-12.5,31.8-17
			c0.8-0.3,1.6,0.1,1.9,0.9c0.3,0.7-0.1,1.5-0.8,1.9c-11,4.5-21.5,10.1-31.3,16.8C302.2,348.5,301.9,348.6,301.6,348.6z"/>
		<path class="st0" d="M331.9,360.9c-0.4,0-0.8-0.2-1.1-0.5l-28.2-31.8c-0.5-0.6-0.5-1.6,0.1-2.1c0,0,0,0,0,0
			c0.6-0.5,1.6-0.5,2.1,0.1l28.2,31.8c0.5,0.6,0.5,1.6-0.1,2.1c0,0,0,0,0,0C332.7,360.8,332.3,360.9,331.9,360.9z"/>
		<path class="st0" d="M306.6,352.9c-0.2,0-0.4,0-0.5-0.1c-0.8-0.3-1.2-1.2-0.9-1.9c0,0,0,0,0,0c5.9-15.2,14.4-29.3,25.2-41.7
			c0.6-0.6,1.5-0.7,2.1-0.1s0.7,1.5,0.1,2.1c-10.5,12-18.8,25.8-24.6,40.7C307.8,352.5,307.2,352.9,306.6,352.9z"/>
		<path class="st0" d="M391.7,200h-0.2c-0.8-0.1-1.4-0.9-1.2-1.7c2.5-16.1,4.7-32.6,6.4-48.9c0.1-0.8,0.8-1.4,1.7-1.3
			s1.4,0.8,1.3,1.7c-1.7,16.3-3.9,32.8-6.4,49C393,199.5,392.4,200,391.7,200z"/>
		<path class="st0" d="M381.9,190.1c-0.8,0-1.5-0.7-1.5-1.5s0.7-1.5,1.5-1.5l24.5-0.1c0.3,0,0.6-0.1,0.9-0.2
			c-0.1-0.6,0.1-1.1,0.5-1.5c0.7-0.5,1.6-0.4,2.1,0.3c0.6,0.7,0.7,1.6,0.3,2.4c-0.8,1.3-2.3,2-3.8,2L381.9,190.1L381.9,190.1z"/>
		<path class="st0" d="M377.2,201.5c-0.8,0-1.5-0.7-1.5-1.5c0-0.5,0.2-0.9,0.6-1.2c9.5-7,18.9-14.4,27.8-22.2
			c0.6-0.6,1.6-0.5,2.1,0.1c0.6,0.6,0.5,1.6-0.1,2.1l0,0c-9,7.8-18.4,15.3-28,22.3C377.8,201.4,377.5,201.5,377.2,201.5z"/>
		<path class="st0" d="M409.8,213c-0.6,0-1.1-0.3-1.3-0.8c-7-14-16.3-26.8-27.6-37.7c-0.6-0.6-0.6-1.5,0-2.1c0.6-0.6,1.5-0.6,2.1,0
			c11.5,11.1,21.1,24.1,28.2,38.5c0.4,0.7,0.1,1.6-0.7,2C410.3,213,410,213,409.8,213z"/>
		<path class="st0" d="M377.5,370L377.5,370c-0.9,0-1.5-0.8-1.5-1.6c0.7-13.6,3-27.1,6.9-40.2c0.2-0.8,1-1.3,1.8-1.1
			c0.8,0.2,1.3,1,1.1,1.8c0,0.1,0,0.1-0.1,0.2c-3.8,12.9-6.1,26.1-6.8,39.5C379,369.4,378.3,370,377.5,370z"/>
		<path class="st0" d="M369,356.1c-0.4,0-0.8-0.2-1.1-0.5c-0.6-0.6-0.5-1.6,0.1-2.1c0,0,0,0,0,0c8.4-7.5,16.3-15.6,23.5-24.1
			c0.5-0.6,1.5-0.7,2.1-0.2c0.6,0.5,0.7,1.5,0.2,2.1c-7.4,8.7-15.4,16.8-23.8,24.4C369.7,356,369.4,356.1,369,356.1z"/>
		<path class="st0" d="M401.6,360.3c-0.3,0-0.6-0.1-0.8-0.2c-12.5-7.7-24.9-15.9-37-24.2c-0.7-0.5-0.9-1.4-0.4-2.1s1.4-0.9,2.1-0.4
			l0,0c12,8.3,24.4,16.5,36.8,24.1c0.7,0.4,0.9,1.4,0.5,2.1C402.6,360,402.1,360.3,401.6,360.3L401.6,360.3z"/>
		<path class="st0" d="M386.1,366.2c-0.7,0-1.3-0.5-1.5-1.1c-4.7-18.3-13.4-35.4-25.5-50c-0.6-0.6-0.5-1.6,0.1-2.1
			c0.6-0.6,1.6-0.5,2.1,0.1c0,0,0.1,0.1,0.1,0.1c12.3,14.9,21.3,32.4,26.1,51.2c0.2,0.8-0.3,1.6-1.1,1.8
			C386.4,366.2,386.3,366.2,386.1,366.2z"/>
		<path class="st0" d="M592.6,37.9c-0.2,0-0.5-0.1-0.7-0.2c-0.9-0.5-1.5-1.3-1.6-2.3c-0.2-1.9,1.1-4,2.5-5.2l28.4-25.4
			c0.6-0.6,1.6-0.5,2.1,0.1s0.5,1.6-0.1,2.1l-28.4,25.4c-0.8,0.7-1.4,1.6-1.5,2.7c0.7,0.4,1,1.3,0.6,2
			C593.7,37.5,593.2,37.9,592.6,37.9z"/>
		<path class="st0" d="M625.9,39c-0.3,0-0.7-0.1-0.9-0.3c-11.1-9-20.4-20-27.4-32.4c-0.4-0.7-0.2-1.6,0.6-2c0.7-0.4,1.6-0.2,2,0.6
			c6.9,12.1,15.9,22.8,26.7,31.5c0.6,0.5,0.7,1.5,0.2,2.1C626.7,38.8,626.3,39,625.9,39L625.9,39z"/>
		<path class="st0" d="M604.8,45h-0.2c-0.8-0.1-1.4-0.8-1.3-1.7c1.6-13.8,1.7-27.8,0.1-41.7c-0.1-0.8,0.5-1.6,1.3-1.7
			s1.6,0.5,1.7,1.3l0,0c1.6,14.1,1.6,28.3-0.1,42.3C606.2,44.4,605.6,45,604.8,45z"/>
		<path class="st0" d="M622.9,25.8h-0.2c-10.1-1.3-20.3-3.1-30.3-5.2c-0.8-0.1-1.4-0.9-1.3-1.7c0.1-0.8,0.9-1.4,1.7-1.3
			c0.1,0,0.1,0,0.2,0c9.9,2.1,20,3.8,30,5.1c0.8,0.1,1.5,0.8,1.4,1.6C624.4,25.2,623.6,25.9,622.9,25.8L622.9,25.8z"/>
	</g>
</g>
</svg>
