<?xml version="1.0" encoding="utf-8"?>
<!-- Generator: Adobe Illustrator 22.1.0, SVG Export Plug-In . SVG Version: 6.00 Build 0)  -->
<svg version="1.1" id="Layer_1" xmlns="http://www.w3.org/2000/svg" xmlns:xlink="http://www.w3.org/1999/xlink" x="0px" y="0px"
	 viewBox="0 0 669.5 459.1" style="enable-background:new 0 0 669.5 459.1;" xml:space="preserve">
<style type="text/css">
	.st0{fill:#FFFFFF;}
</style>
<title>Asset 500</title>
<g id="Layer_2_1_">
	<g id="Layer_1-2">
		<path class="st0" d="M620,407c-0.4,0-0.7-0.1-1-0.4c-12.5-11-24.2-21.8-36.7-33.3c-4.5-4.1-9-8.3-13.6-12.6
			c-0.7-0.5-0.8-1.4-0.3-2.1c0.5-0.7,1.4-0.8,2.1-0.3c0.1,0.1,0.2,0.1,0.3,0.2c4.6,4.2,9.2,8.4,13.7,12.6
			c12.4,11.5,24.2,22.3,36.6,33.3c0.6,0.5,0.7,1.5,0.2,2.1c0,0,0,0,0,0C620.8,406.8,620.4,407,620,407z"/>
		<path class="st0" d="M549.1,321.3c-0.8,0-1.4-0.6-1.5-1.4c-1-12.4-2-24.8-3-37.1c-1.9-23.4-3.8-47.5-5.5-71.3
			c-0.8-10.9-1.5-20.9-2.1-30.4c-0.1-0.8,0.6-1.5,1.4-1.6c0.8-0.1,1.5,0.6,1.6,1.4l0,0c0.6,9.6,1.3,19.5,2.1,30.4
			c1.7,23.8,3.7,47.9,5.5,71.3c1,12.4,2,24.8,3,37.1c0.1,0.8-0.5,1.6-1.4,1.6c0,0,0,0,0,0H549.1z"/>
		<path class="st0" d="M546.8,129.4c-0.3,0-0.6-0.1-0.8-0.2c-0.7-0.4-0.9-1.4-0.5-2.1c13.5-21.8,26.9-43.7,40.4-65.5
			c0.4-0.7,1.4-0.9,2.1-0.5s0.9,1.4,0.5,2.1c-13.5,21.9-27,43.7-40.4,65.5C547.8,129.2,547.3,129.4,546.8,129.4z"/>
		<path class="st0" d="M388.8,32.9h-3.2c-0.8,0-1.5-0.7-1.5-1.5s0.7-1.5,1.5-1.5l0,0c33.3,0,67-0.8,99.6-1.6
			c27.6-0.7,56.2-1.5,84.3-1.6l0,0c0.8,0,1.5,0.7,1.5,1.5s-0.7,1.5-1.5,1.5c-28.2,0.2-56.7,0.9-84.3,1.6
			C453.7,32,421,32.9,388.8,32.9z"/>
		<path class="st0" d="M103.7,209.9c-0.8,0-1.5-0.7-1.5-1.5c0-0.5,0.2-1,0.7-1.2c28.2-19.3,56.9-38.6,84.6-57.3
			C233,119.2,280,87.6,325.6,55.4c0.7-0.5,1.6-0.3,2.1,0.4c0.4,0.7,0.3,1.6-0.4,2c-45.7,32.2-92.7,63.9-138.2,94.5
			c-27.8,18.7-56.5,38-84.6,57.3C104.3,209.8,104,209.9,103.7,209.9z"/>
		<path class="st0" d="M31,387c-0.1,0-0.3,0-0.4-0.1c-0.8-0.2-1.2-1.1-1-1.9c3-9.9,6-19.9,9-29.9c9.9-33,20.2-67.1,30.8-100.4
			c0.3-0.8,1.1-1.2,1.9-1c0.8,0.3,1.2,1.1,1,1.9l0,0C61.6,288.9,51.4,323,41.5,356c-3,10-6,20-9,29.9C32.3,386.6,31.7,387,31,387z"
			/>
		<path class="st0" d="M70.5,253L70.5,253c-0.9,0-1.5-0.7-1.5-1.5c0,0,0,0,0,0c0.3-11.1,5.1-21.4,9.6-31.4
			c5.1-11.1,9.9-21.6,9.2-33.1c0-0.8,0.6-1.5,1.4-1.6c0.8,0,1.5,0.6,1.6,1.4c0.7,12.2-4.5,23.5-9.5,34.5c-4.4,9.7-9,19.8-9.4,30.3
			C72,252.4,71.3,253,70.5,253z"/>
		<path class="st0" d="M46.5,238.6c-0.8,0-1.5-0.7-1.5-1.5c0-0.6,0.4-1.2,0.9-1.4c14.4-5.9,28.3-12.8,41.6-20.8
			c1-0.7,2.3-1.1,3.5-1.1c1,0.1,2,0.7,2.5,1.6c0.4,0.7,0.5,1.6,0.1,2.4c-0.3,0.7-1.2,1.1-2,0.7c0,0,0,0,0,0c-0.7-0.3-1-1-0.8-1.7
			h-0.1c-0.6,0.1-1.2,0.3-1.7,0.7c-13.5,8-27.5,15.1-42,21C46.8,238.7,46.6,238.7,46.5,238.6z"/>
		<path class="st0" d="M99.3,253.5c-0.5,0-0.9-0.2-1.2-0.6c-12.1-15.2-23.7-31.1-34.7-47.1c-0.5-0.7-0.3-1.6,0.4-2.1
			c0.7-0.5,1.6-0.3,2.1,0.4l0,0c10.9,16,22.5,31.8,34.5,47c0.5,0.6,0.4,1.6-0.2,2.1C100,253.4,99.7,253.5,99.3,253.5z"/>
		<path class="st0" d="M61.3,242.4c-0.4,0-0.7-0.1-1-0.4c-0.6-0.5-0.7-1.5-0.2-2.1c9.9-11.6,21-22.1,33.1-31.4
			c0.7-0.5,1.6-0.4,2.1,0.3c0.5,0.7,0.4,1.6-0.3,2.1c-11.9,9.2-22.8,19.6-32.6,31C62.1,242.2,61.7,242.4,61.3,242.4z"/>
		<path class="st0" d="M17.3,441.8H17c-0.8-0.1-1.4-0.9-1.2-1.7c0,0,0,0,0,0c2.5-14.6,6.5-29,11.8-42.8c-0.3,0-0.6-0.1-0.8-0.3
			c-0.6-0.4-0.9-1.2-0.8-1.9c0.2-0.9,0.9-1.7,1.9-1.9c0.8-0.3,1.8,0,2.4,0.6c1.4,1.5,0.6,3.5,0.3,4.3c-5.3,13.8-9.2,28-11.8,42.5
			C18.6,441.3,18,441.8,17.3,441.8z"/>
		<path class="st0" d="M50.4,451.5c-0.4,0-0.7-0.1-1-0.3c-17.7-14.6-34.1-30.8-49-48.3c-0.6-0.6-0.6-1.5,0-2.1
			c0.6-0.6,1.5-0.6,2.1,0c0,0,0.1,0.1,0.1,0.1c14.8,17.4,31.1,33.4,48.7,48c0.6,0.5,0.7,1.5,0.2,2.1
			C51.2,451.4,50.8,451.6,50.4,451.5L50.4,451.5z"/>
		<path class="st0" d="M2.4,429.4c-0.8,0-1.5-0.7-1.5-1.5c0-0.6,0.4-1.2,0.9-1.4l37.6-15.4c0.7-0.4,1.6-0.1,2,0.7
			c0.4,0.7,0.1,1.6-0.7,2c-0.1,0-0.1,0.1-0.2,0.1L3,429.3C2.8,429.3,2.6,429.4,2.4,429.4z"/>
		<path class="st0" d="M25.8,447.1c-0.6,0-1.2-0.4-1.4-1c-6.4-17.3-11-35.3-13.9-53.5c-0.1-0.8,0.4-1.6,1.3-1.7
			c0.8-0.1,1.6,0.4,1.7,1.3c2.8,18.1,7.4,35.8,13.8,53c0.3,0.8-0.1,1.7-0.9,1.9C26.1,447,26,447.1,25.8,447.1z"/>
		<path class="st0" d="M373.1,33.4h-0.2l-63.2-6.8c-0.8-0.1-1.4-0.8-1.3-1.7s0.8-1.4,1.7-1.3l3.1,0.3h0.1l60,6.4
			c0.8,0,1.5,0.7,1.4,1.6C374.7,32.8,373.9,33.5,373.1,33.4L373.1,33.4z"/>
		<path class="st0" d="M329.2,54.2c-0.5,0-0.9-0.2-1.2-0.6c-0.5-0.7-0.4-1.6,0.2-2.1c18.2-14.5,36.2-29.8,53.3-45.6
			c0.5-0.6,1.5-0.7,2.1-0.2c0.6,0.5,0.7,1.5,0.2,2.1c-0.1,0.1-0.2,0.2-0.3,0.3c-17.2,15.8-35.1,31.2-53.4,45.7
			C329.8,54,329.5,54.2,329.2,54.2z"/>
		<path class="st0" d="M355,59c-0.8,0-1.5-0.7-1.5-1.5c0-8-1-20.5-1.8-31.4c-0.6-8.4-1.2-15.6-1.2-18.6c0-0.8,0.7-1.5,1.5-1.5
			c0.8,0,1.5,0.7,1.5,1.5c-0.1,2.9,0.5,10.1,1.1,18.3c0.9,11,1.9,23.5,1.9,31.6C356.5,58.3,355.8,59,355,59z"/>
		<path class="st0" d="M332.1,43.3c-0.8,0-1.5-0.7-1.5-1.5c0-0.7,0.4-1.2,1-1.4l33-11c0.8-0.3,1.6,0.2,1.9,0.9
			c0.3,0.8-0.2,1.6-0.9,1.9l0,0l-33,11C332.4,43.2,332.3,43.3,332.1,43.3z"/>
		<path class="st0" d="M588.2,59.3c-0.8,0-1.5-0.7-1.5-1.5c0-0.3,0.1-0.7,0.3-0.9L619.3,16c3.7-4.6,7.5-9.4,9.5-15
			c0.3-0.8,1.2-1.1,2-0.8c0.7,0.3,1,1.1,0.8,1.8c-2.2,6-6.3,11.3-9.9,15.9l-32.3,40.9C589.1,59.1,588.6,59.3,588.2,59.3z"/>
		<path class="st0" d="M587.3,32.2c-1.8,0-4.1-0.9-4.9-2.5c-0.5-1-0.3-2.1,0.4-2.9c0.5-0.6,1.5-0.7,2.1-0.2c0.6,0.5,0.7,1.3,0.3,1.9
			c0.7,0.5,1.4,0.7,2.2,0.7c19-1,37.9-3.7,56.4-7.9c0.8-0.2,1.6,0.3,1.8,1.1s-0.3,1.6-1.1,1.8l0,0c-18.7,4.3-37.8,6.9-56.9,8
			L587.3,32.2z"/>
		<path class="st0" d="M629,63.4c-0.5,0-0.9-0.2-1.2-0.6C615.4,47,605,29.8,596.6,11.5c-0.2,0-0.4,0-0.6-0.1
			c-0.8-0.4-1.3-1.2-1.2-2.1c0.1-0.8,0.7-1.5,1.5-1.6c0.5-0.1,1.8-0.1,2.7,1.8c8.3,18.3,18.8,35.6,31.2,51.5
			c0.5,0.6,0.4,1.6-0.2,2.1C629.7,63.3,629.3,63.4,629,63.4z"/>
		<path class="st0" d="M588.3,42.4c-0.4,0-0.8-0.2-1.1-0.5c-0.6-0.6-0.5-1.5,0.1-2.1c0,0,0,0,0,0c7.1-6.6,15.7-11.6,24-16.4
			c9.7-5.6,19.7-11.4,27-19.7c0.6-0.6,1.5-0.7,2.1-0.1s0.7,1.5,0.1,2.1c-7.7,8.7-17.9,14.6-27.8,20.3c-8.2,4.7-16.6,9.6-23.5,16
			C589,42.2,588.7,42.4,588.3,42.4z"/>
		<path class="st0" d="M511.9,185.3c-0.4,0-0.8-0.2-1.1-0.5c-1.8-2.2-1.7-5.3,0.3-7.4c0.6-0.6,1.5-0.6,2.1,0c0,0,0,0,0,0
			c0.2,0.2,0.4,0.6,0.4,0.9c9.6-15.2,18.4-30.9,26.2-47c0.4-0.7,1.3-1.1,2-0.7s1.1,1.3,0.7,2c-8.7,17.9-18.5,35.3-29.4,52
			c-0.3,0.4-0.7,0.6-1.1,0.7L511.9,185.3z"/>
		<path class="st0" d="M534.7,175.1c-0.6,0-1.1-0.3-1.3-0.8c-8.4-16.8-15.6-34.2-21.6-52.1c-0.3-0.8,0.1-1.6,0.9-1.9
			c0.8-0.3,1.6,0.1,1.9,0.9l0,0c5.9,17.7,13.1,35,21.4,51.8c0.4,0.7,0.1,1.6-0.7,2C535.1,175.1,534.9,175.1,534.7,175.1z"/>
		<path class="st0" d="M505,161.5c-0.8,0.1-1.5-0.6-1.6-1.4s0.6-1.5,1.4-1.6l51-6.7c0.8-0.1,1.6,0.5,1.7,1.3s-0.5,1.6-1.3,1.7
			l-51,6.7H505z"/>
		<path class="st0" d="M551.6,389c-0.8,0-1.4-0.6-1.5-1.4c-1.8-20.9-3.3-42.1-4.5-63.1c0-0.8,0.6-1.5,1.4-1.6c0.8,0,1.5,0.6,1.6,1.4
			c1.1,20.9,2.6,42.1,4.5,63c0.1,0.8-0.5,1.5-1.3,1.6c0,0,0,0,0,0H551.6z"/>
		<path class="st0" d="M560.5,355.5c-0.4,0-0.8-0.2-1.1-0.4c-13.4-13.2-27.6-25.5-42.5-37c-0.3,0-0.7-0.2-0.9-0.4l-2-1.8
			c-0.6-0.6-0.6-1.5-0.1-2.1c0.5-0.6,1.4-0.6,2-0.2c16,12.2,31.3,25.4,45.6,39.5c0.6,0.6,0.6,1.5,0,2.1
			C561.2,355.3,560.9,355.5,560.5,355.5z"/>
		<path class="st0" d="M522.8,360.6c-0.8,0-1.5-0.7-1.5-1.5c0-0.6,0.3-1.1,0.8-1.3c16.7-8.8,31.4-21,43.1-35.8
			c1-1.5,2.3-2.7,3.9-3.5c0.5-0.2,1.1-0.4,1.7-0.6c0.8-0.2,1.6-0.5,2.3-0.9c-0.2-0.8,0.2-1.6,1-1.8c0.8-0.3,1.6,0.2,1.9,0.9
			c0,0,0,0,0,0c0.3,0.7,0.2,1.5-0.2,2.2c-0.7,1.4-2.5,1.9-4.1,2.5c-0.5,0.2-1,0.3-1.4,0.5c-1.1,0.6-2,1.5-2.7,2.5
			c-12,15.2-27,27.7-44.1,36.7C523.3,360.5,523.1,360.6,522.8,360.6z"/>
		<path class="st0" d="M530.8,346.7c-4,0-8-0.3-12-0.9c-0.8-0.1-1.4-0.9-1.2-1.8s0.9-1.4,1.8-1.2c9.4,1.6,19.1,0.7,28.4-0.1
			l38.2-3.5c0.8-0.1,1.6,0.5,1.6,1.4s-0.5,1.6-1.4,1.6l0,0l-38.1,3.5C542.3,346.1,536.5,346.7,530.8,346.7z"/>
		<path class="st0" d="M658.6,441.4c-0.4,0-0.7-0.2-1-0.4l-34.3-32.7c-0.6-0.6-0.6-1.5,0-2.1c0.6-0.6,1.5-0.6,2.1,0l34.3,32.7
			c0.6,0.6,0.6,1.5,0.1,2.1C659.5,441.2,659.1,441.4,658.6,441.4L658.6,441.4z"/>
		<path class="st0" d="M628.8,443.8c-0.3,0-0.5-0.1-0.7-0.2c-0.7-0.4-0.9-1.3-0.6-2c7.7-13.5,16.2-26.5,25.5-38.9
			c0.5-0.7,1.4-0.8,2.1-0.3c0.7,0.5,0.8,1.4,0.3,2.1c-9.3,12.3-17.7,25.2-25.4,38.5C629.8,443.5,629.3,443.8,628.8,443.8z"/>
		<path class="st0" d="M647.4,428.7c-10.2,0-20.4-0.4-30.5-1.3c-0.8-0.1-1.4-0.8-1.4-1.6c0.1-0.8,0.8-1.4,1.6-1.4
			c16.9,1.4,33.9,1.7,50.8,0.7c0.8-0.1,1.5,0.5,1.6,1.4c0,0,0,0,0,0c0,0.8-0.6,1.5-1.4,1.6c0,0,0,0,0,0
			C661.2,428.5,654.3,428.7,647.4,428.7z"/>
		<path class="st0" d="M640.2,459.1c-0.7,0-1.4-0.5-1.5-1.3c-2.8-18.7-3.5-37.6-2-56.4c0.1-0.8,0.8-1.4,1.6-1.4s1.4,0.8,1.4,1.6
			c-1.5,18.6-0.8,37.3,2,55.8c0.1,0.8-0.4,1.6-1.3,1.7L640.2,459.1z"/>
	</g>
</g>
</svg>
