<?xml version="1.0" encoding="utf-8"?>
<!-- Generator: Adobe Illustrator 22.1.0, SVG Export Plug-In . SVG Version: 6.00 Build 0)  -->
<svg version="1.1" id="Layer_1" xmlns="http://www.w3.org/2000/svg" xmlns:xlink="http://www.w3.org/1999/xlink" x="0px" y="0px"
	 viewBox="0 0 772.5 417.9" style="enable-background:new 0 0 772.5 417.9;" xml:space="preserve">
<style type="text/css">
	.st0{fill:#FFFFFF;}
</style>
<title>Asset 501</title>
<g id="Layer_2_1_">
	<g id="Layer_1-2">
		<path class="st0" d="M379.1,84.2c-0.8,0-1.5-0.6-1.5-1.4c-0.2-4.4-0.2-8.5-0.2-12.4c0-0.8,0.7-1.5,1.5-1.5s1.5,0.7,1.5,1.5
			c0,3.9,0,8,0.2,12.3C380.6,83.5,380,84.2,379.1,84.2L379.1,84.2z"/>
		<path class="st0" d="M384.8,370.9c-0.8,0-1.5-0.7-1.5-1.5c-1-63.9-2-130-3.9-195.3c0-0.8,0.6-1.5,1.5-1.5c0.8,0,1.5,0.6,1.5,1.5
			c1.9,65.4,2.9,131.5,3.9,195.4C386.4,370.2,385.7,370.9,384.8,370.9C384.9,370.9,384.9,370.9,384.8,370.9L384.8,370.9z"/>
		<path class="st0" d="M220.8,253.9c-0.8,0-1.5-0.7-1.5-1.5c0-0.6,0.3-1.1,0.8-1.3c4.9-2.5,8.8-5.8,12.9-9.4
			c2.4-2.1,4.9-4.3,7.9-6.5l5.8-4.2c8.8-6.4,17.1-12.4,26.1-19.8c29.6-21.4,56.9-41.7,83.5-61.9c0.7-0.5,1.6-0.4,2.1,0.3
			c0.5,0.7,0.4,1.6-0.3,2.1c-26.6,20.3-54,40.5-83.5,61.9c-9,7.4-17.4,13.4-26.2,19.8l-5.8,4.2c-2.8,2.1-5.3,4.3-7.7,6.3
			c-4.2,3.7-8.3,7.2-13.5,9.8C221.3,253.8,221.1,253.9,220.8,253.9z"/>
		<path class="st0" d="M556.8,160.9c-0.2,0-0.3,0-0.5-0.1c-4.8-1.6-10-3.1-15-4.6c-7.4-2.1-15-4.4-22.4-7.1
			c-0.8-0.3-1.2-1.2-0.9-1.9s1.2-1.2,1.9-0.9c7.2,2.8,14.8,5,22.1,7.1c5,1.4,10.2,2.9,15.1,4.6c0.8,0.3,1.2,1.1,0.9,1.9
			C558,160.5,557.4,160.9,556.8,160.9L556.8,160.9z"/>
		<path class="st0" d="M462.2,131.2c-0.2,0-0.3,0-0.5-0.1c-23-7.3-45.4-14.3-64.2-20.2c-0.8-0.3-1.2-1.2-0.9-1.9
			c0.3-0.7,1-1.1,1.8-0.9c18.9,5.9,41.3,12.9,64.3,20.2c0.8,0.3,1.2,1.1,0.9,1.9C463.4,130.8,462.8,131.2,462.2,131.2L462.2,131.2z"
			/>
		<path class="st0" d="M41.8,145.9c-0.8,0.1-1.6-0.5-1.6-1.4s0.5-1.6,1.4-1.6l327-66c0.8-0.1,1.6,0.4,1.7,1.2
			c0.1,0.8-0.4,1.5-1.1,1.7l-327,66L41.8,145.9z"/>
		<path class="st0" d="M520.1,130.3c-0.8,0-1.5-0.7-1.5-1.5c0-0.6,0.3-1.1,0.9-1.4c27.6-12.8,56-25.8,83.4-38.3
			C642.7,70.8,684,52,724.2,33c0.7-0.4,1.6-0.1,2,0.6s0.1,1.6-0.6,2c-0.1,0-0.1,0.1-0.2,0.1c-40.3,19-81.5,37.9-121.4,56.1
			c-27.4,12.6-55.8,25.5-83.4,38.3C520.5,130.3,520.3,130.3,520.1,130.3z"/>
		<path class="st0" d="M377.5,154.9c-0.8,0-1.5-0.7-1.5-1.5l-0.3-40c0-0.8,0.7-1.5,1.5-1.5c0,0,0,0,0,0l0,0c0.8,0,1.5,0.7,1.5,1.5
			l0.3,40C379,154.2,378.3,154.9,377.5,154.9C377.5,154.9,377.5,154.9,377.5,154.9L377.5,154.9z"/>
		<path class="st0" d="M363,146.3c-0.8,0-1.5-0.7-1.5-1.5c0-0.6,0.3-1.1,0.8-1.3c9.6-5.2,18.7-11.5,26.8-18.8
			c0.6-0.6,1.6-0.5,2.1,0.1c0.6,0.6,0.5,1.6-0.1,2.1c-8.4,7.4-17.6,13.9-27.4,19.2C363.6,146.2,363.3,146.3,363,146.3z"/>
		<path class="st0" d="M400.1,157.5c-0.3,0-0.6-0.1-0.8-0.2c-13.9-9.2-26.7-20.1-38.1-32.3c-0.6-0.6-0.6-1.5,0-2.1
			c0.6-0.6,1.5-0.6,2.1,0c0,0,0,0,0,0c11.2,12,23.9,22.7,37.6,31.8c0.7,0.5,0.9,1.4,0.4,2.1C401,157.3,400.6,157.5,400.1,157.5z"/>
		<path class="st0" d="M365.7,153.8c-0.3,0-0.5-0.1-0.7-0.2c-0.7-0.4-1-1.3-0.6-2c5.4-9.8,11.6-19.2,18.3-28.1
			c0.5-0.7,1.4-0.8,2.1-0.3c0.7,0.5,0.8,1.4,0.3,2.1l0,0c-6.7,8.8-12.7,18-18.1,27.6C366.7,153.5,366.2,153.8,365.7,153.8z"/>
		<path class="st0" d="M376.6,107.9h-0.1c-0.8-0.1-1.4-0.8-1.3-1.6c1.9-19.1,3.3-38.6,4.1-57.8c0-0.8,0.7-1.5,1.5-1.4
			c0,0,0.1,0,0.1,0c0.8,0,1.5,0.7,1.4,1.5c0,0,0,0,0,0c-0.8,19.3-2.2,38.8-4.1,58C378,107.3,377.4,107.9,376.6,107.9z"/>
		<path class="st0" d="M354.7,90.8c-0.2,0-0.4-0.1-0.6-0.1c-0.8-0.3-1.1-1.2-0.7-2c0,0,0,0,0,0c1-2.1,3.1-3.5,5.4-3.7
			c0.8-0.1,1.5,0.6,1.6,1.4c0,0,0,0,0,0c0,0.8-0.6,1.5-1.4,1.6c0,0,0,0,0,0c-1.2,0.1-2.3,0.8-2.9,2
			C355.8,90.5,355.3,90.8,354.7,90.8z"/>
		<path class="st0" d="M370.4,80c-0.8,0.1-1.5-0.6-1.6-1.4c-0.1-0.8,0.6-1.5,1.4-1.6l5-0.8c12.9-2,27.5-4.2,39-11.8
			c0.7-0.5,1.6-0.3,2.1,0.4c0.5,0.7,0.3,1.6-0.4,2.1c-12.1,8-27,10.3-40.2,12.3l-5,0.8L370.4,80z"/>
		<path class="st0" d="M401.1,98.4c-0.3,0-0.5-0.1-0.7-0.2c-13.2-7.5-24.1-18.5-31.3-31.9c-0.4-0.7-0.2-1.6,0.5-2.1
			c0.7-0.4,1.6-0.2,2.1,0.5c0,0.1,0.1,0.1,0.1,0.2c6.9,12.9,17.4,23.5,30.1,30.7c0.7,0.4,1,1.3,0.6,2
			C402.1,98.2,401.6,98.4,401.1,98.4L401.1,98.4z"/>
		<path class="st0" d="M364.7,95.8c-0.2,0-0.4,0-0.5-0.1c-0.9-0.3-1.6-1.1-1.8-2c-0.4-1.7,0.5-3.8,1.6-5.1
			c8.7-10.3,18.5-19.8,29.1-28.2l0.2-0.1c4.1-3.2,8.3-6.5,9.3-11.2c0.2-0.8,1-1.3,1.8-1.1c0,0,0,0,0,0c0.8,0.2,1.3,1,1.1,1.8
			c-1.2,5.7-6.1,9.5-10.4,12.9l-0.2,0.1c-10.5,8.3-20.1,17.5-28.7,27.7c-0.6,0.7-1,1.5-1,2.4c0.8,0.3,1.2,1.1,0.9,1.9c0,0,0,0,0,0
			C365.9,95.4,365.3,95.8,364.7,95.8z"/>
		<path class="st0" d="M462.9,154c-0.8,0-1.5-0.7-1.5-1.5c0-0.6,0.3-1.1,0.8-1.3c16.8-8.1,33.9-15.8,51.1-23c0.8-0.3,1.6,0,2,0.8
			c0.3,0.8,0,1.6-0.8,2c-17.1,7.2-34.2,14.9-50.9,23C463.4,154,463.1,154,462.9,154z"/>
		<path class="st0" d="M508.2,146.6c-0.2,0-0.5-0.1-0.7-0.2c-6.3-3.3-13.5-4.8-20.4-6.3s-13.9-2.9-20.3-6.1c-0.7-0.4-1.1-1.3-0.7-2
			c0.4-0.7,1.3-1.1,2-0.7c6.1,3,13,4.4,19.6,5.8c7.1,1.5,14.5,3.1,21.2,6.5c0.7,0.4,1,1.3,0.6,2
			C509.3,146.3,508.8,146.6,508.2,146.6z"/>
		<path class="st0" d="M488.7,164.9L488.7,164.9c-0.8,0-1.5-0.7-1.5-1.5c0,0,0,0,0,0l1-57c0-0.8,0.7-1.5,1.5-1.5s1.5,0.7,1.5,1.5
			l-1,57C490.2,164.2,489.6,164.9,488.7,164.9C488.7,164.9,488.7,164.9,488.7,164.9z"/>
		<path class="st0" d="M512.8,140.4L512.8,140.4l-41-0.7c-0.8,0-1.5-0.7-1.5-1.5c0,0,0,0,0,0c0-0.8,0.7-1.5,1.5-1.5l41,0.7
			c0.8,0,1.5,0.7,1.5,1.5c0,0,0,0,0,0C514.3,139.8,513.7,140.4,512.8,140.4z"/>
		<path class="st0" d="M730.8,35c-0.6,0-1.2-0.4-1.4-1c-0.5-1.1-0.4-2.4,0.2-3.4c1.4-2.7,5.5-4,6.7-4.2c7.8-2,15.2-5.4,21.8-10.1
			c0.7-0.5,1.6-0.3,2.1,0.3c0.5,0.7,0.3,1.6-0.3,2.1c0,0,0,0,0,0c-6.9,4.9-14.6,8.5-22.8,10.6c-2.3,0.6-4.2,1.7-4.7,2.7
			c-0.1,0.3-0.1,0.6,0,1c0.3,0.8-0.1,1.6-0.8,1.9c0,0,0,0,0,0C731.2,35,731,35,730.8,35z"/>
		<path class="st0" d="M765.9,50.8c-0.5,0-1-0.3-1.3-0.7c-9-15.2-19.1-29.6-30.4-43.2c-0.6-0.6-0.6-1.5-0.1-2.1s1.5-0.6,2.1-0.1
			c0.1,0.1,0.2,0.2,0.3,0.3c11.4,13.7,21.6,28.3,30.6,43.6c0.4,0.7,0.2,1.6-0.5,2c0,0,0,0,0,0C766.4,50.8,766.2,50.9,765.9,50.8z"/>
		<path class="st0" d="M745.3,37.8c-0.1,0-0.2,0-0.3,0c-0.8-0.2-1.3-1-1.2-1.8c0,0,0,0,0,0c2.5-11.7,5.5-23.4,8.9-34.9
			c0.2-0.8,1-1.3,1.8-1.1s1.3,1,1.1,1.8c0,0,0,0.1,0,0.1c-3.4,11.4-6.3,23.1-8.8,34.7C746.7,37.3,746.1,37.8,745.3,37.8z"/>
		<path class="st0" d="M771,39.7c-0.3,0-0.6-0.1-0.8-0.3c-11-7.6-21.9-15.5-32.5-23.4c-0.7-0.5-0.8-1.4-0.3-2.1c0,0,0,0,0,0
			c0.5-0.7,1.4-0.8,2.1-0.3c10.6,8,21.5,15.8,32.4,23.4c0.7,0.5,0.9,1.4,0.4,2.1C772,39.5,771.5,39.7,771,39.7L771,39.7z"/>
		<path class="st0" d="M378.2,416.4L378.2,416.4c-1.3,0-2.4-0.8-2.8-1.9c-0.4-1.3-0.2-2.8,0.5-4c4.4-10.3,7.2-21.3,8.3-32.5
			c-0.1,0-0.2,0-0.3-0.1c-0.8-0.3-1.2-1.1-0.9-1.9l1.8-4.9c0.2-0.7,1-1.1,1.7-1c0.7,0.1,1.2,0.8,1.2,1.5c-0.5,13.8-3.6,27.3-9,40
			c-0.2,0.5-0.4,1-0.5,1.5c0.4-0.4,1-0.4,1.5-0.2c0.8,0.3,1.1,1.2,0.8,2c0,0,0,0,0,0C380,415.9,379.1,416.4,378.2,416.4z"/>
		<path class="st0" d="M365.4,407.3c-0.3,0-0.6-0.1-0.8-0.2c-0.7-0.5-0.9-1.4-0.4-2.1c3.4-5.1,8.7-7.9,13.9-10.6
			c2.2-1.1,4.4-2.3,6.4-3.6c6.2-4.1,11.1-9.9,14-16.7c0.3-0.8,1.2-1.1,1.9-0.8c0,0,0,0,0.1,0c0.8,0.3,1.1,1.2,0.8,2c0,0,0,0,0,0
			c-3.2,7.4-8.4,13.6-15.1,18c-2.1,1.4-4.4,2.6-6.6,3.8c-5.1,2.7-9.9,5.2-12.8,9.6C366.4,407.1,365.9,407.3,365.4,407.3z"/>
		<path class="st0" d="M402.8,417.9c-0.3,0-0.6-0.1-0.9-0.3c-13.8-10.3-27.4-21.4-40.3-32.9c-0.6-0.6-0.7-1.5-0.1-2.1
			s1.5-0.7,2.1-0.1l0,0c12.8,11.4,26.3,22.5,40.1,32.7c0.7,0.5,0.8,1.4,0.3,2.1C403.8,417.7,403.3,417.9,402.8,417.9L402.8,417.9z"
			/>
		<path class="st0" d="M166.4,292.6c-0.8,0-1.5-0.7-1.5-1.5c0-0.5,0.3-1,0.7-1.3c15.1-9.9,29.6-20.8,43.4-32.4
			c0.6-0.5,1.6-0.5,2.1,0.2s0.5,1.6-0.2,2.1l0,0c-12.7,10.6-25.9,20.6-39.6,29.9c-0.1,0.5-0.4,0.9-0.8,1.1l-3.4,1.7
			C166.8,292.5,166.6,292.6,166.4,292.6z"/>
		<path class="st0" d="M208.1,299.7c-0.5,0-0.9-0.2-1.2-0.6c-10.6-13.6-22.1-26.4-34.4-38.4c-0.6-0.6-0.7-1.5-0.1-2.1
			c0.6-0.6,1.5-0.7,2.1-0.1c0,0,0,0,0.1,0.1c12.4,12.1,23.9,25.1,34.6,38.7c0.5,0.6,0.4,1.6-0.2,2.1
			C208.8,299.6,208.4,299.7,208.1,299.7L208.1,299.7z"/>
		<path class="st0" d="M190.8,292.9c-0.8,0-1.5-0.7-1.5-1.5v-35c0-0.8,0.7-1.5,1.5-1.5s1.5,0.7,1.5,1.5v35
			C192.3,292.2,191.7,292.9,190.8,292.9z"/>
		<path class="st0" d="M218.8,284.9h-0.1c-11-1-22-2.6-32.8-4.9l-2.2-0.5c-5.5-1.2-11.2-2.4-16.8-2.2c-0.8,0-1.5-0.6-1.5-1.4
			c0,0,0,0,0-0.1c0-0.8,0.6-1.5,1.5-1.5c0,0,0,0,0,0c6-0.2,11.9,1.1,17.5,2.3l2.2,0.5c10.7,2.3,21.5,3.9,32.4,4.8
			c0.8,0,1.5,0.7,1.4,1.6S219.6,284.9,218.8,284.9L218.8,284.9L218.8,284.9z"/>
		<path class="st0" d="M1.9,150.2c-0.8,0-1.5-0.6-1.6-1.4s0.6-1.5,1.4-1.6l27-3.3c0.8-0.1,1.6,0.5,1.7,1.3c0.1,0.8-0.5,1.6-1.3,1.7
			l-27,3.3L1.9,150.2z"/>
		<path class="st0" d="M18.3,166.7c-0.6,0-1.2-0.4-1.4-0.9c-4.6-11.3-7.5-23.1-8.6-35.2c-0.1-0.8,0.5-1.6,1.4-1.6s1.6,0.5,1.6,1.4
			c1.1,11.8,3.9,23.4,8.3,34.4c0.3,0.8,0,1.6-0.8,2c0,0,0,0-0.1,0C18.7,166.7,18.5,166.7,18.3,166.7z"/>
		<path class="st0" d="M4,162.1c-0.8,0-1.5-0.6-1.5-1.4c0-0.5,0.2-0.9,0.5-1.2c9.1-7.4,16.2-17.2,20.3-28.2c0.3-0.8,1.2-1.2,1.9-0.9
			c0.8,0.3,1.2,1.2,0.9,1.9l0,0c-4.4,11.5-11.7,21.7-21.2,29.5C4.7,161.9,4.3,162.1,4,162.1z"/>
		<path class="st0" d="M33.1,166.6c-0.4,0-0.7-0.1-1-0.4L0.5,138.9c-0.6-0.5-0.7-1.5-0.2-2.1c0,0,0,0,0,0c0.5-0.6,1.5-0.7,2.1-0.2
			c0,0,0,0,0,0L34.1,164c0.6,0.5,0.7,1.5,0.1,2.1C33.9,166.4,33.5,166.6,33.1,166.6L33.1,166.6z"/>
	</g>
</g>
</svg>
