<?xml version="1.0" encoding="utf-8"?>
<!-- Generator: Adobe Illustrator 22.1.0, SVG Export Plug-In . SVG Version: 6.00 Build 0)  -->
<svg version="1.1" id="Layer_1" xmlns="http://www.w3.org/2000/svg" xmlns:xlink="http://www.w3.org/1999/xlink" x="0px" y="0px"
	 viewBox="0 0 752 470" style="enable-background:new 0 0 752 470;" xml:space="preserve">
<style type="text/css">
	.st0{fill:#FFFFFF;}
</style>
<title>Asset 502</title>
<g id="Layer_2_1_">
	<g id="Layer_1-2">
		<path class="st0" d="M23.6,416.8c-0.8,0-1.5-0.7-1.5-1.6c0-0.1,0-0.2,0-0.3l37-152c0.2-0.8,1-1.3,1.8-1.1c0.8,0.2,1.3,1,1.1,1.8
			l-37,152C24.9,416.3,24.3,416.8,23.6,416.8z"/>
		<path class="st0" d="M81.6,237.8c-0.8,0-1.5-0.7-1.5-1.5c0-0.5,0.3-1,0.7-1.3c3.7-2.4,7.1-5,10.8-7.7c5.2-4,10.6-7.8,16.2-11.3
			c29.9-22.3,59.1-43.6,87.3-64.1c27.1-19.8,55.2-40.2,83-60.9c0.7-0.5,1.6-0.4,2.1,0.3c0.5,0.7,0.4,1.6-0.3,2.1
			c-27.8,20.7-55.9,41.2-83,60.9c-28.2,20.6-57.4,41.8-87.4,64.1l-0.1,0.1c-5.5,3.4-10.9,7.2-16,11.1c-3.5,2.6-7.2,5.3-10.9,7.8
			C82.3,237.7,81.9,237.8,81.6,237.8z"/>
		<path class="st0" d="M497,80.2L497,80.2c-25.2-0.2-50.5-0.9-75-1.6c-30.2-0.9-61.4-1.7-92.4-1.7l0,0c-0.8,0-1.5-0.7-1.5-1.5
			s0.7-1.5,1.5-1.5c31.1-0.1,62.3,0.8,92.5,1.7c24.5,0.7,49.8,1.4,74.9,1.6c0.8,0,1.5,0.7,1.5,1.5S497.9,80.2,497,80.2L497,80.2
			L497,80.2z"/>
		<path class="st0" d="M630.6,252.8c-0.6,0-1.2-0.4-1.4-1c-1.3-3.9-4-7.4-6.8-11.1c-1.4-1.8-2.8-3.6-4.1-5.6c0,0-0.1-0.1-0.1-0.1
			c-8.1-15.2-17.5-29.7-26.4-43.3c-0.5-0.7-0.3-1.6,0.4-2.1s1.6-0.3,2.1,0.4c8.9,13.6,18.3,28.1,26.5,43.4c1.2,1.9,2.6,3.6,3.9,5.4
			c3,3.9,5.8,7.6,7.2,11.9c0.3,0.8-0.1,1.6-0.9,1.9C630.9,252.8,630.8,252.8,630.6,252.8L630.6,252.8z"/>
		<path class="st0" d="M570,155.1c-0.5,0-1-0.3-1.3-0.7c-12.3-20.5-24.7-40.4-34.2-55.5c-0.5-0.7-0.3-1.6,0.4-2.1
			c0.7-0.5,1.6-0.3,2.1,0.4c0,0,0.1,0.1,0.1,0.1c9.4,15.1,21.9,35,34.2,55.5c0.4,0.7,0.2,1.6-0.5,2c0,0,0,0,0,0
			C570.5,155,570.3,155.1,570,155.1z"/>
		<path class="st0" d="M602.3,158.2c-0.4,0-0.7-0.2-1-0.4c-0.6-0.6-0.6-1.5-0.1-2.1l10.1-10.6c35.2-37.1,71.6-75.4,107.3-113.8
			c0.6-0.5,1.6-0.5,2.1,0.2c0.4,0.5,0.5,1.3,0.1,1.8C685,71.7,648.6,110,613.4,147.1l-10.1,10.6C603.1,158,602.7,158.2,602.3,158.2z
			"/>
		<path class="st0" d="M63,258.6c-0.2,0-0.4,0-0.5-0.1c-3.3-1.3-3.5-5.3-2.6-8.7c1.1-3.9,2.5-7.8,4-11.6l9.3-23.7
			c0.3-0.8,1.2-1.2,2-0.8c0.8,0.3,1.2,1.2,0.8,1.9l0,0l-9.3,23.7c-1.6,3.7-2.9,7.4-4,11.3c-0.6,2.1-0.5,4.6,0.8,5.1
			c0.8,0.3,1.2,1.2,0.9,1.9C64.1,258.2,63.5,258.6,63,258.6L63,258.6z"/>
		<path class="st0" d="M84.4,270.9c-0.4,0-0.9-0.2-1.2-0.5c-11.1-13.3-21.9-27.1-32.1-41.1c-0.5-0.7-0.4-1.6,0.3-2.1
			c0.7-0.5,1.6-0.4,2.1,0.3c0,0,0,0.1,0.1,0.1c10.2,13.9,20.9,27.7,32,40.9c0.5,0.6,0.5,1.6-0.2,2.1c0,0,0,0,0,0
			C85.1,270.8,84.8,270.9,84.4,270.9z"/>
		<path class="st0" d="M42.7,251c-0.8,0-1.5-0.7-1.5-1.5c0-0.6,0.3-1.1,0.8-1.3L63.3,237c3.8-2,6.8-1.9,8.5,0.2
			c0.6,0.6,0.5,1.6-0.1,2.1c-0.6,0.6-1.6,0.5-2.1-0.1c0-0.1-0.1-0.1-0.1-0.2c-1-1.2-3.9,0.1-4.8,0.6l-21.3,11.2
			C43.1,250.9,42.9,251,42.7,251z"/>
		<path class="st0" d="M67.5,265.8c-0.7,0-1.3-0.5-1.5-1.2c-3.5-16.9-4.8-34.1-4-51.4c0-0.8,0.7-1.5,1.6-1.4c0.8,0,1.5,0.7,1.4,1.5
			c0,0,0,0,0,0c-0.8,17,0.5,34,4,50.6c0.2,0.8-0.4,1.6-1.2,1.8C67.7,265.8,67.6,265.8,67.5,265.8z"/>
		<path class="st0" d="M282,90.4c-0.8,0-1.5-0.7-1.5-1.5c0-0.5,0.3-1,0.8-1.3c15.1-8.3,29.4-18.1,42.7-29.2c0.6-0.5,1.6-0.4,2.1,0.2
			c0.5,0.6,0.4,1.6-0.2,2.1c-13.4,11.2-27.9,21-43.2,29.5C282.5,90.3,282.2,90.4,282,90.4z"/>
		<path class="st0" d="M314.6,78.1h-0.2l-49.6-7.3c-0.2,0-0.5-0.1-0.7-0.1c-0.8-0.2-1.3-1-1.1-1.8c0.2-0.8,1-1.3,1.8-1.1
			c0.1,0,0.2,0,0.3,0.1l49.6,7.3c0.8,0.1,1.5,0.8,1.4,1.6C316.2,77.6,315.5,78.2,314.6,78.1L314.6,78.1z"/>
		<path class="st0" d="M302.6,99.8c-0.8,0-1.5-0.7-1.5-1.5c-0.3-17,0-34.2,1-51.1c0-0.8,0.7-1.5,1.6-1.4c0,0,0,0,0,0
			c0.8,0.1,1.5,0.8,1.4,1.6c-1,16.9-1.4,34-1,50.9C304.1,99,303.5,99.7,302.6,99.8C302.6,99.7,302.6,99.7,302.6,99.8L302.6,99.8z"/>
		<path class="st0" d="M289,81.9c-1.7,0-3.5-0.1-5.2-0.2c-1.6-0.2-2.9-1.5-3.1-3.1c0-1,0.9-1.9,1.9-1.8c0.8,0,1.5,0.6,1.5,1.4
			c0,0,0,0,0,0c0,0.2,0,0.3-0.1,0.5c11.3,0.8,22.5-1.2,32.8-5.9c0.8-0.3,1.7,0,2,0.7c0.4,0.7,0,1.6-0.7,2c0,0,0,0,0,0
			C309,79.7,299.1,81.9,289,81.9z"/>
		<path class="st0" d="M532,95.6c-0.6,0-1.1-0.3-1.3-0.8C522,78.6,511.9,63.3,500.4,49c-1.5-1.9-0.7-3.2-0.4-3.6
			c0.6-0.7,1.5-0.8,2.3-0.4c0.8,0.5,1.3,1.4,1,2.4c0,0.1-0.1,0.2-0.2,0.3c11.4,14.3,21.5,29.6,30.1,45.7c0.4,0.7,0.1,1.6-0.6,2
			C532.5,95.5,532.2,95.5,532,95.6z"/>
		<path class="st0" d="M558.5,82L558.5,82c-17.9-1-36.1-1.4-53.9-1.2l0,0c-0.8,0-1.5-0.7-1.5-1.5c0-0.8,0.6-1.5,1.5-1.5
			c16.5-0.2,33.3,0.1,49.9,1c0.1-0.3,0.3-0.5,0.6-0.7c0.9-0.5,2-0.6,3-0.2c1,0.4,1.7,1.2,2,2.2c0.1,0.5,0,1-0.3,1.3
			C559.4,81.8,559,82,558.5,82z"/>
		<path class="st0" d="M513.4,101.6c-0.2,0-0.4,0-0.6-0.1c-0.8-0.3-1.1-1.2-0.8-2c0,0,0,0,0,0c6.1-14.5,13.2-28.6,21.3-42.1
			c0.4-0.7,1.4-0.9,2.1-0.5c0.7,0.4,0.9,1.4,0.5,2.1c-8,13.4-15.1,27.3-21.1,41.7C514.5,101.3,514,101.6,513.4,101.6z"/>
		<path class="st0" d="M543.6,94.9h-0.3c-15-2.8-28.7-10.1-39.4-20.9c-0.6-0.6-0.6-1.5,0-2.1c0.6-0.6,1.5-0.6,2.1,0
			c10.3,10.4,23.5,17.4,37.8,20.1c0.8,0.1,1.4,0.8,1.4,1.6S544.4,95,543.6,94.9L543.6,94.9z"/>
		<path class="st0" d="M561.8,192.8h-0.2l-1.7-0.3c-0.8-0.1-1.4-0.9-1.3-1.7c0-0.3,0.2-0.7,0.5-0.9c11.5-10.5,22.8-21.4,33.8-32.5
			c0.6-0.6,1.5-0.6,2.1-0.1c0.6,0.6,0.6,1.5,0.1,2.1c0,0,0,0.1-0.1,0.1c-10.3,10.5-21.1,20.9-31.9,30.9c0.2,0.3,0.3,0.7,0.3,1.1
			C563.1,192.3,562.5,192.8,561.8,192.8z"/>
		<path class="st0" d="M588,186.5c-0.5,0-1-0.3-1.2-0.7l-16-24.4c-0.2,0-0.4,0-0.6-0.1c-0.8-0.3-1.3-1-1.3-1.9
			c0-0.8,0.5-1.5,1.3-1.7c1.1-0.3,2.2,0.3,2.7,1.3l16.4,25.1c0.5,0.7,0.3,1.6-0.4,2.1c0,0,0,0,0,0
			C588.5,186.4,588.3,186.5,588,186.5z"/>
		<path class="st0" d="M574.7,192.8h-0.2c-0.8-0.1-1.4-0.9-1.3-1.7l5.7-46c0.1-0.8,0.9-1.4,1.7-1.3s1.4,0.9,1.3,1.7l-5.7,46
			C576.1,192.2,575.5,192.8,574.7,192.8z"/>
		<path class="st0" d="M610,178.3c-0.3,0-0.6-0.1-0.8-0.2c-3.8-2.3-8.6-2.5-13.3-2.7H595c-12.1-0.5-24.1-2.3-35.8-5.3
			c-0.8-0.1-1.4-0.9-1.2-1.7c0.1-0.8,0.9-1.4,1.7-1.2c0.1,0,0.1,0,0.2,0.1c11.5,2.9,23.3,4.7,35.2,5.2h0.9
			c5.1,0.2,10.3,0.4,14.8,3.2c0.7,0.4,0.9,1.4,0.5,2.1C611,178,610.5,178.3,610,178.3L610,178.3z"/>
		<path class="st0" d="M722.5,32.6c-0.8,0-1.5-0.7-1.4-1.5c0-0.4,0.2-0.8,0.4-1l19.2-18.7c0.6-0.6,1.5-0.6,2.1,0s0.6,1.5,0,2.1l0,0
			l-19.3,18.7C723.3,32.5,722.9,32.6,722.5,32.6z"/>
		<path class="st0" d="M741.9,34.2c-0.5,0-1-0.3-1.3-0.7c-5.1-8.3-9.9-16.9-14.1-25.7c-0.4-0.7-0.1-1.6,0.7-2c0.7-0.4,1.6-0.1,2,0.7
			l0,0c4.2,8.7,8.9,17.2,14,25.4c0.4,0.7,0.2,1.6-0.5,2.1C742.5,34.1,742.2,34.2,741.9,34.2L741.9,34.2z"/>
		<path class="st0" d="M729.6,42.7L729.6,42.7c-0.9-0.1-1.5-0.8-1.5-1.6c0.9-13.5,3.2-26.9,6.9-40c0.2-0.8,1.1-1.3,1.9-1
			c0.8,0.2,1.3,1.1,1,1.9l0,0c-3.6,12.8-5.9,26-6.8,39.4C731.1,42.1,730.4,42.7,729.6,42.7z"/>
		<path class="st0" d="M750.5,28.9c-0.3,0-0.6-0.1-0.8-0.3c-8.8-6-18.4-10.7-28.5-14c-0.8-0.3-1.2-1.1-1-1.9s1.1-1.2,1.9-1
			c10.4,3.4,20.2,8.2,29.3,14.3c0.7,0.5,0.9,1.4,0.4,2.1C751.5,28.6,751,28.8,750.5,28.9L750.5,28.9z"/>
		<path class="st0" d="M13,464.5c-0.1,0-0.2,0-0.3,0c-0.8-0.2-1.3-1-1.1-1.8l0.6-2.7c0-0.2,0.1-0.3,0.2-0.5l8.8-35.3
			c0-0.1,0-0.2,0-0.2l0.7-2.6c0.2-0.8,1-1.3,1.8-1.1s1.3,1,1.1,1.8l-10.2,41.3C14.3,464,13.7,464.5,13,464.5z"/>
		<path class="st0" d="M37.2,452.3c-0.3,0-0.6-0.1-0.8-0.2c-10.7-7.1-22.6-12.2-35.2-14.8c-0.8-0.1-1.3-0.9-1.2-1.7c0,0,0,0,0,0
			c0.2-0.8,1-1.3,1.8-1.2C14.7,437,27,442.2,38,449.6c0.7,0.5,0.9,1.4,0.4,2.1C38.1,452.1,37.7,452.3,37.2,452.3L37.2,452.3z"/>
		<path class="st0" d="M2.1,448.9c-0.5,0-1.1-0.3-1.3-0.8c-0.4-0.7-0.1-1.6,0.6-2c8.9-4.9,17.9-9.8,26.9-14.4c0.7-0.4,1.6-0.1,2,0.6
			c0.4,0.7,0.1,1.6-0.6,2c-8.9,4.7-18,9.5-26.8,14.4C2.6,448.8,2.4,448.9,2.1,448.9z"/>
		<path class="st0" d="M29,470c-0.6,0-1.1-0.3-1.3-0.8c-7.6-14.9-13.7-30.5-18.3-46.6c-0.2-0.8,0.3-1.6,1.1-1.8
			c0.7-0.2,1.5,0.3,1.7,1c4.5,15.9,10.6,31.3,18.1,46.1c0.4,0.7,0.1,1.6-0.7,2C29.5,470,29.2,470.1,29,470z"/>
	</g>
</g>
</svg>
