<?xml version="1.0" encoding="utf-8"?>
<!-- Generator: Adobe Illustrator 22.1.0, SVG Export Plug-In . SVG Version: 6.00 Build 0)  -->
<svg version="1.1" id="Layer_1" xmlns="http://www.w3.org/2000/svg" xmlns:xlink="http://www.w3.org/1999/xlink" x="0px" y="0px"
	 viewBox="0 0 568.6 707.1" style="enable-background:new 0 0 568.6 707.1;" xml:space="preserve">
<style type="text/css">
	.st0{fill:#FFFFFF;}
</style>
<title>Asset 503</title>
<g id="Layer_2_1_">
	<g id="Layer_1-2">
		<path class="st0" d="M41.9,426.4c-0.1,0-0.2,0-0.4,0c-0.8-0.2-1.3-1-1.1-1.8c0,0,0,0,0,0c5.6-22.2,11.6-45.8,18.5-72.2
			c9.1-35.2,18.4-71,27.4-105.6l5.8-22.4c10-38.5,21.7-83.3,33.1-128c0.2-0.8,1-1.3,1.8-1.1s1.3,1,1.1,1.8l0,0
			c-11.4,44.7-23.1,89.5-33.1,128l-5.8,22.4c-9,34.6-18.3,70.4-27.4,105.6c-6.8,26.4-12.8,50-18.5,72.2
			C43.1,425.9,42.5,426.4,41.9,426.4z"/>
		<path class="st0" d="M347.1,681.1c-0.3,0-0.5-0.1-0.8-0.2c-8.9-5.1-16.9-10.5-25.4-16.2c-4.7-3.2-9.6-6.5-14.7-9.8
			c-7.6-5.1-14.8-10.1-22.4-15.5c-4.4-3.1-8.9-6.2-13.6-9.5c-42.7-27.7-83.4-55.2-122.9-81.7c-31.5-21.2-64-43.1-96.8-64.7
			c-0.7-0.4-1-1.3-0.5-2.1s1.3-1,2.1-0.5c0,0,0.1,0.1,0.1,0.1c32.8,21.6,65.4,43.5,96.8,64.7c39.4,26.6,80.2,54,122.8,81.7
			c4.8,3.3,9.3,6.5,13.7,9.6c7.6,5.3,14.7,10.4,22.3,15.4c5.1,3.3,10,6.6,14.8,9.8c8.4,5.7,16.3,11.1,25.2,16.1c0.7,0.4,1,1.3,0.6,2
			C348.1,680.8,347.6,681.1,347.1,681.1L347.1,681.1z"/>
		<path class="st0" d="M505.1,272.1c-0.3,0-0.5-0.1-0.7-0.2c-38.3-21.8-76.6-44.3-113.7-66c-39.6-23.3-80.6-47.3-122.3-71
			c-6.9-4-13.7-8.4-20.1-13.1c-1.3-0.8-2.7-1.4-4.1-1.8c-1.7-0.5-3.3-1.2-4.9-2.2c-13-8.5-26-15.8-38.5-22.9
			c-9.5-5.4-19.2-10.9-29-16.9c-0.7-0.4-0.9-1.4-0.5-2.1s1.4-0.9,2.1-0.5c9.7,6,19.4,11.5,28.9,16.8c12.6,7.1,25.5,14.5,38.7,23
			c1.3,0.8,2.7,1.4,4.1,1.8c1.7,0.5,3.3,1.2,4.9,2.2c6.4,4.7,13,9,19.9,13c41.7,23.7,82.7,47.7,122.3,71
			c37.1,21.7,75.4,44.2,113.7,66c0.7,0.4,1,1.3,0.6,2C506.1,271.8,505.6,272.1,505.1,272.1L505.1,272.1z"/>
		<path class="st0" d="M513.1,63.1L513.1,63.1c-41.9-0.8-84.7-1.7-126-2.5c-69.3-1.5-141-3-211.4-3.8c-0.8,0-1.5-0.7-1.5-1.5
			s0.7-1.5,1.5-1.5l0,0c70.4,0.8,142.1,2.4,211.5,3.8c41.4,0.9,84.1,1.8,126,2.5c0.8,0,1.5,0.7,1.5,1.5S513.9,63.1,513.1,63.1
			L513.1,63.1z"/>
		<path class="st0" d="M8.2,522.3c-0.4,0-0.7-0.1-1-0.3c-0.5-0.4-0.7-1.1-0.4-1.8c12.3-27.7,22.3-56.4,30-85.8
			c0.2-0.7,0.9-1.2,1.7-1.1c0.8,0.1,1.3,0.8,1.3,1.5l-0.2,4.8c0,0.8-0.7,1.4-1.4,1.4c-7.1,26-16.1,51.4-26.8,76.1
			c0.4,0.1,0.8,0.3,1,0.6c0.5,0.7,0.4,1.6-0.3,2.1c0,0,0,0,0,0l-3,2C8.8,522.2,8.5,522.3,8.2,522.3z"/>
		<path class="st0" d="M41.7,477.5c-0.4,0-0.8-0.2-1.1-0.5C29.9,464.7,18.3,453.2,6,442.6c-0.2,0.1-0.4,0.2-0.6,0.2
			c-1.3,0.1-2.4-1-2.4-2.2c0-1.1,0.7-2.1,1.7-2.3c0.4-0.1,0.9,0,1.2,0.3c13.2,11.2,25.6,23.4,37,36.5c0.5,0.6,0.5,1.6-0.2,2.1
			C42.5,477.4,42.1,477.5,41.7,477.5z"/>
		<path class="st0" d="M1.5,473c-0.8,0-1.5-0.7-1.5-1.5c0-0.6,0.3-1.1,0.9-1.4l17.9-8.4c6.3-3,12.8-6,19.8-7.5
			c1.2-0.3,2.4-0.5,3.6-0.7c4.9-0.9,9.6-1.8,12.8-5c0.6-0.6,1.5-0.5,2.1,0.1c0.5,0.6,0.6,1.5,0,2c-3.8,3.9-9.2,4.9-14.4,5.8
			c-1.2,0.2-2.4,0.4-3.5,0.7c-6.7,1.5-13,4.4-19.1,7.3l-17.9,8.4C1.9,472.9,1.7,473,1.5,473z"/>
		<path class="st0" d="M35.2,494.3c-0.7,0-1.3-0.5-1.5-1.1l-13-55.1c-0.2-0.8,0.3-1.6,1.1-1.8c0.8-0.2,1.6,0.3,1.8,1.1l0,0.2
			l12.9,54.9c0.2,0.8-0.3,1.6-1.1,1.8C35.4,494.3,35.3,494.3,35.2,494.3z"/>
		<path class="st0" d="M164,77.1c-0.4,0-0.7-0.2-1-0.4c-15.6-15.8-32.6-30.1-50.8-42.8c-0.7-0.5-0.8-1.4-0.3-2.1
			c0.5-0.6,1.3-0.8,2-0.4c18.3,12.8,35.5,27.2,51.2,43.1c0.6,0.6,0.6,1.5,0,2.1C164.8,77,164.4,77.2,164,77.1z"/>
		<path class="st0" d="M165.1,59.1c-0.1,0-0.3,0-0.4,0c-18.1-4.8-36.8-7.1-55.6-6.7c-0.8,0-1.5-0.6-1.5-1.4c0,0,0,0,0,0
			c0-0.8,0.6-1.5,1.5-1.5c19-0.3,38,2,56.4,6.8c0.8,0.1,1.4,0.9,1.3,1.7s-0.9,1.4-1.7,1.3V59.1z"/>
		<path class="st0" d="M128.7,85.7c-0.8,0-1.5-0.7-1.5-1.5c0-0.2,0-0.4,0.1-0.6l27.7-62c0.3-0.8,1.2-1.1,2-0.8
			c0.8,0.3,1.1,1.2,0.8,2l-25.2,56.4c0.1,0.3,0,0.7-0.1,1l-2.4,4.6C129.7,85.4,129.2,85.7,128.7,85.7z"/>
		<path class="st0" d="M144.4,88.1c-0.8,0-1.5-0.6-1.5-1.5l-1.3-46.5c-0.3-11.4-0.7-23.1-3.2-34.3c-0.4,0.2-0.8,0.2-1.3,0.1
			c-0.8-0.3-1.1-1.2-0.8-2l1.2-3c0.3-0.8,1.2-1.1,1.9-0.8c0.4,0.2,0.8,0.5,0.9,1c3.5,12.8,3.9,26.1,4.2,39l1.3,46.5
			C145.9,87.4,145.3,88,144.4,88.1C144.5,88.1,144.5,88.1,144.4,88.1L144.4,88.1z"/>
		<path class="st0" d="M545.4,292.5c-0.3,0-0.5-0.1-0.7-0.2l-35.5-19.5c-0.7-0.4-1-1.3-0.6-2c0.2-0.4,0.5-0.6,0.9-0.7l3.2-0.9
			c0.8-0.2,1.6,0.2,1.9,1c0.2,0.7-0.1,1.4-0.7,1.7l32.3,17.7c0.7,0.4,1,1.3,0.6,2C546.5,292.2,546,292.4,545.4,292.5L545.4,292.5z"
			/>
		<path class="st0" d="M507.9,308c-0.8,0-1.5-0.7-1.5-1.5c0-0.3,0.1-0.6,0.3-0.8c9.8-14.9,18.7-30.4,26.5-46.5
			c0.4-0.7,1.3-1.1,2-0.7s1.1,1.3,0.7,2c-7.8,16.2-16.7,31.8-26.7,46.9C508.9,307.7,508.4,308,507.9,308z"/>
		<path class="st0" d="M527.1,306.1L527.1,306.1c-0.8,0-1.5-0.7-1.5-1.5c0.4-13.4-3.1-26.6-9.9-38.2c-0.4-0.7-0.2-1.6,0.5-2.1
			c0.7-0.4,1.6-0.2,2.1,0.5c7.1,12,10.7,25.8,10.3,39.8C528.7,305.5,528,306.1,527.1,306.1C527.1,306.1,527.1,306.1,527.1,306.1z"/>
		<path class="st0" d="M506.4,291.7c-0.8,0-1.5-0.7-1.5-1.5c0-0.6,0.4-1.1,0.9-1.4l26.6-11.2c4-1.7,9.1-3.8,11.8-7.7
			c0.4-0.7,1.3-0.9,2.1-0.5c0.7,0.4,0.9,1.3,0.5,2.1c0,0.1-0.1,0.1-0.1,0.2c-3.2,4.6-8.7,6.9-13.1,8.8L507,291.6
			C506.8,291.7,506.6,291.7,506.4,291.7z"/>
		<path class="st0" d="M557.9,63.1c-0.2,0-0.3,0-0.5,0c-0.9-0.2-1.8-0.6-2.5-1.1c-0.3-0.2-0.6-0.4-0.9-0.5c-1.3-0.5-2.7-0.6-4.1-0.5
			l-30.6,1.5c-0.8,0-1.5-0.6-1.6-1.4c0,0,0,0,0,0c0-0.8,0.6-1.5,1.4-1.5l30.7-1.5c1.9-0.2,3.7,0,5.5,0.7c0.4,0.2,0.8,0.4,1.2,0.7
			c0.4,0.3,0.9,0.5,1.5,0.7c0.1,0,0.3,0,0.4-0.1c-0.1-0.8,0.4-1.6,1.3-1.7c0.6-0.1,1.2,0.2,1.5,0.8c0.4,0.9,0.3,1.9-0.3,2.7
			C560,62.5,559,63.1,557.9,63.1z"/>
		<path class="st0" d="M546,77.1c-0.1,0-0.3,0-0.4,0c-0.7-0.2-1.2-0.9-1.1-1.7c-0.1-0.1-0.1-0.1-0.2-0.1c-0.6,0.6-1.5,0.6-2.1,0
			c-0.3-0.3-0.5-0.7-0.5-1c-0.5-14.6-0.2-29.2,0.8-43.8c0.1-0.8,0.8-1.5,1.6-1.4c0.8,0.1,1.5,0.8,1.4,1.6l0,0
			c-1,13.8-1.3,27.7-0.9,41.6c0.4,0,0.8,0.2,1.1,0.3c1.3,0.6,2,2,1.7,3.4C547.3,76.7,546.7,77.1,546,77.1z"/>
		<path class="st0" d="M525.7,79.8c-0.4,0-0.7-0.1-1-0.3c-0.6-0.5-0.7-1.5-0.2-2.1c0,0,0,0,0,0c11-13.1,20.4-27.6,27.9-43
			c0.4-0.7,1.3-1,2-0.6c0.7,0.4,1,1.2,0.7,1.9C547.5,51.3,538,66,526.8,79.3C526.6,79.6,526.2,79.8,525.7,79.8z"/>
		<path class="st0" d="M567.1,86.1c-0.5,0-0.9-0.2-1.2-0.6c-11.4-15.9-24.7-30.3-39.7-42.9c-0.6-0.5-0.7-1.5-0.2-2.1c0,0,0,0,0,0
			c0.5-0.6,1.5-0.7,2.1-0.2c15.2,12.7,28.7,27.3,40.2,43.4c0.5,0.7,0.3,1.6-0.3,2.1C567.8,86,567.5,86.1,567.1,86.1z"/>
		<path class="st0" d="M385.8,705.6c-0.3,0-0.5-0.1-0.7-0.2c-11.9-6.6-22.8-14.8-32.5-24.3c-0.6-0.6-0.6-1.5,0-2.1
			c0.6-0.6,1.5-0.6,2.1,0c9.5,9.3,20.2,17.3,31.9,23.8c0.7,0.4,1,1.3,0.6,2C386.8,705.3,386.3,705.6,385.8,705.6L385.8,705.6z"/>
		<path class="st0" d="M359.6,707.1h-0.3c-0.8-0.2-1.3-1-1.1-1.8c1.8-8.2,7.4-14.5,12.8-20.7c4.2-4.8,8.6-9.8,11-15.5
			c0.3-0.8,1.2-1.1,2-0.8c0.8,0.3,1.1,1.2,0.8,2l0,0c-2.6,6.2-7.1,11.4-11.5,16.3c-5.4,6.1-10.5,11.9-12.1,19.3
			C360.9,706.6,360.3,707.1,359.6,707.1z"/>
		<path class="st0" d="M365.3,706.8c-0.2,0-0.5-0.1-0.7-0.2c-0.5-0.2-0.8-0.7-0.8-1.3l-1.4-34.8c0-0.8,0.6-1.5,1.4-1.6
			c0.8,0,1.5,0.6,1.6,1.4c0,0,0,0,0,0l1.2,32.1l1.7-1.1c0.8-0.3,1.6,0,2,0.8c0.2,0.6,0.1,1.2-0.3,1.7l-3.9,2.6
			C365.9,706.7,365.6,706.8,365.3,706.8z"/>
		<path class="st0" d="M403.2,691.5h-0.3c-17.4-3.1-35.1-3.7-52.7-1.6c-0.8,0.1-1.6-0.5-1.7-1.3c-0.1-0.8,0.5-1.6,1.3-1.7
			c0,0,0,0,0,0c17.8-2.1,35.9-1.5,53.6,1.7c0.8,0.1,1.4,0.8,1.4,1.6S404,691.6,403.2,691.5L403.2,691.5z"/>
	</g>
</g>
</svg>
