<?xml version="1.0" encoding="utf-8"?>
<!-- Generator: Adobe Illustrator 22.1.0, SVG Export Plug-In . SVG Version: 6.00 Build 0)  -->
<svg version="1.1" id="Layer_1" xmlns="http://www.w3.org/2000/svg" xmlns:xlink="http://www.w3.org/1999/xlink" x="0px" y="0px"
	 viewBox="0 0 617.8 572" style="enable-background:new 0 0 617.8 572;" xml:space="preserve">
<style type="text/css">
	.st0{fill:#FFFFFF;}
</style>
<title>Asset 504</title>
<g id="Layer_2_1_">
	<g id="Layer_1-2">
		<path class="st0" d="M121.4,268.4c-0.6,0-1.1-0.3-1.4-0.9c-13.6-30-27-60.4-40-89.8c-16.5-37.4-33.6-76-51-113.6
			c-0.3-0.8,0-1.6,0.7-2s1.6,0,2,0.7c17.4,37.6,34.5,76.2,51,113.6c13,29.4,26.4,59.8,40.1,89.8c0.3,0.8,0,1.6-0.7,2
			C121.9,268.3,121.6,268.4,121.4,268.4L121.4,268.4z"/>
		<path class="st0" d="M236.3,525c-0.6,0-1.1-0.3-1.4-0.9c-6.9-14.7-14-29.9-20-45.9c-0.5-0.6-1-1.3-1.4-2c-0.4-0.6-0.8-1.2-1.3-1.8
			c-0.1-0.1-0.2-0.3-0.3-0.4c-6.4-13.7-12.4-27.7-18.2-41.2c-7.7-18-15.6-36.5-24.8-54.8c-0.5-1-0.7-2.1-0.6-3.2
			c0.1-0.6-0.1-1.3-0.4-1.8c-4.4-8.9-8.3-18-12.1-26.9c-4.7-11.1-9.6-22.7-15.5-33.4c-0.4-0.7-0.1-1.6,0.6-2s1.6-0.1,2,0.6
			c6,10.9,10.9,22.5,15.7,33.7c3.7,8.8,7.6,17.9,12,26.7c0.5,1,0.7,2.1,0.7,3.2c-0.1,0.6,0.1,1.3,0.3,1.8
			c9.2,18.3,17.1,36.9,24.9,54.9c5.7,13.4,11.7,27.2,18.1,40.9c0.5,0.6,1,1.3,1.5,2c0.4,0.6,0.8,1.2,1.3,1.8
			c0.2,0.2,0.3,0.3,0.3,0.5c6,15.9,13.1,31.2,20,45.9c0.4,0.7,0,1.6-0.7,2c0,0,0,0,0,0C236.8,524.9,236.6,525,236.3,525z"/>
		<path class="st0" d="M155,278.4c-0.8,0-1.5-0.7-1.5-1.5c0-0.6,0.3-1.1,0.8-1.3c20.2-10.9,39.9-22.2,58.9-33.2
			c11.5-6.6,23.4-13.5,35.4-20.3c2.1-1,4.4-2.1,6.6-3.1c2.2-1,4.5-2,6.4-3c47.2-27.1,91.7-51.8,138.7-77.9
			c19.9-11.1,40.5-22.5,61.2-34.1c16.2-9.4,32.4-18.4,48-27c19-10.5,38.7-21.4,58-32.9c0.7-0.4,1.6-0.2,2.1,0.5s0.2,1.6-0.5,2.1l0,0
			c-19.3,11.6-39,22.5-58,33c-15.6,8.7-31.8,17.6-48,27c-20.7,11.6-41.3,23-61.2,34.1c-47,26.1-91.5,50.8-138.8,77.9
			c-2.1,1.1-4.4,2.1-6.6,3.1s-4.5,2-6.4,3c-11.9,6.7-23.9,13.6-35.4,20.2c-19,11-38.7,22.3-59,33.2
			C155.5,278.4,155.2,278.4,155,278.4z"/>
		<path class="st0" d="M137.8,308.2c-0.6,0-1.1-0.4-1.4-0.9l-12.6-29.4c-0.5-1.1-0.7-1.2-0.7-1.2c-0.8-0.1-1.4-0.9-1.3-1.7
			s0.9-1.4,1.7-1.3c1.9,0.3,2.7,2.2,3.1,3l12.6,29.4c0.3,0.8,0,1.7-0.8,2c0,0,0,0,0,0C138.2,308.2,138,308.2,137.8,308.2z"/>
		<path class="st0" d="M96.3,310.9c-0.8,0-1.5-0.7-1.5-1.5c0-0.5,0.3-1,0.7-1.3c14.9-9.4,30.2-18.6,45.4-27.4
			c0.7-0.4,1.6-0.2,2.1,0.5c0.4,0.7,0.2,1.6-0.6,2.1l0,0c-15.2,8.8-30.5,18-45.3,27.3C96.8,310.8,96.6,310.9,96.3,310.9z"/>
		<path class="st0" d="M120.6,313.1c-0.3,0-0.5-0.1-0.8-0.2c-0.7-0.4-0.9-1.3-0.5-2.1c0,0,0,0,0,0c8.7-14.4,15-30.2,18.5-46.7
			c0.2-0.8,1-1.3,1.8-1.2s1.3,1,1.2,1.8c-3.6,16.8-10,32.9-18.9,47.6C121.6,312.9,121.1,313.1,120.6,313.1z"/>
		<path class="st0" d="M156.4,303.8c-0.2,0-0.4,0-0.5-0.1l-46.2-17.6c-0.8-0.3-1.1-1.2-0.8-2c0.3-0.7,1.1-1.1,1.9-0.8l46.2,17.6
			c0.8,0.3,1.2,1.2,0.9,1.9C157.6,303.4,157,303.8,156.4,303.8z"/>
		<path class="st0" d="M28.1,58.1c-0.6,0-1.1-0.3-1.4-0.9c-6.2-13.5-10.6-27.8-13-42.5c-0.1-0.8,0.4-1.6,1.3-1.7
			c0.8-0.1,1.6,0.4,1.7,1.3c2.4,14.4,6.6,28.5,12.7,41.7c0.3,0.8,0,1.7-0.7,2C28.5,58.1,28.3,58.1,28.1,58.1z"/>
		<path class="st0" d="M1.5,50.3c-0.6,0-1.1-0.3-1.4-0.9c-0.4-0.7,0-1.6,0.7-2c0,0,0,0,0,0c15.4-7.2,29.9-16.1,43.4-26.4
			c0.7-0.5,1.6-0.4,2.1,0.3s0.4,1.6-0.3,2.1C32.4,34,17.7,42.9,2.1,50.2C1.9,50.3,1.7,50.3,1.5,50.3z"/>
		<path class="st0" d="M43,52.8c-0.2,0-0.4,0-0.6-0.1C29.7,47.6,17.9,40.3,7.7,31.2c-0.6-0.6-0.7-1.5-0.1-2.1s1.5-0.7,2.1-0.1
			c10,8.9,21.4,16,33.8,21c0.8,0.3,1.1,1.2,0.7,2C44.1,52.4,43.6,52.8,43,52.8z"/>
		<path class="st0" d="M13.9,57.9h-0.2c-0.8-0.1-1.4-0.9-1.2-1.7c2.7-16.3,9.5-31.7,19.6-44.7c0.5-0.6,1.5-0.7,2.1-0.2
			c0.6,0.5,0.7,1.4,0.2,2c-9.8,12.6-16.4,27.5-19,43.3C15.3,57.4,14.7,57.9,13.9,57.9z"/>
		<path class="st0" d="M576.8,41.3c-0.8,0-1.5-0.7-1.5-1.5c0-0.5,0.2-1,0.6-1.2L611,14c0.7-0.5,1.6-0.3,2.1,0.4
			c0.5,0.7,0.3,1.6-0.4,2.1l0,0l-35,24.5C577.4,41.2,577.1,41.3,576.8,41.3z"/>
		<path class="st0" d="M614.5,60c-0.4,0-0.8-0.2-1.1-0.5C598.9,44.1,587.9,25.8,577.2,8c-0.5-0.7-0.3-1.6,0.4-2.1
			c0.7-0.5,1.6-0.3,2.1,0.4c0,0,0.1,0.1,0.1,0.1c10.6,17.6,21.6,35.8,35.8,51c0.6,0.6,0.6,1.5,0,2.1C615.3,59.9,614.9,60,614.5,60z"
			/>
		<path class="st0" d="M589,58h-0.2c-0.8-0.1-1.4-0.8-1.3-1.7c0,0,0,0,0,0l6.5-55c0.1-0.8,0.8-1.4,1.7-1.3s1.4,0.8,1.3,1.7l0,0
			l-6.5,54.9C590.5,57.4,589.8,58,589,58z"/>
		<path class="st0" d="M616.3,40.9h-0.2c-15.7-2-31.1-6.3-45.5-12.9c-0.7-0.4-1-1.3-0.7-2c0.4-0.7,1.2-1,1.9-0.7
			c14.2,6.5,29.2,10.7,44.7,12.6c0.8,0.1,1.5,0.8,1.4,1.6C617.9,40.3,617.2,41,616.3,40.9L616.3,40.9L616.3,40.9z"/>
		<path class="st0" d="M256.5,568.6h-0.2c-1.6-0.1-3.1-1.6-3.7-3l-15.6-34c-0.3-0.8,0-1.6,0.7-2c0.8-0.3,1.6,0,2,0.7l15.5,34
			c0.2,0.5,0.6,0.9,1,1.2c0.6-0.6,1.6-0.5,2.1,0.1c0.5,0.5,0.5,1.2,0.2,1.8C258.1,568.1,257.3,568.5,256.5,568.6z"/>
		<path class="st0" d="M233.1,566.7c-0.8,0-1.5-0.7-1.4-1.5c0-0.4,0.2-0.8,0.4-1l19.6-19.2c4-3.9,8.6-8.3,14.1-10.9
			c0.8-0.4,1.6,0,2,0.7c0.4,0.8,0,1.6-0.7,2c-5.1,2.4-9.2,6.4-13.3,10.3l-19.6,19.2C233.9,566.6,233.5,566.7,233.1,566.7z"/>
		<path class="st0" d="M245.2,572L245.2,572c-0.9,0-1.5-0.7-1.5-1.6c0.5-12,2.4-23.9,5.8-35.4c0.2-0.8,1.1-1.3,1.9-1
			c0.8,0.2,1.3,1.1,1,1.9c-3.3,11.3-5.2,23-5.7,34.7C246.7,571.4,246,572,245.2,572z"/>
		<path class="st0" d="M280.4,559.4h-0.2c-16.4-1.7-32.3-6.4-47-13.8c-0.7-0.4-1-1.3-0.7-2s1.3-1,2-0.7
			c14.4,7.2,29.9,11.8,45.9,13.5c0.8,0,1.5,0.8,1.4,1.6C281.9,558.8,281.2,559.4,280.4,559.4L280.4,559.4z"/>
	</g>
</g>
</svg>
