<?xml version="1.0" encoding="utf-8"?>
<!-- Generator: Adobe Illustrator 22.1.0, SVG Export Plug-In . SVG Version: 6.00 Build 0)  -->
<svg version="1.1" id="Layer_1" xmlns="http://www.w3.org/2000/svg" xmlns:xlink="http://www.w3.org/1999/xlink" x="0px" y="0px"
	 viewBox="0 0 639 629.5" style="enable-background:new 0 0 639 629.5;" xml:space="preserve">
<style type="text/css">
	.st0{fill:#FFFFFF;}
</style>
<title>Asset 506</title>
<g id="Layer_2_1_">
	<g id="Layer_1-2">
		<path class="st0" d="M36.7,330.5c-0.8,0-1.5-0.7-1.5-1.5c0-0.3,0.1-0.5,0.2-0.8L172.6,95.8c0.5-0.7,1.4-0.9,2.1-0.4
			c0.6,0.4,0.8,1.2,0.5,1.9L38,329.7C37.7,330.2,37.2,330.5,36.7,330.5z"/>
		<path class="st0" d="M198.4,75.6c-0.8,0-1.5-0.7-1.5-1.5c0-0.5,0.3-1,0.7-1.3c10.3-6.3,21-12.4,31.3-18.3
			c10.9-6.3,22.1-12.7,32.8-19.2c0.7-0.4,1.6-0.2,2.1,0.5c0.4,0.7,0.2,1.6-0.5,2.1l0,0c-10.7,6.5-22,13-32.9,19.3
			c-10.3,5.9-20.9,12-31.2,18.3C199,75.5,198.7,75.6,198.4,75.6z"/>
		<path class="st0" d="M517.1,83.2c-0.1,0-0.2,0-0.4,0c-31.7-8.2-64-16.8-95.1-25.2c-35.8-9.6-72.8-19.5-109.2-28.7
			c-0.8-0.2-1.3-1-1.1-1.8c0.2-0.8,1-1.3,1.8-1.1c36.4,9.2,73.4,19.1,109.2,28.7c31.1,8.3,63.4,17,95.1,25.1
			c0.8,0.1,1.4,0.9,1.3,1.7S517.9,83.3,517.1,83.2L517.1,83.2z"/>
		<path class="st0" d="M599.9,245.2c-0.6,0-1.2-0.4-1.4-1c-3-8.5-6.2-17.5-9.8-27.6c-4.4-12.2-9-24.7-13.3-36.7
			c-7.3-19.9-14.8-40.5-21.9-60.9c-0.3-0.8,0.1-1.6,0.9-1.9c0.8-0.3,1.6,0.1,1.9,0.9l0,0c7.1,20.3,14.6,40.9,21.9,60.8
			c4.4,12,8.9,24.4,13.3,36.7c3.7,10.1,6.9,19.2,9.8,27.7c0.3,0.8-0.1,1.6-0.9,1.9C600.3,245.2,600.1,245.2,599.9,245.2z"/>
		<path class="st0" d="M437,492.6c-0.3,0-0.6-0.1-0.9-0.3c-0.7-0.5-0.8-1.4-0.3-2.1c25.6-34.1,51.2-68.7,75.9-102.2
			c25.3-34.3,51.5-69.8,77.7-104.6c0.5-0.7,1.4-0.8,2.1-0.3c0.7,0.5,0.8,1.4,0.3,2.1c-26.2,34.8-52.3,70.3-77.7,104.6
			c-24.7,33.5-50.3,68.2-75.9,102.2C437.9,492.4,437.5,492.6,437,492.6z"/>
		<path class="st0" d="M193.1,522.7c-0.8,0-1.5-0.7-1.5-1.5c0-0.8,0.6-1.5,1.4-1.5c0,0,0,0,0,0c26.9-0.5,54.1-1.3,80.4-2.1
			c36.1-1.1,73.4-2.2,110.6-2.5l0,0c0.8,0,1.5,0.7,1.5,1.5s-0.7,1.5-1.5,1.5c-37.1,0.2-74.4,1.4-110.5,2.5
			C247.3,521.4,220,522.2,193.1,522.7L193.1,522.7z"/>
		<path class="st0" d="M186.7,629.5c-0.6,0-1.1-0.4-1.4-0.9c-4.2-9.9-8.6-19.7-12.8-29.3c-5.5-12.6-11.2-25.6-16.8-38.7
			c-0.3-0.8,0-1.6,0.8-2c0.8-0.3,1.6,0,2,0.8c5.5,13.1,11.3,26.1,16.8,38.7c4.2,9.6,8.6,19.4,12.8,29.3c0.3,0.8,0,1.6-0.7,2
			c0,0,0,0,0,0C187.1,629.4,186.9,629.5,186.7,629.5z"/>
		<path class="st0" d="M6.2,375.5c-0.6,0-1.2-0.1-1.7-0.4c-0.7-0.4-1-1.3-0.6-2c0,0,0-0.1,0.1-0.1c8.4-13.3,17.1-26.6,25.9-39.7
			c0.5-0.7,1.4-0.9,2.1-0.4c0.7,0.5,0.9,1.4,0.4,2.1c-8.2,12.1-16.2,24.4-24,36.7c0.2,0,0.4,0.1,0.6,0.2c0.7,0.5,0.8,1.4,0.4,2.1
			c0,0,0,0,0,0C8.6,374.9,7.4,375.5,6.2,375.5z"/>
		<path class="st0" d="M34.7,370.7c-0.4,0-0.8-0.2-1.1-0.5c-9-9.8-18.4-19.5-28-28.8c-0.6-0.6-0.7-1.5-0.1-2.1
			c0.6-0.6,1.5-0.7,2.1-0.1c0,0,0,0,0.1,0.1c9.6,9.4,19,19.1,28.1,28.9c0.6,0.6,0.5,1.6-0.1,2.1C35.4,370.6,35,370.7,34.7,370.7
			L34.7,370.7z"/>
		<path class="st0" d="M20.7,369.8c-0.6,0-1.2-0.4-1.4-1c-4.1-11.6-7.2-23.6-9.1-35.7c-0.1-0.8,0.4-1.6,1.3-1.7
			c0.8-0.1,1.6,0.4,1.7,1.3c1.9,12,4.9,23.8,9,35.2c0.3,0.8-0.1,1.6-0.9,1.9c0,0,0,0,0,0C21,369.8,20.8,369.8,20.7,369.8z"/>
		<path class="st0" d="M1.5,357.2c-0.8,0-1.5-0.6-1.6-1.4c0-0.8,0.6-1.5,1.4-1.6c9.8-1.1,19.7-2.3,29.5-3.8c1.5-0.2,5.1-1,5.3-3
			c0.1-0.8,0.8-1.4,1.6-1.4c0.8,0.1,1.4,0.8,1.4,1.6c0,0,0,0,0,0c-0.2,3-3,5-7.8,5.7c-9.8,1.5-19.8,2.7-29.6,3.8H1.5z"/>
		<path class="st0" d="M172.6,93c-0.3,0-0.5-0.1-0.7-0.2c-0.7-0.4-1-1.3-0.6-2c5.7-10.2,12-20.1,19-29.5c0.5-0.7,1.4-0.8,2.1-0.3
			c0.7,0.5,0.8,1.4,0.3,2.1c-6.9,9.3-13.2,19-18.7,29.1C173.7,92.7,173.2,93,172.6,93z"/>
		<path class="st0" d="M199.6,103.8c-0.4,0-0.8-0.2-1.1-0.5c-11-11.6-21.6-23.8-31.5-36.3c-0.5-0.7-0.4-1.6,0.2-2.1s1.6-0.4,2.1,0.2
			c9.8,12.5,20.4,24.6,31.3,36.1c0.6,0.6,0.5,1.5-0.1,2.1C200.4,103.7,200,103.8,199.6,103.8z"/>
		<path class="st0" d="M186.5,85.7c-7.8,0-15.6-1.5-22.9-4.3c-0.8-0.3-1.1-1.2-0.8-2c0.3-0.7,1.1-1.1,1.9-0.8
			c7.9,3.1,16.4,4.5,24.9,4c0.8,0,1.5,0.6,1.6,1.4s-0.6,1.5-1.4,1.6C188.6,85.7,187.6,85.7,186.5,85.7z"/>
		<path class="st0" d="M177.3,98c-0.7,0-1.3-0.5-1.5-1.2c-2.7-12.4-2.9-25.3-0.7-37.8c0.2-0.8,1-1.3,1.8-1.2
			c0.8,0.2,1.3,0.9,1.2,1.7c-2.2,12.1-2,24.6,0.6,36.6c0.2,0.8-0.3,1.6-1.1,1.8c0,0,0,0,0,0C177.5,98,177.4,98,177.3,98z"/>
		<path class="st0" d="M272.2,33.1c-0.8,0-1.5-0.7-1.5-1.5c0-0.7,0.4-1.2,1-1.4c21.1-6.6,41.1-16.2,59.4-28.6
			c0.6-0.5,1.6-0.5,2.1,0.1c0.5,0.6,0.5,1.6-0.1,2.1c-0.1,0.1-0.2,0.1-0.3,0.2c-18.5,12.6-38.8,22.3-60.2,29
			C272.5,33.1,272.4,33.1,272.2,33.1z"/>
		<path class="st0" d="M288.9,57.9L288.9,57.9c-0.9,0-1.5-0.7-1.5-1.6c0,0,0,0,0,0c1-18.2,1.2-36.6,0.7-54.8c0-0.8,0.6-1.5,1.5-1.5
			c0.8,0,1.5,0.6,1.5,1.4c0,0,0,0.1,0,0.1c0.5,18.3,0.3,36.8-0.7,55C290.3,57.3,289.7,57.9,288.9,57.9z"/>
		<path class="st0" d="M294.1,26.1c-8.2,0-16.4-1-24.4-2.9c-0.8-0.2-1.3-1-1.1-1.8c0,0,0,0,0,0c0.2-0.8,1-1.3,1.8-1.1
			c14.5,3.5,29.6,3.7,44.2,0.7c0.8-0.2,1.6,0.4,1.8,1.2c0.2,0.8-0.4,1.6-1.2,1.8C308.3,25.4,301.2,26.2,294.1,26.1z"/>
		<path class="st0" d="M274.9,45.2c-0.6,0-1.1-0.3-1.5-0.7c-0.5-0.7-1-1.9,0.2-3.8c8.4-13.3,17.9-25.8,28.6-37.4
			c0.5-0.7,1.4-0.8,2.1-0.3c0.7,0.5,0.8,1.4,0.3,2.1c-0.1,0.1-0.1,0.2-0.2,0.3c-10.4,11.3-19.7,23.4-27.9,36.3
			c0.4,0.3,0.6,0.8,0.6,1.3c0,0.9-0.6,1.7-1.5,2C275.4,45.1,275.2,45.2,274.9,45.2z M275,44.3L275,44.3z"/>
		<path class="st0" d="M572.6,107c-0.6,0-1.1-0.2-1.5-0.7c-0.4-0.4-0.4-1-0.2-1.6L525.8,88c-0.6-0.3-1.3-0.4-2-0.4
			c0,0-0.1,0.1-0.2,0.2c0.4,0.7,0.2,1.6-0.5,2.1c-0.6,0.4-1.4,0.3-1.9-0.3c-0.6-0.7-0.8-1.6-0.6-2.5c0.3-1.1,1.1-2,2.2-2.3
			c1.3-0.3,2.8-0.2,4,0.4l45.6,16.9c1,0.3,1.8,1,2.2,2c0.3,1-0.2,2.1-1.1,2.6C573.4,106.9,573,107,572.6,107z"/>
		<path class="st0" d="M532.8,114.8c-0.4,0-0.7-0.1-1-0.4c-0.6-0.6-0.6-1.5-0.1-2.1c0,0,0,0,0,0l39-42.3c0.5-0.7,1.4-0.8,2.1-0.3
			c0.7,0.5,0.8,1.4,0.3,2.1c-0.1,0.1-0.1,0.2-0.2,0.3l-39,42.3C533.6,114.6,533.2,114.8,532.8,114.8z"/>
		<path class="st0" d="M552.5,111c-0.7,0-1.4-0.6-1.5-1.3c-1.7-11.4-6-22.4-12.5-31.9c-0.5-0.6-0.5-1.6,0.1-2.1
			c0.6-0.5,1.6-0.5,2.1,0.1c0.1,0.1,0.1,0.2,0.2,0.3c6.7,10,11.1,21.3,12.9,33.2c0.1,0.8-0.4,1.6-1.3,1.7c0,0,0,0,0,0L552.5,111z"/>
		<path class="st0" d="M529.8,100.3c-0.8,0-1.5-0.6-1.6-1.4s0.6-1.5,1.4-1.6c14-1.3,27.7-4.6,40.7-10c0.8-0.3,1.6,0.1,2,0.8
			s-0.1,1.6-0.8,2c-13.3,5.5-27.3,8.9-41.5,10.2L529.8,100.3z"/>
		<path class="st0" d="M617.9,302.1c-0.6,0-1.1-0.3-1.4-0.9c-7.8-16.7-13.8-34.2-17.9-52.2c-0.2-0.8,0.3-1.6,1.1-1.8
			c0.8-0.2,1.6,0.3,1.8,1.1c4.1,17.8,10,35.1,17.7,51.7c0.3,0.8,0,1.6-0.7,2C618.3,302.1,618.1,302.1,617.9,302.1z"/>
		<path class="st0" d="M592.5,279.4c-0.4,0-0.7-0.1-1-0.4c-0.6-0.5-0.7-1.5-0.2-2.1c0,0,0,0,0,0c9.8-11.5,20.2-22.4,31.4-32.6
			c0.5-0.6,1.5-0.7,2.1-0.1c0.6,0.5,0.7,1.5,0.1,2.1c-0.1,0.1-0.2,0.2-0.3,0.2c-11.1,10.1-21.4,20.9-31.1,32.4
			C593.3,279.2,592.9,279.4,592.5,279.4z"/>
		<path class="st0" d="M626,287.2c-0.3,0-0.6-0.1-0.9-0.3l-39.5-30c-0.7-0.5-0.8-1.4-0.3-2.1c0.5-0.7,1.4-0.8,2.1-0.3l39.5,30.1
			c0.7,0.5,0.8,1.4,0.3,2.1C626.9,287,626.5,287.2,626,287.2L626,287.2z"/>
		<path class="st0" d="M581.8,271.1c-0.8,0-1.5-0.6-1.6-1.4s0.6-1.5,1.4-1.6l0,0c18.7-1.8,37.2-4.8,55.5-8.8
			c0.8-0.2,1.6,0.3,1.8,1.1c0.2,0.8-0.3,1.6-1.1,1.8c-18.4,4.1-37.1,7-55.9,8.9L581.8,271.1z"/>
		<path class="st0" d="M384.2,562.3c-0.8,0-1.5-0.7-1.5-1.5c0-0.3,0.1-0.6,0.2-0.8l4.1-6.1c-0.2-0.8,0.3-1.5,1-1.8
			c0.1,0,0.2-0.1,0.3-0.1l38.2-56.7c0.5-0.7,1.4-0.9,2.1-0.4c0.7,0.5,0.9,1.4,0.4,2.1l-38.7,57.6c0.1,1.5-0.2,3-1,4.3
			c-1,1.8-2.8,3-4.8,3.4L384.2,562.3z"/>
		<path class="st0" d="M396.4,515.2c-0.8,0.1-1.6-0.5-1.6-1.4c-0.1-0.8,0.5-1.6,1.4-1.6c15.8-3.1,31.9-4.9,48-5.2l0.2-0.1
			c0.4-0.1,0.8-0.1,1.1,0.1h1.7c0.8,0,1.5,0.7,1.5,1.5c0,0.2,0,0.4-0.1,0.6c-0.5,1-1.5,1.6-2.6,1.5c-0.6,0-1.2-0.2-1.6-0.6
			c-16,0.3-31.9,2-47.5,5.1L396.4,515.2z"/>
		<path class="st0" d="M421.1,542.2c-0.8,0-1.4-0.6-1.5-1.4c-1-14.7-4.2-29.2-9.5-43c-0.3,0.2-0.7,0.3-1.1,0.3
			c-0.8-0.1-1.4-0.8-1.3-1.6c0,0,0,0,0,0l0.5-3.9c0.1-0.8,0.9-1.4,1.7-1.3c0.5,0.1,1,0.4,1.2,0.9c6.5,15.4,10.4,31.8,11.5,48.4
			c0.1,0.8-0.6,1.5-1.4,1.6c0,0,0,0,0,0L421.1,542.2z"/>
		<path class="st0" d="M400.4,517.5c-0.8,0.1-1.6-0.5-1.7-1.3c-0.1-0.8,0.5-1.6,1.3-1.7c9.5-2.6,18.7-6.3,27.5-10.9
			c0.7-0.4,1.6-0.1,2,0.6s0.1,1.6-0.6,2c-8.9,4.7-18.3,8.5-28.1,11.2C400.6,517.4,400.5,517.5,400.4,517.5z"/>
		<path class="st0" d="M110.5,530.6c-0.6,0-1.2-0.4-1.4-1c-0.3-0.7,0.1-1.6,0.8-1.9l4.6-2.2c0.6-0.3,1.4-0.1,1.8,0.4
			c19.8-5.1,40.1-8.3,60.5-9.5c0.8,0,1.5,0.6,1.6,1.4c0,0.8-0.6,1.5-1.4,1.6c-22.3,1.3-44.5,5-66,11
			C110.8,530.6,110.7,530.6,110.5,530.6z"/>
		<path class="st0" d="M149.5,547.1c-0.7,0-1.3-0.4-1.4-1.1c-4.8-16.9-10.5-33.6-17.1-50c-0.2,0.1-0.5,0.1-0.7,0.1
			c-0.8-0.1-1.4-0.9-1.2-1.7l0.4-2.8c0.1-0.8,0.9-1.4,1.7-1.2c0.5,0.1,0.9,0.4,1.1,0.9c7.2,17.6,13.4,35.6,18.7,53.9
			c0.2,0.8-0.2,1.6-1,1.9C149.8,547.1,149.7,547.1,149.5,547.1L149.5,547.1z"/>
		<path class="st0" d="M128.4,550.8c-0.2,0-0.4,0-0.6-0.1c-0.8-0.3-1.1-1.2-0.8-2c0,0,0,0,0,0l25.3-55.5c0.4-0.7,1.3-1,2-0.7
			c0.7,0.4,1,1.2,0.7,1.9L129.8,550C129.5,550.5,129,550.8,128.4,550.8z"/>
		<path class="st0" d="M171.2,536c-0.2,0-0.5-0.1-0.7-0.2c-15.8-8.6-31-18.4-45.4-29.3c-0.7-0.4-0.9-1.4-0.4-2.1s1.4-0.9,2.1-0.4
			c0.1,0,0.1,0.1,0.2,0.1c14.3,10.8,29.3,20.5,45,29.1c0.7,0.4,1,1.3,0.6,2C172.3,535.7,171.8,536,171.2,536z"/>
	</g>
</g>
</svg>
